<svg width="55" height="54" viewBox="0 0 55 54" fill="none"
     xmlns="http://www.w3.org/2000/svg">
    <g id="addCardButton">
        <path id="Ellipse 32"
              d="M51.5 27C51.5 39.9184 40.8157 50.5 27.5 50.5C14.1843 50.5 3.5 39.9184 3.5 27C3.5 14.0816 14.1843 3.5 27.5 3.5C40.8157 3.5 51.5 14.0816 51.5 27Z"
              fill="#4CB69F" stroke="white" stroke-width="7"/>
        <path id="Union"
              d="M29.8644 17.3051C29.8644 15.4797 28.3847 14 26.5593 14C24.734 14 23.2542 15.4797 23.2542 17.3051V23.6949H17.3051C15.4797 23.6949 14 25.1747 14 27C14 28.8253 15.4797 30.3051 17.3051 30.3051H23.2542V36.6949C23.2542 38.5203 24.734 40 26.5593 40C28.3847 40 29.8644 38.5203 29.8644 36.6949V30.3051H36.6949C38.5203 30.3051 40 28.8253 40 27C40 25.1747 38.5203 23.6949 36.6949 23.6949H29.8644V17.3051Z"
              fill="white"/>
    </g>
</svg>
