<svg width="100%" height="100%" viewBox="0 0 155 201" fill="none"
     xmlns="http://www.w3.org/2000/svg">
    <g id="DeckCard">
        <g id="background">
            <g id="Subtract" filter="url(#filter0_d)">
                <path d="M150.742 10.1547C150.742 9.56397 150.702 8.97085 150.547 8.40095C149.385 4.14339 145.484 1.01294 140.85 1.01294H10.7918C5.24155 1.01294 0.742188 5.50314 0.742188 11.0421V186.552C0.742188 190.316 2.81975 193.596 5.89287 195.311C6.88021 195.862 8.02608 196.013 9.15684 196.013H142.484C143.615 196.013 144.761 195.862 145.748 195.311C148.075 194.012 149.831 191.817 150.547 189.193C150.702 188.624 150.742 188.03 150.742 187.44V10.1547Z"
                      fill="url(#paint0_linear)"/>
            </g>
        </g>
        <g id="text">
            <g id="Create Deck" filter="url(#filter1_d)">
                <path d="M47.4826 69.261C46.3253 69.261 45.2426 69.0557 44.2346 68.645C43.2266 68.2344 42.3493 67.6277 41.6026 66.825C40.8746 66.0224 40.2959 65.033 39.8666 63.857C39.4373 62.681 39.2226 61.337 39.2226 59.825C39.2226 58.3317 39.4373 56.997 39.8666 55.821C40.3146 54.6264 40.9119 53.6184 41.6586 52.797C42.4239 51.9757 43.3106 51.3504 44.3186 50.921C45.3453 50.4917 46.4373 50.277 47.5946 50.277C48.7519 50.277 49.7786 50.5104 50.6746 50.977C51.5706 51.4437 52.3079 51.985 52.8866 52.601L51.1506 54.701C50.6653 54.2157 50.1426 53.833 49.5826 53.553C49.0226 53.2544 48.3879 53.105 47.6786 53.105C46.9319 53.105 46.2413 53.2637 45.6066 53.581C44.9906 53.8797 44.4493 54.3184 43.9826 54.897C43.5346 55.457 43.1799 56.1477 42.9186 56.969C42.6759 57.7904 42.5546 58.7144 42.5546 59.741C42.5546 61.8317 43.0026 63.4744 43.8986 64.669C44.8133 65.845 46.0453 66.433 47.5946 66.433C48.4159 66.433 49.1439 66.265 49.7786 65.929C50.4133 65.5744 50.9919 65.117 51.5146 64.557L53.2506 66.601C52.5039 67.4597 51.6453 68.1224 50.6746 68.589C49.7226 69.037 48.6586 69.261 47.4826 69.261ZM56.0274 68.925V55.177H58.6874L58.9114 57.613H59.0234C59.5087 56.717 60.0967 56.0357 60.7874 55.569C61.4781 55.0837 62.1874 54.841 62.9154 54.841C63.5687 54.841 64.0914 54.9344 64.4834 55.121L63.9234 57.921C63.6807 57.8464 63.4567 57.7904 63.2514 57.753C63.0461 57.7157 62.7941 57.697 62.4954 57.697C61.9541 57.697 61.3847 57.9117 60.7874 58.341C60.1901 58.7517 59.6767 59.4797 59.2474 60.525V68.925H56.0274ZM72.0793 69.261C71.1273 69.261 70.2406 69.1024 69.4193 68.785C68.5979 68.449 67.8793 67.973 67.2633 67.357C66.6473 66.741 66.1619 65.9944 65.8073 65.117C65.4713 64.221 65.3033 63.2037 65.3033 62.065C65.3033 60.945 65.4806 59.937 65.8353 59.041C66.1899 58.145 66.6566 57.389 67.2353 56.773C67.8326 56.157 68.5139 55.681 69.2793 55.345C70.0446 55.009 70.8286 54.841 71.6313 54.841C72.5646 54.841 73.3859 54.9997 74.0953 55.317C74.8046 55.6344 75.3926 56.0824 75.8593 56.661C76.3446 57.2397 76.7086 57.9304 76.9513 58.733C77.1939 59.5357 77.3153 60.413 77.3153 61.365C77.3153 61.6824 77.2966 61.981 77.2593 62.261C77.2406 62.541 77.2126 62.765 77.1753 62.933H68.4393C68.5886 64.165 69.0179 65.117 69.7273 65.789C70.4553 66.4424 71.3793 66.769 72.4993 66.769C73.0966 66.769 73.6473 66.685 74.1513 66.517C74.6739 66.3304 75.1873 66.0784 75.6913 65.761L76.7833 67.777C76.1299 68.2064 75.4019 68.561 74.5993 68.841C73.7966 69.121 72.9566 69.261 72.0793 69.261ZM68.4113 60.749H74.5153C74.5153 59.685 74.2819 58.8544 73.8153 58.257C73.3673 57.641 72.6673 57.333 71.7153 57.333C70.8939 57.333 70.1753 57.6224 69.5593 58.201C68.9433 58.7797 68.5606 59.629 68.4113 60.749ZM83.3946 69.261C82.1812 69.261 81.2012 68.897 80.4546 68.169C79.7079 67.4224 79.3346 66.4424 79.3346 65.229C79.3346 64.501 79.4839 63.857 79.7826 63.297C80.0999 62.7184 80.5852 62.2237 81.2386 61.813C81.9106 61.4024 82.7506 61.057 83.7586 60.777C84.7852 60.497 86.0079 60.2824 87.4266 60.133C87.4079 59.7784 87.3519 59.4424 87.2586 59.125C87.1839 58.789 87.0439 58.4997 86.8386 58.257C86.6519 57.9957 86.3999 57.7997 86.0826 57.669C85.7652 57.5197 85.3732 57.445 84.9066 57.445C84.2346 57.445 83.5719 57.5757 82.9186 57.837C82.2839 58.0984 81.6586 58.4157 81.0426 58.789L79.8666 56.633C80.6319 56.1477 81.4906 55.7277 82.4426 55.373C83.3946 55.0184 84.4212 54.841 85.5226 54.841C87.2399 54.841 88.5186 55.3544 89.3586 56.381C90.2172 57.389 90.6466 58.8544 90.6466 60.777V68.925H87.9866L87.7626 67.413H87.6506C87.0346 67.9357 86.3719 68.3744 85.6626 68.729C84.9719 69.0837 84.2159 69.261 83.3946 69.261ZM84.4306 66.741C84.9906 66.741 85.4946 66.6104 85.9426 66.349C86.4092 66.0877 86.9039 65.7144 87.4266 65.229V62.149C86.4932 62.261 85.7092 62.4104 85.0746 62.597C84.4399 62.7837 83.9266 62.9984 83.5346 63.241C83.1426 63.465 82.8626 63.7264 82.6946 64.025C82.5266 64.3237 82.4426 64.641 82.4426 64.977C82.4426 65.593 82.6292 66.041 83.0026 66.321C83.3759 66.601 83.8519 66.741 84.4306 66.741ZM98.9066 69.261C98.1039 69.261 97.4226 69.1397 96.8626 68.897C96.3212 68.6544 95.8732 68.3184 95.5186 67.889C95.1826 67.441 94.9306 66.9184 94.7626 66.321C94.6132 65.705 94.5386 65.0237 94.5386 64.277V57.725H92.5786V55.317L94.7066 55.177L95.0986 51.425H97.7866V55.177H101.287V57.725H97.7866V64.277C97.7866 65.8824 98.4306 66.685 99.7186 66.685C99.9612 66.685 100.204 66.657 100.447 66.601C100.708 66.545 100.941 66.4704 101.147 66.377L101.707 68.757C101.333 68.8877 100.904 68.9997 100.419 69.093C99.9519 69.205 99.4479 69.261 98.9066 69.261ZM109.622 69.261C108.67 69.261 107.784 69.1024 106.962 68.785C106.141 68.449 105.422 67.973 104.806 67.357C104.19 66.741 103.705 65.9944 103.35 65.117C103.014 64.221 102.846 63.2037 102.846 62.065C102.846 60.945 103.024 59.937 103.378 59.041C103.733 58.145 104.2 57.389 104.778 56.773C105.376 56.157 106.057 55.681 106.822 55.345C107.588 55.009 108.372 54.841 109.174 54.841C110.108 54.841 110.929 54.9997 111.638 55.317C112.348 55.6344 112.936 56.0824 113.402 56.661C113.888 57.2397 114.252 57.9304 114.494 58.733C114.737 59.5357 114.858 60.413 114.858 61.365C114.858 61.6824 114.84 61.981 114.802 62.261C114.784 62.541 114.756 62.765 114.718 62.933H105.982C106.132 64.165 106.561 65.117 107.27 65.789C107.998 66.4424 108.922 66.769 110.042 66.769C110.64 66.769 111.19 66.685 111.694 66.517C112.217 66.3304 112.73 66.0784 113.234 65.761L114.326 67.777C113.673 68.2064 112.945 68.561 112.142 68.841C111.34 69.121 110.5 69.261 109.622 69.261ZM105.954 60.749H112.058C112.058 59.685 111.825 58.8544 111.358 58.257C110.91 57.641 110.21 57.333 109.258 57.333C108.437 57.333 107.718 57.6224 107.102 58.201C106.486 58.7797 106.104 59.629 105.954 60.749ZM49.5672 96.925V78.613H54.4672C57.2672 78.613 59.4512 79.369 61.0192 80.881C62.5872 82.393 63.3712 84.661 63.3712 87.685C63.3712 89.197 63.1658 90.5317 62.7552 91.689C62.3632 92.8464 61.7845 93.817 61.0192 94.601C60.2725 95.3664 59.3578 95.945 58.2752 96.337C57.2112 96.729 55.9978 96.925 54.6352 96.925H49.5672ZM52.8152 94.293H54.2432C56.1098 94.293 57.5378 93.761 58.5272 92.697C59.5352 91.6144 60.0392 89.9437 60.0392 87.685C60.0392 85.445 59.5352 83.8117 58.5272 82.785C57.5192 81.7584 56.0912 81.245 54.2432 81.245H52.8152V94.293ZM72.6672 97.261C71.7152 97.261 70.8285 97.1024 70.0072 96.785C69.1858 96.449 68.4672 95.973 67.8512 95.357C67.2352 94.741 66.7498 93.9944 66.3952 93.117C66.0592 92.221 65.8912 91.2037 65.8912 90.065C65.8912 88.945 66.0685 87.937 66.4232 87.041C66.7778 86.145 67.2445 85.389 67.8232 84.773C68.4205 84.157 69.1018 83.681 69.8672 83.345C70.6325 83.009 71.4165 82.841 72.2192 82.841C73.1525 82.841 73.9738 82.9997 74.6832 83.317C75.3925 83.6344 75.9805 84.0824 76.4472 84.661C76.9325 85.2397 77.2965 85.9304 77.5392 86.733C77.7818 87.5357 77.9032 88.413 77.9032 89.365C77.9032 89.6824 77.8845 89.981 77.8472 90.261C77.8285 90.541 77.8005 90.765 77.7632 90.933H69.0272C69.1765 92.165 69.6058 93.117 70.3152 93.789C71.0432 94.4424 71.9672 94.769 73.0872 94.769C73.6845 94.769 74.2352 94.685 74.7392 94.517C75.2618 94.3304 75.7752 94.0784 76.2792 93.761L77.3712 95.777C76.7178 96.2064 75.9898 96.561 75.1872 96.841C74.3845 97.121 73.5445 97.261 72.6672 97.261ZM68.9992 88.749H75.1032C75.1032 87.685 74.8698 86.8544 74.4032 86.257C73.9552 85.641 73.2552 85.333 72.3032 85.333C71.4818 85.333 70.7632 85.6224 70.1472 86.201C69.5312 86.7797 69.1485 87.629 68.9992 88.749ZM86.7186 97.261C85.7852 97.261 84.9079 97.1024 84.0866 96.785C83.2839 96.4677 82.5839 96.001 81.9866 95.385C81.3892 94.769 80.9226 94.013 80.5866 93.117C80.2506 92.221 80.0826 91.2037 80.0826 90.065C80.0826 88.9264 80.2692 87.909 80.6426 87.013C81.0159 86.117 81.5199 85.361 82.1546 84.745C82.7892 84.129 83.5172 83.6624 84.3386 83.345C85.1786 83.009 86.0559 82.841 86.9706 82.841C87.8666 82.841 88.6319 82.9904 89.2666 83.289C89.9199 83.5877 90.4986 83.9517 91.0026 84.381L89.4346 86.481C89.0612 86.1637 88.6879 85.921 88.3146 85.753C87.9599 85.5664 87.5679 85.473 87.1386 85.473C86.0186 85.473 85.1132 85.893 84.4226 86.733C83.7319 87.5544 83.3866 88.665 83.3866 90.065C83.3866 91.4464 83.7226 92.557 84.3946 93.397C85.0852 94.2184 85.9719 94.629 87.0546 94.629C87.5959 94.629 88.0999 94.517 88.5666 94.293C89.0519 94.0504 89.4906 93.7704 89.8826 93.453L91.1986 95.581C90.5452 96.141 89.8266 96.561 89.0426 96.841C88.2772 97.121 87.5026 97.261 86.7186 97.261ZM93.9122 96.925V77.157H97.0762V89.505H97.1602L102.256 83.177H105.784L101.08 88.777L106.26 96.925H102.76L99.2322 90.961L97.0762 93.425V96.925H93.9122Z"
                      fill="#323C56"/>
            </g>
        </g>
        <g id="addButton">
            <rect id="background_2" x="57.207" y="123.648" width="39.164"
                  height="39.5471" fill="white" fill-opacity="0.01"/>
            <g id="underoutline" filter="url(#filter2_d)">
                <path d="M61.8809 158.164V159.053C61.8809 161.141 63.574 162.834 65.6626 162.834H91.3782C93.4668 162.834 95.1599 161.141 95.1599 159.053V133.337C95.1599 131.248 93.4668 129.555 91.3782 129.555H90.557V131.975H91.3782C92.1301 131.975 92.7396 132.585 92.7396 133.337V159.053C92.7396 159.804 92.1301 160.414 91.3782 160.414H65.6626C64.9107 160.414 64.3012 159.804 64.3012 159.053V158.164H61.8809Z"
                      fill="#36405C"/>
            </g>
            <g id="outline" filter="url(#filter3_d)">
                <path fill-rule="evenodd" clip-rule="evenodd"
                      d="M85.3411 125.554H59.6255C58.8736 125.554 58.264 126.164 58.264 126.916V152.631C58.264 153.383 58.8736 153.993 59.6255 153.993H85.3411C86.093 153.993 86.7025 153.383 86.7025 152.631V126.916C86.7025 126.164 86.093 125.554 85.3411 125.554ZM59.6255 123.134C57.5369 123.134 55.8438 124.827 55.8438 126.916V152.631C55.8438 154.72 57.5369 156.413 59.6255 156.413H85.3411C87.4297 156.413 89.1228 154.72 89.1228 152.631V126.916C89.1228 124.827 87.4297 123.134 85.3411 123.134H59.6255Z"
                      fill="#36405C"/>
            </g>
            <g id="plus" filter="url(#filter4_d)">
                <path d="M73.5203 129.787C73.5191 129.203 73.044 128.729 72.4592 128.731C71.8744 128.732 71.4013 129.207 71.4026 129.792L71.4217 138.717L62.497 138.736C61.9122 138.737 61.4392 139.212 61.4404 139.797C61.4417 140.382 61.9168 140.855 62.5016 140.854L71.4263 140.834L71.4454 149.759C71.4467 150.344 71.9218 150.817 72.5066 150.816C73.0914 150.815 73.5644 150.34 73.5632 149.755L73.544 140.83L82.469 140.811C83.0538 140.81 83.5269 140.334 83.5256 139.75C83.5243 139.165 83.0493 138.692 82.4645 138.693L73.5395 138.712L73.5203 129.787Z"
                      fill="#36405C"/>
            </g>
        </g>
        <g id="heartOutline" filter="url(#filter5_d)">
            <path d="M136.922 19.4454C136.546 18.5755 136.005 17.7872 135.327 17.1246C134.649 16.46 133.85 15.9319 132.973 15.569C132.063 15.1912 131.088 14.9978 130.103 15C128.721 15 127.373 15.3784 126.201 16.0931C125.921 16.2641 125.655 16.4519 125.402 16.6565C125.15 16.4519 124.884 16.2641 124.603 16.0931C123.432 15.3784 122.084 15 120.702 15C119.707 15 118.743 15.1906 117.832 15.569C116.952 15.9334 116.158 16.4575 115.477 17.1246C114.799 17.7864 114.257 18.5749 113.883 19.4454C113.493 20.3507 113.294 21.3121 113.294 22.3015C113.294 23.2348 113.485 24.2074 113.863 25.1968C114.18 26.0237 114.634 26.8813 115.214 27.7474C116.133 29.118 117.397 30.5475 118.967 31.9966C121.568 34.3986 124.144 36.0579 124.253 36.1252L124.917 36.5512C125.212 36.739 125.59 36.739 125.884 36.5512L126.549 36.1252C126.658 36.0551 129.231 34.3986 131.835 31.9966C133.404 30.5475 134.669 29.118 135.588 27.7474C136.168 26.8813 136.625 26.0237 136.939 25.1968C137.317 24.2074 137.508 23.2348 137.508 22.3015C137.511 21.3121 137.312 20.3507 136.922 19.4454Z"
                  fill="#323C56"/>
            <path d="M136.922 19.4454C136.546 18.5755 136.005 17.7872 135.327 17.1246C134.649 16.46 133.85 15.9319 132.973 15.569C132.063 15.1912 131.088 14.9978 130.103 15C128.721 15 127.373 15.3784 126.201 16.0931C125.921 16.2641 125.655 16.4519 125.402 16.6565C125.15 16.4519 124.884 16.2641 124.603 16.0931C123.432 15.3784 122.084 15 120.702 15C119.707 15 118.743 15.1906 117.832 15.569C116.952 15.9334 116.158 16.4575 115.477 17.1246C114.799 17.7864 114.257 18.5749 113.883 19.4454C113.493 20.3507 113.294 21.3121 113.294 22.3015C113.294 23.2348 113.485 24.2074 113.863 25.1968C114.18 26.0237 114.634 26.8813 115.214 27.7474C116.133 29.118 117.397 30.5475 118.967 31.9966C121.568 34.3986 124.144 36.0579 124.253 36.1252L124.917 36.5512C125.212 36.739 125.59 36.739 125.884 36.5512L126.549 36.1252C126.658 36.0551 129.231 34.3986 131.835 31.9966C133.404 30.5475 134.669 29.118 135.588 27.7474C136.168 26.8813 136.625 26.0237 136.939 25.1968C137.317 24.2074 137.508 23.2348 137.508 22.3015C137.511 21.3121 137.312 20.3507 136.922 19.4454Z"
                  stroke="url(#heart_outline)" stroke-width="3"/>
        </g>
        <g id="heartButton" style="mix-blend-mode:multiply">
            <circle cx="127.5" cy="24.5" r="24.5" fill="white"/>
        </g>
    </g>
    <defs>
        <filter id="filter0_d" x="0.742188" y="1.01294" width="154" height="199"
                filterUnits="userSpaceOnUse" color-interpolation-filters="sRGB">
            <feFlood flood-opacity="0" result="BackgroundImageFix"/>
            <feColorMatrix in="SourceAlpha" type="matrix"
                           values="0 0 0 0 0 0 0 0 0 0 0 0 0 0 0 0 0 0 127 0"/>
            <feOffset dx="2" dy="2"/>
            <feGaussianBlur stdDeviation="1"/>
            <feColorMatrix type="matrix"
                           values="0 0 0 0 0 0 0 0 0 0 0 0 0 0 0 0 0 0 0.25 0"/>
            <feBlend mode="normal" in2="BackgroundImageFix"
                     result="effect1_dropShadow"/>
            <feBlend mode="normal" in="SourceGraphic" in2="effect1_dropShadow"
                     result="shape"/>
        </filter>
        <filter id="filter1_d" x="39.2227" y="50.2771" width="79.6357"
                height="50.984" filterUnits="userSpaceOnUse"
                color-interpolation-filters="sRGB">
            <feFlood flood-opacity="0" result="BackgroundImageFix"/>
            <feColorMatrix in="SourceAlpha" type="matrix"
                           values="0 0 0 0 0 0 0 0 0 0 0 0 0 0 0 0 0 0 127 0"/>
            <feOffset dx="2" dy="2"/>
            <feGaussianBlur stdDeviation="1"/>
            <feColorMatrix type="matrix"
                           values="0 0 0 0 0 0 0 0 0 0 0 0 0 0 0 0 0 0 0.25 0"/>
            <feBlend mode="normal" in2="BackgroundImageFix"
                     result="effect1_dropShadow"/>
            <feBlend mode="normal" in="SourceGraphic" in2="effect1_dropShadow"
                     result="shape"/>
        </filter>
        <filter id="filter2_d" x="61.8809" y="129.555" width="37.279"
                height="37.279" filterUnits="userSpaceOnUse"
                color-interpolation-filters="sRGB">
            <feFlood flood-opacity="0" result="BackgroundImageFix"/>
            <feColorMatrix in="SourceAlpha" type="matrix"
                           values="0 0 0 0 0 0 0 0 0 0 0 0 0 0 0 0 0 0 127 0"/>
            <feOffset dx="2" dy="2"/>
            <feGaussianBlur stdDeviation="1"/>
            <feColorMatrix type="matrix"
                           values="0 0 0 0 0 0 0 0 0 0 0 0 0 0 0 0 0 0 0.25 0"/>
            <feBlend mode="normal" in2="BackgroundImageFix"
                     result="effect1_dropShadow"/>
            <feBlend mode="normal" in="SourceGraphic" in2="effect1_dropShadow"
                     result="shape"/>
        </filter>
        <filter id="filter3_d" x="55.8438" y="123.134" width="37.279"
                height="37.279" filterUnits="userSpaceOnUse"
                color-interpolation-filters="sRGB">
            <feFlood flood-opacity="0" result="BackgroundImageFix"/>
            <feColorMatrix in="SourceAlpha" type="matrix"
                           values="0 0 0 0 0 0 0 0 0 0 0 0 0 0 0 0 0 0 127 0"/>
            <feOffset dx="2" dy="2"/>
            <feGaussianBlur stdDeviation="1"/>
            <feColorMatrix type="matrix"
                           values="0 0 0 0 0 0 0 0 0 0 0 0 0 0 0 0 0 0 0.25 0"/>
            <feBlend mode="normal" in2="BackgroundImageFix"
                     result="effect1_dropShadow"/>
            <feBlend mode="normal" in="SourceGraphic" in2="effect1_dropShadow"
                     result="shape"/>
        </filter>
        <filter id="filter4_d" x="61.4404" y="128.731" width="26.0852"
                height="26.0852" filterUnits="userSpaceOnUse"
                color-interpolation-filters="sRGB">
            <feFlood flood-opacity="0" result="BackgroundImageFix"/>
            <feColorMatrix in="SourceAlpha" type="matrix"
                           values="0 0 0 0 0 0 0 0 0 0 0 0 0 0 0 0 0 0 127 0"/>
            <feOffset dx="2" dy="2"/>
            <feGaussianBlur stdDeviation="1"/>
            <feColorMatrix type="matrix"
                           values="0 0 0 0 0 0 0 0 0 0 0 0 0 0 0 0 0 0 0.25 0"/>
            <feBlend mode="normal" in2="BackgroundImageFix"
                     result="effect1_dropShadow"/>
            <feBlend mode="normal" in="SourceGraphic" in2="effect1_dropShadow"
                     result="shape"/>
        </filter>
        <filter id="filter5_d" x="111.794" y="13.5" width="31.2139"
                height="28.6921" filterUnits="userSpaceOnUse"
                color-interpolation-filters="sRGB">
            <feFlood flood-opacity="0" result="BackgroundImageFix"/>
            <feColorMatrix in="SourceAlpha" type="matrix"
                           values="0 0 0 0 0 0 0 0 0 0 0 0 0 0 0 0 0 0 127 0"/>
            <feOffset dx="2" dy="2"/>
            <feGaussianBlur stdDeviation="1"/>
            <feColorMatrix type="matrix"
                           values="0 0 0 0 0 0 0 0 0 0 0 0 0 0 0 0 0 0 0.25 0"/>
            <feBlend mode="normal" in2="BackgroundImageFix"
                     result="effect1_dropShadow"/>
            <feBlend mode="normal" in="SourceGraphic" in2="effect1_dropShadow"
                     result="shape"/>
        </filter>
        <linearGradient id="paint0_linear" x1="1.94669" y1="4.80775"
                        x2="140.888" y2="199.461"
                        gradientUnits="userSpaceOnUse">
            <stop stop-color="#EEECE8"/>
            <stop offset="1" stop-color="#EEECE8"/>
        </linearGradient>
        <linearGradient id="heart_outline" x1="115.848" y1="15.2726"
                        x2="132.954" y2="34.4694"
                        gradientUnits="userSpaceOnUse">
            <stop stop-color="#E94747" stop-opacity="0.59"/>
            <stop offset="1" stop-color="#F30E0E" stop-opacity="0.74"/>
        </linearGradient>
    </defs>
</svg>
