<svg width="355" height="77" viewBox="0 0 355 77" fill="none"
     xmlns="http://www.w3.org/2000/svg">
    <g id="emailSignUpButton">
        <g id="emailButton">
            <g id="border">
                <rect id="border5" opacity="0.17" x="2.38574" y="2.72119"
                      width="348" height="68.7654" rx="31" stroke="white"
                      stroke-width="4" stroke-linecap="round"/>
                <rect id="border4" opacity="0.17" x="3.23242" y="3.56787"
                      width="348" height="68.7654" rx="31" stroke="white"
                      stroke-width="4" stroke-linecap="round"/>
                <rect id="border3" opacity="0.17" x="4.0791" y="4.41455"
                      width="348" height="68.7654" rx="31" stroke="white"
                      stroke-width="4" stroke-linecap="round"/>
                <rect id="border2" opacity="0.17" x="4.92578" y="5.26123"
                      width="348" height="68.7654" rx="31" stroke="white"
                      stroke-width="4" stroke-linecap="round"/>
                <rect id="border1" x="3.65625" y="3.89648" width="348"
                      height="68.7654" rx="31"
                      stroke-width="4" stroke-linecap="round"/>
            </g>
            <g id="text">
                <path id="text_2" opacity="0.14"
                      d="M157.721 51.2357C156.526 51.2357 155.331 51.021 154.137 50.5917C152.961 50.1437 151.906 49.481 150.973 48.6037L153.325 45.7757C153.978 46.3357 154.697 46.793 155.481 47.1477C156.283 47.5023 157.067 47.6797 157.833 47.6797C158.691 47.6797 159.326 47.521 159.737 47.2037C160.166 46.8863 160.381 46.457 160.381 45.9157C160.381 45.6357 160.315 45.393 160.185 45.1877C160.073 44.9823 159.895 44.805 159.653 44.6557C159.429 44.4877 159.149 44.3383 158.813 44.2077C158.495 44.0583 158.141 43.8997 157.749 43.7317L155.369 42.7237C154.902 42.537 154.445 42.2943 153.997 41.9957C153.567 41.697 153.175 41.3517 152.821 40.9597C152.485 40.549 152.214 40.0823 152.009 39.5597C151.803 39.0183 151.701 38.4117 151.701 37.7397C151.701 36.993 151.859 36.293 152.177 35.6397C152.494 34.9677 152.942 34.389 153.521 33.9037C154.099 33.3997 154.781 33.0077 155.565 32.7277C156.367 32.4477 157.245 32.3077 158.197 32.3077C159.261 32.3077 160.306 32.513 161.333 32.9237C162.378 33.3343 163.293 33.9317 164.077 34.7157L161.977 37.3197C161.379 36.853 160.782 36.4983 160.185 36.2557C159.587 35.9943 158.925 35.8637 158.197 35.8637C157.487 35.8637 156.918 36.013 156.489 36.3117C156.078 36.5917 155.873 36.993 155.873 37.5157C155.873 37.7957 155.938 38.0383 156.069 38.2437C156.218 38.4303 156.414 38.6077 156.657 38.7757C156.918 38.925 157.217 39.0743 157.553 39.2237C157.889 39.3543 158.253 39.5037 158.645 39.6717L160.997 40.6237C162.117 41.0717 162.994 41.6877 163.629 42.4717C164.282 43.2557 164.609 44.2917 164.609 45.5797C164.609 46.345 164.45 47.073 164.133 47.7637C163.834 48.4357 163.386 49.033 162.789 49.5557C162.21 50.0597 161.491 50.4703 160.633 50.7877C159.774 51.0863 158.803 51.2357 157.721 51.2357ZM167.371 50.8997V37.0117H171.487V50.8997H167.371ZM169.415 34.9677C168.725 34.9677 168.155 34.7717 167.707 34.3797C167.259 33.969 167.035 33.4463 167.035 32.8117C167.035 32.177 167.259 31.6637 167.707 31.2717C168.155 30.8797 168.725 30.6837 169.415 30.6837C170.125 30.6837 170.694 30.8797 171.123 31.2717C171.571 31.6637 171.795 32.177 171.795 32.8117C171.795 33.4463 171.571 33.969 171.123 34.3797C170.694 34.7717 170.125 34.9677 169.415 34.9677ZM180.066 56.8077C179.244 56.8077 178.479 56.733 177.77 56.5837C177.079 56.453 176.463 56.2477 175.922 55.9677C175.399 55.6877 174.988 55.3237 174.69 54.8757C174.391 54.4277 174.242 53.8957 174.242 53.2797C174.242 52.1597 174.904 51.2263 176.23 50.4797V50.3677C175.856 50.125 175.548 49.817 175.306 49.4437C175.063 49.0703 174.942 48.5943 174.942 48.0157C174.942 47.5117 175.091 47.0357 175.39 46.5877C175.688 46.121 176.062 45.729 176.51 45.4117V45.2997C176.024 44.9637 175.586 44.4877 175.194 43.8717C174.82 43.237 174.634 42.509 174.634 41.6877C174.634 40.8477 174.792 40.1197 175.11 39.5037C175.427 38.869 175.847 38.3463 176.37 37.9357C176.911 37.5063 177.527 37.189 178.218 36.9837C178.908 36.7783 179.627 36.6757 180.374 36.6757C181.195 36.6757 181.914 36.7877 182.53 37.0117H187.598V40.0077H185.386C185.516 40.213 185.619 40.4743 185.694 40.7917C185.787 41.109 185.834 41.4543 185.834 41.8277C185.834 42.6303 185.694 43.3303 185.414 43.9277C185.134 44.5063 184.742 44.9917 184.238 45.3837C183.752 45.757 183.174 46.037 182.502 46.2237C181.848 46.4103 181.139 46.5037 180.374 46.5037C179.832 46.5037 179.272 46.4103 178.694 46.2237C178.507 46.373 178.376 46.5223 178.302 46.6717C178.227 46.821 178.19 47.017 178.19 47.2597C178.19 47.6143 178.339 47.8757 178.638 48.0437C178.955 48.2117 179.506 48.2957 180.29 48.2957H182.53C184.247 48.2957 185.554 48.5757 186.45 49.1357C187.364 49.677 187.822 50.573 187.822 51.8237C187.822 52.5517 187.635 53.2143 187.262 53.8117C186.907 54.4277 186.394 54.9503 185.722 55.3797C185.05 55.8277 184.238 56.173 183.286 56.4157C182.334 56.677 181.26 56.8077 180.066 56.8077ZM180.374 44.0117C180.915 44.0117 181.363 43.825 181.718 43.4517C182.091 43.0597 182.278 42.4717 182.278 41.6877C182.278 40.9597 182.091 40.409 181.718 40.0357C181.363 39.6437 180.915 39.4477 180.374 39.4477C179.832 39.4477 179.375 39.6343 179.002 40.0077C178.647 40.381 178.47 40.941 178.47 41.6877C178.47 42.4717 178.647 43.0597 179.002 43.4517C179.375 43.825 179.832 44.0117 180.374 44.0117ZM180.71 54.2317C181.643 54.2317 182.408 54.0637 183.006 53.7277C183.603 53.4103 183.902 53.009 183.902 52.5237C183.902 52.0943 183.715 51.805 183.342 51.6557C182.987 51.5063 182.464 51.4317 181.774 51.4317H180.346C179.86 51.4317 179.468 51.413 179.17 51.3757C178.871 51.357 178.61 51.3197 178.386 51.2637C177.882 51.7117 177.63 52.169 177.63 52.6357C177.63 53.1583 177.91 53.5503 178.47 53.8117C179.03 54.0917 179.776 54.2317 180.71 54.2317ZM190.067 50.8997V37.0117H193.427L193.707 38.7757H193.819C194.416 38.2157 195.069 37.7303 195.779 37.3197C196.488 36.8903 197.319 36.6757 198.271 36.6757C199.783 36.6757 200.875 37.1703 201.547 38.1597C202.237 39.149 202.583 40.521 202.583 42.2757V50.8997H198.467V42.8077C198.467 41.7997 198.327 41.109 198.047 40.7357C197.785 40.3623 197.356 40.1757 196.759 40.1757C196.236 40.1757 195.788 40.297 195.415 40.5397C195.041 40.7637 194.631 41.0903 194.183 41.5197V50.8997H190.067ZM219.227 51.2357C216.857 51.2357 215.046 50.5357 213.795 49.1357C212.545 47.7357 211.919 45.505 211.919 42.4437V32.6437H216.063V42.8637C216.063 44.6557 216.334 45.9063 216.875 46.6157C217.417 47.325 218.201 47.6797 219.227 47.6797C220.254 47.6797 221.047 47.325 221.607 46.6157C222.167 45.9063 222.447 44.6557 222.447 42.8637V32.6437H226.423V42.4437C226.423 45.505 225.807 47.7357 224.575 49.1357C223.362 50.5357 221.579 51.2357 219.227 51.2357ZM230.317 56.0517V37.0117H233.677L233.957 38.3837H234.069C234.61 37.8983 235.217 37.497 235.889 37.1797C236.579 36.8437 237.289 36.6757 238.017 36.6757C238.857 36.6757 239.613 36.8437 240.285 37.1797C240.957 37.5157 241.526 37.9917 241.993 38.6077C242.459 39.2237 242.814 39.9703 243.057 40.8477C243.318 41.7063 243.449 42.6677 243.449 43.7317C243.449 44.9263 243.281 45.9903 242.945 46.9237C242.627 47.8383 242.189 48.6223 241.629 49.2757C241.087 49.9103 240.462 50.3957 239.753 50.7317C239.062 51.0677 238.343 51.2357 237.597 51.2357C236.999 51.2357 236.421 51.1143 235.861 50.8717C235.301 50.6103 234.778 50.2463 234.293 49.7797L234.433 51.9917V56.0517H230.317ZM236.645 47.8757C237.354 47.8757 237.961 47.5583 238.465 46.9237C238.969 46.2703 239.221 45.225 239.221 43.7877C239.221 41.2863 238.418 40.0357 236.813 40.0357C236.01 40.0357 235.217 40.4557 234.433 41.2957V46.9797C234.806 47.3157 235.179 47.549 235.553 47.6797C235.926 47.8103 236.29 47.8757 236.645 47.8757Z"
                      fill="#484848"/>
                <path id="text_3" opacity="0.14"
                      d="M157.721 48.1793C156.526 48.1793 155.331 47.9646 154.137 47.5353C152.961 47.0873 151.906 46.4246 150.973 45.5473L153.325 42.7193C153.978 43.2793 154.697 43.7366 155.481 44.0913C156.283 44.4459 157.067 44.6233 157.833 44.6233C158.691 44.6233 159.326 44.4646 159.737 44.1473C160.166 43.8299 160.381 43.4006 160.381 42.8593C160.381 42.5793 160.315 42.3366 160.185 42.1313C160.073 41.9259 159.895 41.7486 159.653 41.5993C159.429 41.4313 159.149 41.2819 158.813 41.1513C158.495 41.0019 158.141 40.8433 157.749 40.6753L155.369 39.6673C154.902 39.4806 154.445 39.2379 153.997 38.9393C153.567 38.6406 153.175 38.2953 152.821 37.9033C152.485 37.4926 152.214 37.0259 152.009 36.5033C151.803 35.9619 151.701 35.3553 151.701 34.6833C151.701 33.9366 151.859 33.2366 152.177 32.5833C152.494 31.9113 152.942 31.3326 153.521 30.8473C154.099 30.3433 154.781 29.9513 155.565 29.6713C156.367 29.3913 157.245 29.2513 158.197 29.2513C159.261 29.2513 160.306 29.4566 161.333 29.8673C162.378 30.2779 163.293 30.8753 164.077 31.6593L161.977 34.2633C161.379 33.7966 160.782 33.4419 160.185 33.1993C159.587 32.9379 158.925 32.8073 158.197 32.8073C157.487 32.8073 156.918 32.9566 156.489 33.2553C156.078 33.5353 155.873 33.9366 155.873 34.4593C155.873 34.7393 155.938 34.9819 156.069 35.1873C156.218 35.3739 156.414 35.5513 156.657 35.7193C156.918 35.8686 157.217 36.0179 157.553 36.1673C157.889 36.2979 158.253 36.4473 158.645 36.6153L160.997 37.5673C162.117 38.0153 162.994 38.6313 163.629 39.4153C164.282 40.1993 164.609 41.2353 164.609 42.5233C164.609 43.2886 164.45 44.0166 164.133 44.7073C163.834 45.3793 163.386 45.9766 162.789 46.4993C162.21 47.0033 161.491 47.4139 160.633 47.7313C159.774 48.0299 158.803 48.1793 157.721 48.1793ZM167.371 47.8433V33.9553H171.487V47.8433H167.371ZM169.415 31.9113C168.725 31.9113 168.155 31.7153 167.707 31.3233C167.259 30.9126 167.035 30.3899 167.035 29.7553C167.035 29.1206 167.259 28.6073 167.707 28.2153C168.155 27.8233 168.725 27.6273 169.415 27.6273C170.125 27.6273 170.694 27.8233 171.123 28.2153C171.571 28.6073 171.795 29.1206 171.795 29.7553C171.795 30.3899 171.571 30.9126 171.123 31.3233C170.694 31.7153 170.125 31.9113 169.415 31.9113ZM180.066 53.7513C179.244 53.7513 178.479 53.6766 177.77 53.5273C177.079 53.3966 176.463 53.1913 175.922 52.9113C175.399 52.6313 174.988 52.2673 174.69 51.8193C174.391 51.3713 174.242 50.8393 174.242 50.2233C174.242 49.1033 174.904 48.1699 176.23 47.4233V47.3113C175.856 47.0686 175.548 46.7606 175.306 46.3873C175.063 46.0139 174.942 45.5379 174.942 44.9593C174.942 44.4553 175.091 43.9793 175.39 43.5313C175.688 43.0646 176.062 42.6726 176.51 42.3553V42.2433C176.024 41.9073 175.586 41.4313 175.194 40.8153C174.82 40.1806 174.634 39.4526 174.634 38.6313C174.634 37.7913 174.792 37.0633 175.11 36.4473C175.427 35.8126 175.847 35.2899 176.37 34.8793C176.911 34.4499 177.527 34.1326 178.218 33.9273C178.908 33.7219 179.627 33.6193 180.374 33.6193C181.195 33.6193 181.914 33.7313 182.53 33.9553H187.598V36.9513H185.386C185.516 37.1566 185.619 37.4179 185.694 37.7353C185.787 38.0526 185.834 38.3979 185.834 38.7713C185.834 39.5739 185.694 40.2739 185.414 40.8713C185.134 41.4499 184.742 41.9353 184.238 42.3273C183.752 42.7006 183.174 42.9806 182.502 43.1673C181.848 43.3539 181.139 43.4473 180.374 43.4473C179.832 43.4473 179.272 43.3539 178.694 43.1673C178.507 43.3166 178.376 43.4659 178.302 43.6153C178.227 43.7646 178.19 43.9606 178.19 44.2033C178.19 44.5579 178.339 44.8193 178.638 44.9873C178.955 45.1553 179.506 45.2393 180.29 45.2393H182.53C184.247 45.2393 185.554 45.5193 186.45 46.0793C187.364 46.6206 187.822 47.5166 187.822 48.7673C187.822 49.4953 187.635 50.1579 187.262 50.7553C186.907 51.3713 186.394 51.8939 185.722 52.3233C185.05 52.7713 184.238 53.1166 183.286 53.3593C182.334 53.6206 181.26 53.7513 180.066 53.7513ZM180.374 40.9553C180.915 40.9553 181.363 40.7686 181.718 40.3953C182.091 40.0033 182.278 39.4153 182.278 38.6313C182.278 37.9033 182.091 37.3526 181.718 36.9793C181.363 36.5873 180.915 36.3913 180.374 36.3913C179.832 36.3913 179.375 36.5779 179.002 36.9513C178.647 37.3246 178.47 37.8846 178.47 38.6313C178.47 39.4153 178.647 40.0033 179.002 40.3953C179.375 40.7686 179.832 40.9553 180.374 40.9553ZM180.71 51.1753C181.643 51.1753 182.408 51.0073 183.006 50.6713C183.603 50.3539 183.902 49.9526 183.902 49.4673C183.902 49.0379 183.715 48.7486 183.342 48.5993C182.987 48.4499 182.464 48.3753 181.774 48.3753H180.346C179.86 48.3753 179.468 48.3566 179.17 48.3193C178.871 48.3006 178.61 48.2633 178.386 48.2073C177.882 48.6553 177.63 49.1126 177.63 49.5793C177.63 50.1019 177.91 50.4939 178.47 50.7553C179.03 51.0353 179.776 51.1753 180.71 51.1753ZM190.067 47.8433V33.9553H193.427L193.707 35.7193H193.819C194.416 35.1593 195.069 34.6739 195.779 34.2633C196.488 33.8339 197.319 33.6193 198.271 33.6193C199.783 33.6193 200.875 34.1139 201.547 35.1033C202.237 36.0926 202.583 37.4646 202.583 39.2193V47.8433H198.467V39.7513C198.467 38.7433 198.327 38.0526 198.047 37.6793C197.785 37.3059 197.356 37.1193 196.759 37.1193C196.236 37.1193 195.788 37.2406 195.415 37.4833C195.041 37.7073 194.631 38.0339 194.183 38.4633V47.8433H190.067ZM219.227 48.1793C216.857 48.1793 215.046 47.4793 213.795 46.0793C212.545 44.6793 211.919 42.4486 211.919 39.3873V29.5873H216.063V39.8073C216.063 41.5993 216.334 42.8499 216.875 43.5593C217.417 44.2686 218.201 44.6233 219.227 44.6233C220.254 44.6233 221.047 44.2686 221.607 43.5593C222.167 42.8499 222.447 41.5993 222.447 39.8073V29.5873H226.423V39.3873C226.423 42.4486 225.807 44.6793 224.575 46.0793C223.362 47.4793 221.579 48.1793 219.227 48.1793ZM230.317 52.9953V33.9553H233.677L233.957 35.3273H234.069C234.61 34.8419 235.217 34.4406 235.889 34.1233C236.579 33.7873 237.289 33.6193 238.017 33.6193C238.857 33.6193 239.613 33.7873 240.285 34.1233C240.957 34.4593 241.526 34.9353 241.993 35.5513C242.459 36.1673 242.814 36.9139 243.057 37.7913C243.318 38.6499 243.449 39.6113 243.449 40.6753C243.449 41.8699 243.281 42.9339 242.945 43.8673C242.627 44.7819 242.189 45.5659 241.629 46.2193C241.087 46.8539 240.462 47.3393 239.753 47.6753C239.062 48.0113 238.343 48.1793 237.597 48.1793C236.999 48.1793 236.421 48.0579 235.861 47.8153C235.301 47.5539 234.778 47.1899 234.293 46.7233L234.433 48.9353V52.9953H230.317ZM236.645 44.8193C237.354 44.8193 237.961 44.5019 238.465 43.8673C238.969 43.2139 239.221 42.1686 239.221 40.7313C239.221 38.2299 238.418 36.9793 236.813 36.9793C236.01 36.9793 235.217 37.3993 234.433 38.2393V43.9233C234.806 44.2593 235.179 44.4926 235.553 44.6233C235.926 44.7539 236.29 44.8193 236.645 44.8193Z"
                      fill="#484848"/>
                <path id="text_4" opacity="0.14"
                      d="M157.721 48.1793C156.526 48.1793 155.331 47.9646 154.137 47.5353C152.961 47.0873 151.906 46.4246 150.973 45.5473L153.325 42.7193C153.978 43.2793 154.697 43.7366 155.481 44.0913C156.283 44.4459 157.067 44.6233 157.833 44.6233C158.691 44.6233 159.326 44.4646 159.737 44.1473C160.166 43.8299 160.381 43.4006 160.381 42.8593C160.381 42.5793 160.315 42.3366 160.185 42.1313C160.073 41.9259 159.895 41.7486 159.653 41.5993C159.429 41.4313 159.149 41.2819 158.813 41.1513C158.495 41.0019 158.141 40.8433 157.749 40.6753L155.369 39.6673C154.902 39.4806 154.445 39.2379 153.997 38.9393C153.567 38.6406 153.175 38.2953 152.821 37.9033C152.485 37.4926 152.214 37.0259 152.009 36.5033C151.803 35.9619 151.701 35.3553 151.701 34.6833C151.701 33.9366 151.859 33.2366 152.177 32.5833C152.494 31.9113 152.942 31.3326 153.521 30.8473C154.099 30.3433 154.781 29.9513 155.565 29.6713C156.367 29.3913 157.245 29.2513 158.197 29.2513C159.261 29.2513 160.306 29.4566 161.333 29.8673C162.378 30.2779 163.293 30.8753 164.077 31.6593L161.977 34.2633C161.379 33.7966 160.782 33.4419 160.185 33.1993C159.587 32.9379 158.925 32.8073 158.197 32.8073C157.487 32.8073 156.918 32.9566 156.489 33.2553C156.078 33.5353 155.873 33.9366 155.873 34.4593C155.873 34.7393 155.938 34.9819 156.069 35.1873C156.218 35.3739 156.414 35.5513 156.657 35.7193C156.918 35.8686 157.217 36.0179 157.553 36.1673C157.889 36.2979 158.253 36.4473 158.645 36.6153L160.997 37.5673C162.117 38.0153 162.994 38.6313 163.629 39.4153C164.282 40.1993 164.609 41.2353 164.609 42.5233C164.609 43.2886 164.45 44.0166 164.133 44.7073C163.834 45.3793 163.386 45.9766 162.789 46.4993C162.21 47.0033 161.491 47.4139 160.633 47.7313C159.774 48.0299 158.803 48.1793 157.721 48.1793ZM167.371 47.8433V33.9553H171.487V47.8433H167.371ZM169.415 31.9113C168.725 31.9113 168.155 31.7153 167.707 31.3233C167.259 30.9126 167.035 30.3899 167.035 29.7553C167.035 29.1206 167.259 28.6073 167.707 28.2153C168.155 27.8233 168.725 27.6273 169.415 27.6273C170.125 27.6273 170.694 27.8233 171.123 28.2153C171.571 28.6073 171.795 29.1206 171.795 29.7553C171.795 30.3899 171.571 30.9126 171.123 31.3233C170.694 31.7153 170.125 31.9113 169.415 31.9113ZM180.066 53.7513C179.244 53.7513 178.479 53.6766 177.77 53.5273C177.079 53.3966 176.463 53.1913 175.922 52.9113C175.399 52.6313 174.988 52.2673 174.69 51.8193C174.391 51.3713 174.242 50.8393 174.242 50.2233C174.242 49.1033 174.904 48.1699 176.23 47.4233V47.3113C175.856 47.0686 175.548 46.7606 175.306 46.3873C175.063 46.0139 174.942 45.5379 174.942 44.9593C174.942 44.4553 175.091 43.9793 175.39 43.5313C175.688 43.0646 176.062 42.6726 176.51 42.3553V42.2433C176.024 41.9073 175.586 41.4313 175.194 40.8153C174.82 40.1806 174.634 39.4526 174.634 38.6313C174.634 37.7913 174.792 37.0633 175.11 36.4473C175.427 35.8126 175.847 35.2899 176.37 34.8793C176.911 34.4499 177.527 34.1326 178.218 33.9273C178.908 33.7219 179.627 33.6193 180.374 33.6193C181.195 33.6193 181.914 33.7313 182.53 33.9553H187.598V36.9513H185.386C185.516 37.1566 185.619 37.4179 185.694 37.7353C185.787 38.0526 185.834 38.3979 185.834 38.7713C185.834 39.5739 185.694 40.2739 185.414 40.8713C185.134 41.4499 184.742 41.9353 184.238 42.3273C183.752 42.7006 183.174 42.9806 182.502 43.1673C181.848 43.3539 181.139 43.4473 180.374 43.4473C179.832 43.4473 179.272 43.3539 178.694 43.1673C178.507 43.3166 178.376 43.4659 178.302 43.6153C178.227 43.7646 178.19 43.9606 178.19 44.2033C178.19 44.5579 178.339 44.8193 178.638 44.9873C178.955 45.1553 179.506 45.2393 180.29 45.2393H182.53C184.247 45.2393 185.554 45.5193 186.45 46.0793C187.364 46.6206 187.822 47.5166 187.822 48.7673C187.822 49.4953 187.635 50.1579 187.262 50.7553C186.907 51.3713 186.394 51.8939 185.722 52.3233C185.05 52.7713 184.238 53.1166 183.286 53.3593C182.334 53.6206 181.26 53.7513 180.066 53.7513ZM180.374 40.9553C180.915 40.9553 181.363 40.7686 181.718 40.3953C182.091 40.0033 182.278 39.4153 182.278 38.6313C182.278 37.9033 182.091 37.3526 181.718 36.9793C181.363 36.5873 180.915 36.3913 180.374 36.3913C179.832 36.3913 179.375 36.5779 179.002 36.9513C178.647 37.3246 178.47 37.8846 178.47 38.6313C178.47 39.4153 178.647 40.0033 179.002 40.3953C179.375 40.7686 179.832 40.9553 180.374 40.9553ZM180.71 51.1753C181.643 51.1753 182.408 51.0073 183.006 50.6713C183.603 50.3539 183.902 49.9526 183.902 49.4673C183.902 49.0379 183.715 48.7486 183.342 48.5993C182.987 48.4499 182.464 48.3753 181.774 48.3753H180.346C179.86 48.3753 179.468 48.3566 179.17 48.3193C178.871 48.3006 178.61 48.2633 178.386 48.2073C177.882 48.6553 177.63 49.1126 177.63 49.5793C177.63 50.1019 177.91 50.4939 178.47 50.7553C179.03 51.0353 179.776 51.1753 180.71 51.1753ZM190.067 47.8433V33.9553H193.427L193.707 35.7193H193.819C194.416 35.1593 195.069 34.6739 195.779 34.2633C196.488 33.8339 197.319 33.6193 198.271 33.6193C199.783 33.6193 200.875 34.1139 201.547 35.1033C202.237 36.0926 202.583 37.4646 202.583 39.2193V47.8433H198.467V39.7513C198.467 38.7433 198.327 38.0526 198.047 37.6793C197.785 37.3059 197.356 37.1193 196.759 37.1193C196.236 37.1193 195.788 37.2406 195.415 37.4833C195.041 37.7073 194.631 38.0339 194.183 38.4633V47.8433H190.067ZM219.227 48.1793C216.857 48.1793 215.046 47.4793 213.795 46.0793C212.545 44.6793 211.919 42.4486 211.919 39.3873V29.5873H216.063V39.8073C216.063 41.5993 216.334 42.8499 216.875 43.5593C217.417 44.2686 218.201 44.6233 219.227 44.6233C220.254 44.6233 221.047 44.2686 221.607 43.5593C222.167 42.8499 222.447 41.5993 222.447 39.8073V29.5873H226.423V39.3873C226.423 42.4486 225.807 44.6793 224.575 46.0793C223.362 47.4793 221.579 48.1793 219.227 48.1793ZM230.317 52.9953V33.9553H233.677L233.957 35.3273H234.069C234.61 34.8419 235.217 34.4406 235.889 34.1233C236.579 33.7873 237.289 33.6193 238.017 33.6193C238.857 33.6193 239.613 33.7873 240.285 34.1233C240.957 34.4593 241.526 34.9353 241.993 35.5513C242.459 36.1673 242.814 36.9139 243.057 37.7913C243.318 38.6499 243.449 39.6113 243.449 40.6753C243.449 41.8699 243.281 42.9339 242.945 43.8673C242.627 44.7819 242.189 45.5659 241.629 46.2193C241.087 46.8539 240.462 47.3393 239.753 47.6753C239.062 48.0113 238.343 48.1793 237.597 48.1793C236.999 48.1793 236.421 48.0579 235.861 47.8153C235.301 47.5539 234.778 47.1899 234.293 46.7233L234.433 48.9353V52.9953H230.317ZM236.645 44.8193C237.354 44.8193 237.961 44.5019 238.465 43.8673C238.969 43.2139 239.221 42.1686 239.221 40.7313C239.221 38.2299 238.418 36.9793 236.813 36.9793C236.01 36.9793 235.217 37.3993 234.433 38.2393V43.9233C234.806 44.2593 235.179 44.4926 235.553 44.6233C235.926 44.7539 236.29 44.8193 236.645 44.8193Z"
                      fill="#484848"/>
                <path id="text_5" opacity="0.14"
                      d="M157.721 48.1793C156.526 48.1793 155.331 47.9646 154.137 47.5353C152.961 47.0873 151.906 46.4246 150.973 45.5473L153.325 42.7193C153.978 43.2793 154.697 43.7366 155.481 44.0913C156.283 44.4459 157.067 44.6233 157.833 44.6233C158.691 44.6233 159.326 44.4646 159.737 44.1473C160.166 43.8299 160.381 43.4006 160.381 42.8593C160.381 42.5793 160.315 42.3366 160.185 42.1313C160.073 41.9259 159.895 41.7486 159.653 41.5993C159.429 41.4313 159.149 41.2819 158.813 41.1513C158.495 41.0019 158.141 40.8433 157.749 40.6753L155.369 39.6673C154.902 39.4806 154.445 39.2379 153.997 38.9393C153.567 38.6406 153.175 38.2953 152.821 37.9033C152.485 37.4926 152.214 37.0259 152.009 36.5033C151.803 35.9619 151.701 35.3553 151.701 34.6833C151.701 33.9366 151.859 33.2366 152.177 32.5833C152.494 31.9113 152.942 31.3326 153.521 30.8473C154.099 30.3433 154.781 29.9513 155.565 29.6713C156.367 29.3913 157.245 29.2513 158.197 29.2513C159.261 29.2513 160.306 29.4566 161.333 29.8673C162.378 30.2779 163.293 30.8753 164.077 31.6593L161.977 34.2633C161.379 33.7966 160.782 33.4419 160.185 33.1993C159.587 32.9379 158.925 32.8073 158.197 32.8073C157.487 32.8073 156.918 32.9566 156.489 33.2553C156.078 33.5353 155.873 33.9366 155.873 34.4593C155.873 34.7393 155.938 34.9819 156.069 35.1873C156.218 35.3739 156.414 35.5513 156.657 35.7193C156.918 35.8686 157.217 36.0179 157.553 36.1673C157.889 36.2979 158.253 36.4473 158.645 36.6153L160.997 37.5673C162.117 38.0153 162.994 38.6313 163.629 39.4153C164.282 40.1993 164.609 41.2353 164.609 42.5233C164.609 43.2886 164.45 44.0166 164.133 44.7073C163.834 45.3793 163.386 45.9766 162.789 46.4993C162.21 47.0033 161.491 47.4139 160.633 47.7313C159.774 48.0299 158.803 48.1793 157.721 48.1793ZM167.371 47.8433V33.9553H171.487V47.8433H167.371ZM169.415 31.9113C168.725 31.9113 168.155 31.7153 167.707 31.3233C167.259 30.9126 167.035 30.3899 167.035 29.7553C167.035 29.1206 167.259 28.6073 167.707 28.2153C168.155 27.8233 168.725 27.6273 169.415 27.6273C170.125 27.6273 170.694 27.8233 171.123 28.2153C171.571 28.6073 171.795 29.1206 171.795 29.7553C171.795 30.3899 171.571 30.9126 171.123 31.3233C170.694 31.7153 170.125 31.9113 169.415 31.9113ZM180.066 53.7513C179.244 53.7513 178.479 53.6766 177.77 53.5273C177.079 53.3966 176.463 53.1913 175.922 52.9113C175.399 52.6313 174.988 52.2673 174.69 51.8193C174.391 51.3713 174.242 50.8393 174.242 50.2233C174.242 49.1033 174.904 48.1699 176.23 47.4233V47.3113C175.856 47.0686 175.548 46.7606 175.306 46.3873C175.063 46.0139 174.942 45.5379 174.942 44.9593C174.942 44.4553 175.091 43.9793 175.39 43.5313C175.688 43.0646 176.062 42.6726 176.51 42.3553V42.2433C176.024 41.9073 175.586 41.4313 175.194 40.8153C174.82 40.1806 174.634 39.4526 174.634 38.6313C174.634 37.7913 174.792 37.0633 175.11 36.4473C175.427 35.8126 175.847 35.2899 176.37 34.8793C176.911 34.4499 177.527 34.1326 178.218 33.9273C178.908 33.7219 179.627 33.6193 180.374 33.6193C181.195 33.6193 181.914 33.7313 182.53 33.9553H187.598V36.9513H185.386C185.516 37.1566 185.619 37.4179 185.694 37.7353C185.787 38.0526 185.834 38.3979 185.834 38.7713C185.834 39.5739 185.694 40.2739 185.414 40.8713C185.134 41.4499 184.742 41.9353 184.238 42.3273C183.752 42.7006 183.174 42.9806 182.502 43.1673C181.848 43.3539 181.139 43.4473 180.374 43.4473C179.832 43.4473 179.272 43.3539 178.694 43.1673C178.507 43.3166 178.376 43.4659 178.302 43.6153C178.227 43.7646 178.19 43.9606 178.19 44.2033C178.19 44.5579 178.339 44.8193 178.638 44.9873C178.955 45.1553 179.506 45.2393 180.29 45.2393H182.53C184.247 45.2393 185.554 45.5193 186.45 46.0793C187.364 46.6206 187.822 47.5166 187.822 48.7673C187.822 49.4953 187.635 50.1579 187.262 50.7553C186.907 51.3713 186.394 51.8939 185.722 52.3233C185.05 52.7713 184.238 53.1166 183.286 53.3593C182.334 53.6206 181.26 53.7513 180.066 53.7513ZM180.374 40.9553C180.915 40.9553 181.363 40.7686 181.718 40.3953C182.091 40.0033 182.278 39.4153 182.278 38.6313C182.278 37.9033 182.091 37.3526 181.718 36.9793C181.363 36.5873 180.915 36.3913 180.374 36.3913C179.832 36.3913 179.375 36.5779 179.002 36.9513C178.647 37.3246 178.47 37.8846 178.47 38.6313C178.47 39.4153 178.647 40.0033 179.002 40.3953C179.375 40.7686 179.832 40.9553 180.374 40.9553ZM180.71 51.1753C181.643 51.1753 182.408 51.0073 183.006 50.6713C183.603 50.3539 183.902 49.9526 183.902 49.4673C183.902 49.0379 183.715 48.7486 183.342 48.5993C182.987 48.4499 182.464 48.3753 181.774 48.3753H180.346C179.86 48.3753 179.468 48.3566 179.17 48.3193C178.871 48.3006 178.61 48.2633 178.386 48.2073C177.882 48.6553 177.63 49.1126 177.63 49.5793C177.63 50.1019 177.91 50.4939 178.47 50.7553C179.03 51.0353 179.776 51.1753 180.71 51.1753ZM190.067 47.8433V33.9553H193.427L193.707 35.7193H193.819C194.416 35.1593 195.069 34.6739 195.779 34.2633C196.488 33.8339 197.319 33.6193 198.271 33.6193C199.783 33.6193 200.875 34.1139 201.547 35.1033C202.237 36.0926 202.583 37.4646 202.583 39.2193V47.8433H198.467V39.7513C198.467 38.7433 198.327 38.0526 198.047 37.6793C197.785 37.3059 197.356 37.1193 196.759 37.1193C196.236 37.1193 195.788 37.2406 195.415 37.4833C195.041 37.7073 194.631 38.0339 194.183 38.4633V47.8433H190.067ZM219.227 48.1793C216.857 48.1793 215.046 47.4793 213.795 46.0793C212.545 44.6793 211.919 42.4486 211.919 39.3873V29.5873H216.063V39.8073C216.063 41.5993 216.334 42.8499 216.875 43.5593C217.417 44.2686 218.201 44.6233 219.227 44.6233C220.254 44.6233 221.047 44.2686 221.607 43.5593C222.167 42.8499 222.447 41.5993 222.447 39.8073V29.5873H226.423V39.3873C226.423 42.4486 225.807 44.6793 224.575 46.0793C223.362 47.4793 221.579 48.1793 219.227 48.1793ZM230.317 52.9953V33.9553H233.677L233.957 35.3273H234.069C234.61 34.8419 235.217 34.4406 235.889 34.1233C236.579 33.7873 237.289 33.6193 238.017 33.6193C238.857 33.6193 239.613 33.7873 240.285 34.1233C240.957 34.4593 241.526 34.9353 241.993 35.5513C242.459 36.1673 242.814 36.9139 243.057 37.7913C243.318 38.6499 243.449 39.6113 243.449 40.6753C243.449 41.8699 243.281 42.9339 242.945 43.8673C242.627 44.7819 242.189 45.5659 241.629 46.2193C241.087 46.8539 240.462 47.3393 239.753 47.6753C239.062 48.0113 238.343 48.1793 237.597 48.1793C236.999 48.1793 236.421 48.0579 235.861 47.8153C235.301 47.5539 234.778 47.1899 234.293 46.7233L234.433 48.9353V52.9953H230.317ZM236.645 44.8193C237.354 44.8193 237.961 44.5019 238.465 43.8673C238.969 43.2139 239.221 42.1686 239.221 40.7313C239.221 38.2299 238.418 36.9793 236.813 36.9793C236.01 36.9793 235.217 37.3993 234.433 38.2393V43.9233C234.806 44.2593 235.179 44.4926 235.553 44.6233C235.926 44.7539 236.29 44.8193 236.645 44.8193Z"
                      fill="#484848"/>
                <path id="text_6"
                      d="M157.72 47.6746C156.526 47.6746 155.331 47.46 154.136 47.0306C152.96 46.5826 151.906 45.92 150.972 45.0426L153.324 42.2146C153.978 42.7746 154.696 43.232 155.48 43.5866C156.283 43.9413 157.067 44.1186 157.832 44.1186C158.691 44.1186 159.326 43.96 159.736 43.6426C160.166 43.3253 160.38 42.896 160.38 42.3546C160.38 42.0746 160.315 41.832 160.184 41.6266C160.072 41.4213 159.895 41.244 159.652 41.0946C159.428 40.9266 159.148 40.7773 158.812 40.6466C158.495 40.4973 158.14 40.3386 157.748 40.1706L155.368 39.1626C154.902 38.976 154.444 38.7333 153.996 38.4346C153.567 38.136 153.175 37.7906 152.82 37.3986C152.484 36.988 152.214 36.5213 152.008 35.9986C151.803 35.4573 151.7 34.8506 151.7 34.1786C151.7 33.432 151.859 32.732 152.176 32.0786C152.494 31.4066 152.942 30.828 153.52 30.3426C154.099 29.8386 154.78 29.4466 155.564 29.1666C156.367 28.8866 157.244 28.7466 158.196 28.7466C159.26 28.7466 160.306 28.952 161.332 29.3626C162.378 29.7733 163.292 30.3706 164.076 31.1546L161.976 33.7586C161.379 33.292 160.782 32.9373 160.184 32.6946C159.587 32.4333 158.924 32.3026 158.196 32.3026C157.487 32.3026 156.918 32.452 156.488 32.7506C156.078 33.0306 155.872 33.432 155.872 33.9546C155.872 34.2346 155.938 34.4773 156.068 34.6826C156.218 34.8693 156.414 35.0466 156.656 35.2146C156.918 35.364 157.216 35.5133 157.552 35.6626C157.888 35.7933 158.252 35.9426 158.644 36.1106L160.996 37.0626C162.116 37.5106 162.994 38.1266 163.628 38.9106C164.282 39.6946 164.608 40.7306 164.608 42.0186C164.608 42.784 164.45 43.512 164.132 44.2026C163.834 44.8746 163.386 45.472 162.788 45.9946C162.21 46.4986 161.491 46.9093 160.632 47.2266C159.774 47.5253 158.803 47.6746 157.72 47.6746ZM167.371 47.3386V33.4506H171.487V47.3386H167.371ZM169.415 31.4066C168.724 31.4066 168.155 31.2106 167.707 30.8186C167.259 30.408 167.035 29.8853 167.035 29.2506C167.035 28.616 167.259 28.1026 167.707 27.7106C168.155 27.3186 168.724 27.1226 169.415 27.1226C170.124 27.1226 170.694 27.3186 171.123 27.7106C171.571 28.1026 171.795 28.616 171.795 29.2506C171.795 29.8853 171.571 30.408 171.123 30.8186C170.694 31.2106 170.124 31.4066 169.415 31.4066ZM180.065 53.2466C179.244 53.2466 178.478 53.172 177.769 53.0226C177.078 52.892 176.462 52.6866 175.921 52.4066C175.398 52.1266 174.988 51.7626 174.689 51.3146C174.39 50.8666 174.241 50.3346 174.241 49.7186C174.241 48.5986 174.904 47.6653 176.229 46.9186V46.8066C175.856 46.564 175.548 46.256 175.305 45.8826C175.062 45.5093 174.941 45.0333 174.941 44.4546C174.941 43.9506 175.09 43.4746 175.389 43.0266C175.688 42.56 176.061 42.168 176.509 41.8506V41.7386C176.024 41.4026 175.585 40.9266 175.193 40.3106C174.82 39.676 174.633 38.948 174.633 38.1266C174.633 37.2866 174.792 36.5586 175.109 35.9426C175.426 35.308 175.846 34.7853 176.369 34.3746C176.91 33.9453 177.526 33.628 178.217 33.4226C178.908 33.2173 179.626 33.1146 180.373 33.1146C181.194 33.1146 181.913 33.2266 182.529 33.4506H187.597V36.4466H185.385C185.516 36.652 185.618 36.9133 185.693 37.2306C185.786 37.548 185.833 37.8933 185.833 38.2666C185.833 39.0693 185.693 39.7693 185.413 40.3666C185.133 40.9453 184.741 41.4306 184.237 41.8226C183.752 42.196 183.173 42.476 182.501 42.6626C181.848 42.8493 181.138 42.9426 180.373 42.9426C179.832 42.9426 179.272 42.8493 178.693 42.6626C178.506 42.812 178.376 42.9613 178.301 43.1106C178.226 43.26 178.189 43.456 178.189 43.6986C178.189 44.0533 178.338 44.3146 178.637 44.4826C178.954 44.6506 179.505 44.7346 180.289 44.7346H182.529C184.246 44.7346 185.553 45.0146 186.449 45.5746C187.364 46.116 187.821 47.012 187.821 48.2626C187.821 48.9906 187.634 49.6533 187.261 50.2506C186.906 50.8666 186.393 51.3893 185.721 51.8186C185.049 52.2666 184.237 52.612 183.285 52.8546C182.333 53.116 181.26 53.2466 180.065 53.2466ZM180.373 40.4506C180.914 40.4506 181.362 40.264 181.717 39.8906C182.09 39.4986 182.277 38.9106 182.277 38.1266C182.277 37.3986 182.09 36.848 181.717 36.4746C181.362 36.0826 180.914 35.8866 180.373 35.8866C179.832 35.8866 179.374 36.0733 179.001 36.4466C178.646 36.82 178.469 37.38 178.469 38.1266C178.469 38.9106 178.646 39.4986 179.001 39.8906C179.374 40.264 179.832 40.4506 180.373 40.4506ZM180.709 50.6706C181.642 50.6706 182.408 50.5026 183.005 50.1666C183.602 49.8493 183.901 49.448 183.901 48.9626C183.901 48.5333 183.714 48.244 183.341 48.0946C182.986 47.9453 182.464 47.8706 181.773 47.8706H180.345C179.86 47.8706 179.468 47.852 179.169 47.8146C178.87 47.796 178.609 47.7586 178.385 47.7026C177.881 48.1506 177.629 48.608 177.629 49.0746C177.629 49.5973 177.909 49.9893 178.469 50.2506C179.029 50.5306 179.776 50.6706 180.709 50.6706ZM190.066 47.3386V33.4506H193.426L193.706 35.2146H193.818C194.416 34.6546 195.069 34.1693 195.778 33.7586C196.488 33.3293 197.318 33.1146 198.27 33.1146C199.782 33.1146 200.874 33.6093 201.546 34.5986C202.237 35.588 202.582 36.96 202.582 38.7146V47.3386H198.466V39.2466C198.466 38.2386 198.326 37.548 198.046 37.1746C197.785 36.8013 197.356 36.6146 196.758 36.6146C196.236 36.6146 195.788 36.736 195.414 36.9786C195.041 37.2026 194.63 37.5293 194.182 37.9586V47.3386H190.066ZM219.227 47.6746C216.856 47.6746 215.046 46.9746 213.795 45.5746C212.544 44.1746 211.919 41.944 211.919 38.8826V29.0826H216.063V39.3026C216.063 41.0946 216.334 42.3453 216.875 43.0546C217.416 43.764 218.2 44.1186 219.227 44.1186C220.254 44.1186 221.047 43.764 221.607 43.0546C222.167 42.3453 222.447 41.0946 222.447 39.3026V29.0826H226.423V38.8826C226.423 41.944 225.807 44.1746 224.575 45.5746C223.362 46.9746 221.579 47.6746 219.227 47.6746ZM230.316 52.4906V33.4506H233.676L233.956 34.8226H234.068C234.61 34.3373 235.216 33.936 235.888 33.6186C236.579 33.2826 237.288 33.1146 238.016 33.1146C238.856 33.1146 239.612 33.2826 240.284 33.6186C240.956 33.9546 241.526 34.4306 241.992 35.0466C242.459 35.6626 242.814 36.4093 243.056 37.2866C243.318 38.1453 243.448 39.1066 243.448 40.1706C243.448 41.3653 243.28 42.4293 242.944 43.3626C242.627 44.2773 242.188 45.0613 241.628 45.7146C241.087 46.3493 240.462 46.8346 239.752 47.1706C239.062 47.5066 238.343 47.6746 237.596 47.6746C236.999 47.6746 236.42 47.5533 235.86 47.3106C235.3 47.0493 234.778 46.6853 234.292 46.2186L234.432 48.4306V52.4906H230.316ZM236.644 44.3146C237.354 44.3146 237.96 43.9973 238.464 43.3626C238.968 42.7093 239.22 41.664 239.22 40.2266C239.22 37.7253 238.418 36.4746 236.812 36.4746C236.01 36.4746 235.216 36.8946 234.432 37.7346V43.4186C234.806 43.7546 235.179 43.988 235.552 44.1186C235.926 44.2493 236.29 44.3146 236.644 44.3146Z"
                      fill="white"/>
            </g>
            <g id="emailIcon">
                <path id="EmailIcon" opacity="0.14"
                      d="M61.3418 24.9822C59.3132 24.9822 57.6684 26.6186 57.6684 28.6377V31.1872H31.6141C30.726 31.1872 30.0057 31.9037 30.0057 32.788C30.0057 33.6723 30.726 34.3887 31.6141 34.3887H57.6684V37.7587H38.8386C37.9506 37.7587 37.2302 38.4752 37.2302 39.3595C37.2302 40.2437 37.9506 40.9602 38.8386 40.9602H57.6684V44.334H48.588C47.6999 44.334 46.9796 45.0504 46.9796 45.9347C46.9796 46.819 47.6999 47.5355 48.588 47.5355H57.6684V51.4268C57.6684 53.4459 59.3132 55.0822 61.3418 55.0822H99.3189C101.347 55.0822 102.992 53.4459 102.992 51.4268V28.6377C102.992 26.6186 101.347 24.9822 99.3189 24.9822H61.3418ZM98.1899 51.9866H62.6701C62.7596 51.9303 62.846 51.8677 62.9287 51.7989L74.7549 41.9456C74.9603 41.7744 75.1328 41.5723 75.2679 41.3489L78.8898 44.3404C79.7739 45.0707 81.0554 45.0707 81.9396 44.3404L85.5819 41.332C85.7184 41.5621 85.8944 41.7701 86.105 41.9455L97.9312 51.7988C98.0139 51.8677 98.1003 51.9303 98.1899 51.9866ZM63.0886 28.1366H97.7407L80.4147 42.4472L63.0886 28.1366ZM61.4459 49.8703V30.3771L73.144 40.1237L61.4459 49.8703ZM99.414 49.8702L87.7158 40.1236L99.414 30.377V49.8702Z"
                      fill="#484848" stroke="black" stroke-width="0.1"
                      stroke-linejoin="round"/>
                <path id="EmailIcon_2" opacity="0.14"
                      d="M60.9326 24.6629C58.9041 24.6629 57.2592 26.2993 57.2592 28.3183V30.8679H31.2049C30.3168 30.8679 29.5965 31.5843 29.5965 32.4686C29.5965 33.3529 30.3168 34.0694 31.2049 34.0694H57.2592V37.4394H38.4295C37.5414 37.4394 36.821 38.1558 36.821 39.0401C36.821 39.9244 37.5414 40.6409 38.4295 40.6409H57.2592V44.0147H48.1789C47.2908 44.0147 46.5704 44.7311 46.5704 45.6154C46.5704 46.4997 47.2908 47.2161 48.1789 47.2161H57.2592V51.1074C57.2592 53.1265 58.9041 54.7629 60.9326 54.7629H98.9097C100.938 54.7629 102.583 53.1265 102.583 51.1074V28.3183C102.583 26.2993 100.938 24.6629 98.9097 24.6629H60.9326ZM97.7808 51.6672H62.2609C62.3504 51.611 62.4369 51.5484 62.5195 51.4795L74.3457 41.6262C74.5511 41.4551 74.7237 41.2529 74.8587 41.0296L78.4806 44.0211C79.3647 44.7514 80.6462 44.7514 81.5304 44.0211L85.1727 41.0127C85.3092 41.2427 85.4852 41.4507 85.6958 41.6262L97.522 51.4795C97.6047 51.5483 97.6912 51.611 97.7808 51.6672ZM62.6794 27.8173H97.3315L80.0055 42.1278L62.6794 27.8173ZM61.0367 49.5509V30.0578L72.7349 39.8044L61.0367 49.5509ZM99.0048 49.5508L87.3067 39.8043L99.0048 30.0577V49.5508Z"
                      fill="#484848" stroke="black" stroke-width="0.1"
                      stroke-linejoin="round"/>
                <path id="EmailIcon_3" opacity="0.14"
                      d="M60.5234 24.3436C58.4949 24.3436 56.85 25.9799 56.85 27.999V30.5486H30.7957C29.9077 30.5486 29.1873 31.265 29.1873 32.1493C29.1873 33.0336 29.9077 33.75 30.7957 33.75H56.85V37.1201H38.0203C37.1322 37.1201 36.4118 37.8365 36.4118 38.7208C36.4118 39.6051 37.1322 40.3215 38.0203 40.3215H56.85V43.6953H47.7697C46.8816 43.6953 46.1612 44.4118 46.1612 45.2961C46.1612 46.1804 46.8816 46.8968 47.7697 46.8968H56.85V50.7881C56.85 52.8072 58.4949 54.4436 60.5234 54.4436H98.5005C100.529 54.4436 102.174 52.8072 102.174 50.7881V27.999C102.174 25.9799 100.529 24.3436 98.5005 24.3436H60.5234ZM97.3716 51.3479H61.8517C61.9412 51.2916 62.0277 51.229 62.1103 51.1602L73.9365 41.3069C74.1419 41.1358 74.3145 40.9336 74.4496 40.7102L78.0714 43.7017C78.9556 44.432 80.237 44.432 81.1212 43.7017L84.7635 40.6933C84.9001 40.9234 85.0761 41.1314 85.2866 41.3068L97.1128 51.1601C97.1955 51.229 97.282 51.2916 97.3716 51.3479ZM62.2703 27.4979H96.9224L79.5963 41.8085L62.2703 27.4979ZM60.6276 49.2316V29.7384L72.3257 39.485L60.6276 49.2316ZM98.5956 49.2315L86.8975 39.4849L98.5956 29.7384V49.2315Z"
                      fill="#484848" stroke="black" stroke-width="0.1"
                      stroke-linejoin="round"/>
                <path id="EmailIcon_4" opacity="0.14"
                      d="M60.1142 24.0242C58.0857 24.0242 56.4408 25.6606 56.4408 27.6797V30.2292H30.3866C29.4985 30.2292 28.7781 30.9457 28.7781 31.83C28.7781 32.7143 29.4985 33.4307 30.3866 33.4307H56.4408V36.8007H37.6111C36.723 36.8007 36.0027 37.5172 36.0027 38.4014C36.0027 39.2857 36.723 40.0022 37.6111 40.0022H56.4408V43.376H47.3605C46.4724 43.376 45.7521 44.0924 45.7521 44.9767C45.7521 45.861 46.4724 46.5775 47.3605 46.5775H56.4408V50.4688C56.4408 52.4879 58.0857 54.1242 60.1142 54.1242H98.0914C100.12 54.1242 101.765 52.4879 101.765 50.4688V27.6797C101.765 25.6606 100.12 24.0242 98.0914 24.0242H60.1142ZM96.9624 51.0286H61.4425C61.5321 50.9723 61.6185 50.9097 61.7011 50.8409L73.5274 40.9876C73.7328 40.8164 73.9053 40.6143 74.0404 40.3909L77.6622 43.3824C78.5464 44.1127 79.8279 44.1127 80.712 43.3824L84.3544 40.374C84.4909 40.604 84.6669 40.812 84.8774 40.9875L96.7037 50.8408C96.7863 50.9097 96.8728 50.9723 96.9624 51.0286ZM61.8611 27.1786H96.5132L79.1871 41.4892L61.8611 27.1786ZM60.2184 48.9123V29.4191L71.9165 39.1657L60.2184 48.9123ZM98.1864 48.9122L86.4883 39.1656L98.1864 29.419V48.9122Z"
                      fill="#484848" stroke="black" stroke-width="0.1"
                      stroke-linejoin="round"/>
                <path id="EmailIcon_5" fill-rule="evenodd" clip-rule="evenodd"
                      d="M59.705 23.7546C57.7039 23.7546 56.0817 25.3689 56.0817 27.3601V29.9596H29.9774C29.1167 29.9596 28.4189 30.6539 28.4189 31.5104C28.4189 32.3668 29.1167 33.0611 29.9774 33.0611H56.0817V36.5311H37.2019C36.3412 36.5311 35.6435 37.2254 35.6435 38.0819C35.6435 38.9383 36.3412 39.6326 37.2019 39.6326H56.0817V43.1064H46.9513C46.0906 43.1064 45.3929 43.8007 45.3929 44.6571C45.3929 45.5136 46.0906 46.2079 46.9513 46.2079H56.0817V50.1492C56.0817 52.1404 57.7039 53.7546 59.705 53.7546H97.6822C99.6833 53.7546 101.306 52.1404 101.306 50.1492V27.3601C101.306 25.3689 99.6833 23.7546 97.6822 23.7546H59.705ZM96.7407 50.759H60.8459C60.9916 50.6829 61.1305 50.5907 61.2599 50.4829L73.0862 40.6296C73.3025 40.4493 73.4816 40.234 73.6178 39.9954L77.2849 43.0243C78.1506 43.7393 79.4053 43.7393 80.271 43.0243L83.9589 39.9782C84.0963 40.2236 84.2788 40.4449 84.5003 40.6295L96.3265 50.4828C96.456 50.5907 96.5949 50.6828 96.7407 50.759ZM78.7779 41.2344L96.243 26.809H61.3128L78.7779 41.2344ZM71.5854 38.8461L59.7592 28.9928V48.6994L71.5854 38.8461ZM86.001 38.846L97.8272 28.9927V48.6993L86.001 38.846Z"
                      fill="white"/>
            </g>
        </g>
    </g>
    <defs>
        <linearGradient id="greenBlue" x1="9.99973" y1="11.9999" x2="344"
                        y2="51.9999" gradientUnits="userSpaceOnUse">
            <stop stop-color="#00EFA9"/>
            <stop offset="1" stop-color="#3F56F0"/>
        </linearGradient>
    </defs>
</svg>
