<svg width="355" height="77" viewBox="0 0 355 77" fill="none"
     xmlns="http://www.w3.org/2000/svg">
    <g id="emailButton">
        <g id="border">
            <rect id="border5" opacity="0.17" x="2.38574" y="2.72119"
                  width="348" height="68.7654" rx="31" stroke="white"
                  stroke-width="4" stroke-linecap="round"/>
            <rect id="border4" opacity="0.17" x="3.23242" y="3.56787"
                  width="348" height="68.7654" rx="31" stroke="white"
                  stroke-width="4" stroke-linecap="round"/>
            <rect id="border3" opacity="0.17" x="4.0791" y="4.41455" width="348"
                  height="68.7654" rx="31" stroke="white" stroke-width="4"
                  stroke-linecap="round"/>
            <rect id="border2" opacity="0.17" x="4.92578" y="5.26123"
                  width="348" height="68.7654" rx="31" stroke="white"
                  stroke-width="4" stroke-linecap="round"/>
            <rect id="border1" x="3.65625" y="3.62817" width="348"
                  height="68.7654" rx="31" fill="url(#paint0_linear)"
                  stroke="white" stroke-width="4" stroke-linecap="round"/>
        </g>

        <g id="emailIcon">
            <path id="EmailIcon" opacity="0.14"
                  d="M44.3086 23.8709C42.28 23.8709 40.6352 25.5073 40.6352 27.5264V30.0759H14.5809C13.6928 30.0759 12.9725 30.7923 12.9725 31.6766C12.9725 32.5609 13.6928 33.2774 14.5809 33.2774H40.6352V36.6474H21.8054C20.9174 36.6474 20.197 37.3638 20.197 38.2481C20.197 39.1324 20.9174 39.8489 21.8054 39.8489H40.6352V43.2227H31.5548C30.6667 43.2227 29.9464 43.9391 29.9464 44.8234C29.9464 45.7077 30.6667 46.4241 31.5548 46.4241H40.6352V50.3154C40.6352 52.3345 42.28 53.9709 44.3086 53.9709H82.2857C84.3142 53.9709 85.9591 52.3345 85.9591 50.3154V27.5263C85.9591 25.5073 84.3142 23.8709 82.2857 23.8709H44.3086ZM81.1567 50.8752H45.6369C45.7264 50.819 45.8128 50.7564 45.8955 50.6875L57.7217 40.8342C57.9271 40.6631 58.0996 40.461 58.2347 40.2376L61.8566 43.2291C62.7407 43.9594 64.0222 43.9594 64.9064 43.2291L68.5487 40.2207C68.6852 40.4507 68.8612 40.6587 69.0718 40.8342L80.898 50.6875C80.9807 50.7563 81.0671 50.819 81.1567 50.8752ZM46.0554 27.0253H80.7075L63.3815 41.3358L46.0554 27.0253ZM44.4127 48.7589V29.2658L56.1108 39.0124L44.4127 48.7589ZM82.3808 48.7589L70.6826 39.0123L82.3808 29.2657V48.7589Z"
                  fill="#484848" stroke="black" stroke-width="0.1"
                  stroke-linejoin="round"/>
            <path id="EmailIcon_2" opacity="0.14"
                  d="M43.8994 23.5516C41.8709 23.5516 40.226 25.1879 40.226 27.207V29.7566H14.1717C13.2836 29.7566 12.5633 30.473 12.5633 31.3573C12.5633 32.2416 13.2836 32.958 14.1717 32.958H40.226V36.3281H21.3963C20.5082 36.3281 19.7878 37.0445 19.7878 37.9288C19.7878 38.8131 20.5082 39.5295 21.3963 39.5295H40.226V42.9033H31.1457C30.2576 42.9033 29.5372 43.6198 29.5372 44.5041C29.5372 45.3884 30.2576 46.1048 31.1457 46.1048H40.226V49.9961C40.226 52.0152 41.8709 53.6516 43.8994 53.6516H81.8765C83.905 53.6516 85.5499 52.0152 85.5499 49.9961V27.207C85.5499 25.1879 83.905 23.5516 81.8765 23.5516H43.8994ZM80.7476 50.5559H45.2277C45.3172 50.4997 45.4037 50.4371 45.4863 50.3682L57.3125 40.5149C57.5179 40.3438 57.6905 40.1416 57.8255 39.9182L61.4474 42.9097C62.3315 43.64 63.613 43.64 64.4972 42.9097L68.1395 39.9013C68.276 40.1314 68.452 40.3394 68.6626 40.5148L80.4888 50.3681C80.5715 50.437 80.658 50.4996 80.7476 50.5559ZM45.6462 26.7059H80.2983L62.9723 41.0165L45.6462 26.7059ZM44.0035 48.4396V28.9465L55.7017 38.693L44.0035 48.4396ZM81.9716 48.4395L70.2735 38.693L81.9716 28.9464V48.4395Z"
                  fill="#484848" stroke="black" stroke-width="0.1"
                  stroke-linejoin="round"/>
            <path id="EmailIcon_3" opacity="0.14"
                  d="M43.4902 23.2322C41.4617 23.2322 39.8168 24.8686 39.8168 26.8877V29.4372H13.7625C12.8745 29.4372 12.1541 30.1537 12.1541 31.038C12.1541 31.9223 12.8745 32.6387 13.7625 32.6387H39.8168V36.0087H20.9871C20.099 36.0087 19.3786 36.7252 19.3786 37.6095C19.3786 38.4937 20.099 39.2102 20.9871 39.2102H39.8168V42.584H30.7365C29.8484 42.584 29.128 43.3004 29.128 44.1847C29.128 45.069 29.8484 45.7855 30.7365 45.7855H39.8168V49.6768C39.8168 51.6959 41.4617 53.3322 43.4902 53.3322H81.4673C83.4959 53.3322 85.1407 51.6959 85.1407 49.6768V26.8877C85.1407 24.8686 83.4959 23.2322 81.4673 23.2322H43.4902ZM80.3384 50.2366H44.8185C44.908 50.1803 44.9945 50.1177 45.0771 50.0489L56.9033 40.1956C57.1087 40.0244 57.2813 39.8223 57.4163 39.5989L61.0382 42.5904C61.9224 43.3207 63.2038 43.3207 64.088 42.5904L67.7303 39.582C67.8668 39.8121 68.0429 40.0201 68.2534 40.1955L80.0796 50.0488C80.1623 50.1177 80.2488 50.1803 80.3384 50.2366ZM45.237 26.3866H79.8892L62.5631 40.6972L45.237 26.3866ZM43.5944 48.1203V28.6271L55.2925 38.3737L43.5944 48.1203ZM81.5624 48.1202L69.8643 38.3736L81.5624 28.627V48.1202Z"
                  fill="#484848" stroke="black" stroke-width="0.1"
                  stroke-linejoin="round"/>
            <path id="EmailIcon_4" opacity="0.14"
                  d="M43.081 22.9129C41.0525 22.9129 39.4076 24.5493 39.4076 26.5683V29.1179H13.3534C12.4653 29.1179 11.7449 29.8343 11.7449 30.7186C11.7449 31.6029 12.4653 32.3194 13.3534 32.3194H39.4076V35.6894H20.5779C19.6898 35.6894 18.9695 36.4058 18.9695 37.2901C18.9695 38.1744 19.6898 38.8909 20.5779 38.8909H39.4076V42.2647H30.3273C29.4392 42.2647 28.7188 42.9811 28.7188 43.8654C28.7188 44.7497 29.4392 45.4661 30.3273 45.4661H39.4076V49.3574C39.4076 51.3765 41.0525 53.0129 43.081 53.0129H81.0582C83.0867 53.0129 84.7315 51.3765 84.7315 49.3574V26.5683C84.7315 24.5493 83.0867 22.9129 81.0582 22.9129H43.081ZM79.9292 49.9172H44.4093C44.4989 49.861 44.5853 49.7984 44.6679 49.7295L56.4942 39.8762C56.6996 39.7051 56.8721 39.5029 57.0072 39.2796L60.629 42.2711C61.5132 43.0014 62.7947 43.0014 63.6788 42.2711L67.3211 39.2627C67.4577 39.4927 67.6337 39.7007 67.8442 39.8762L79.6705 49.7295C79.7531 49.7983 79.8396 49.861 79.9292 49.9172ZM44.8279 26.0673H79.48L62.1539 40.3778L44.8279 26.0673ZM43.1852 47.8009V28.3078L54.8833 38.0544L43.1852 47.8009ZM81.1532 47.8008L69.4551 38.0543L81.1532 28.3077V47.8008Z"
                  fill="#484848" stroke="black" stroke-width="0.1"
                  stroke-linejoin="round"/>
            <path id="EmailIcon_5" fill-rule="evenodd" clip-rule="evenodd"
                  d="M42.6718 22.6433C40.6707 22.6433 39.0485 24.2575 39.0485 26.2488V28.8483H12.9442C12.0835 28.8483 11.3857 29.5426 11.3857 30.399C11.3857 31.2555 12.0835 31.9498 12.9442 31.9498H39.0485V35.4198H20.1687C19.308 35.4198 18.6103 36.1141 18.6103 36.9705C18.6103 37.827 19.308 38.5213 20.1687 38.5213H39.0485V41.9951H29.9181C29.0574 41.9951 28.3597 42.6894 28.3597 43.5458C28.3597 44.4023 29.0574 45.0965 29.9181 45.0965H39.0485V49.0379C39.0485 51.0291 40.6707 52.6433 42.6718 52.6433H80.649C82.6501 52.6433 84.2724 51.0291 84.2724 49.0379V26.2488C84.2724 24.2575 82.6501 22.6433 80.649 22.6433H42.6718ZM79.7075 49.6476H43.8127C43.9584 49.5715 44.0973 49.4794 44.2267 49.3715L56.053 39.5182C56.2693 39.338 56.4484 39.1226 56.5846 38.8841L60.2517 41.9129C61.1174 42.628 62.3721 42.628 63.2378 41.9129L66.9257 38.8669C67.0631 39.1122 67.2456 39.3336 67.4671 39.5182L79.2933 49.3715C79.4228 49.4793 79.5617 49.5715 79.7075 49.6476ZM61.7447 40.1231L79.2098 25.6977H44.2796L61.7447 40.1231ZM54.5522 37.7348L42.726 27.8815V47.5881L54.5522 37.7348ZM68.9678 37.7347L80.794 27.8814V47.588L68.9678 37.7347Z"
                  fill="white"/>
        </g>
    </g>
    <defs>

    </defs>
</svg>
