<svg width="356" height="76" viewBox="0 0 356 76" fill="none"
     xmlns="http://www.w3.org/2000/svg">
    <g id="emailButton">
        <g id="border">
            <rect id="Rectangle 74" opacity="0.17" x="2.4707" y="2.22119"
                  width="348" height="68.7654" rx="31"
                  fill="url(#paint0_linear)" stroke="white" stroke-width="4"
                  stroke-linecap="round"/>
            <rect id="Rectangle 75" opacity="0.17" x="3.31738" y="3.06787"
                  width="348" height="68.7654" rx="31"
                  fill="url(#paint1_linear)" stroke="white" stroke-width="4"
                  stroke-linecap="round"/>
            <rect id="Rectangle 76" opacity="0.17" x="4.16406" y="3.91455"
                  width="348" height="68.7654" rx="31"
                  fill="url(#paint2_linear)" stroke="white" stroke-width="4"
                  stroke-linecap="round"/>
            <rect id="Rectangle 77" opacity="0.17" x="5.01074" y="4.76123"
                  width="348" height="68.7654" rx="31"
                  fill="url(#paint3_linear)" stroke="white" stroke-width="4"
                  stroke-linecap="round"/>
            <rect id="Rectangle 78" x="2.46875" y="2.03149" width="348"
                  height="68.7654" rx="31" stroke-width="4"
                  stroke-linecap="round"/>
        </g>
        <g id="text">
            <text id="text_2" opacity="0.14" fill="#484848" xml:space="preserve"
                  style="white-space: pre" font-family="Source Sans Pro"
                  font-size="28" font-weight="bold" letter-spacing="0em"><tspan x="150.59" y="51.2134">Sign Up</tspan></text>
            <text id="text_3" opacity="0.14" fill="#484848" xml:space="preserve"
                  style="white-space: pre" font-family="Source Sans Pro"
                  font-size="28" font-weight="bold" letter-spacing="0em"><tspan x="149.565" y="49.7763">Sign Up</tspan></text>
            <text id="text_4" opacity="0.14" fill="#484848" xml:space="preserve"
                  style="white-space: pre" font-family="Source Sans Pro"
                  font-size="28" font-weight="bold" letter-spacing="0em"><tspan x="149.907" y="50.2553">Sign Up</tspan></text>
            <text id="text_5" opacity="0.14" fill="#484848" xml:space="preserve"
                  style="white-space: pre" font-family="Source Sans Pro"
                  font-size="28" font-weight="bold" letter-spacing="0em"><tspan x="150.249" y="50.7343">Sign Up</tspan></text>
            <text id="text_6" fill="white" xml:space="preserve"
                  style="white-space: pre" font-family="Source Sans Pro"
                  font-size="28" font-weight="bold" letter-spacing="0em"><tspan x="149.241" y="49.0983">Sign Up</tspan></text>
        </g>
        <g id="emailIcon">
            <g id="EmailIcon" opacity="0.14">
                <mask id="path-11-outside-1" maskUnits="userSpaceOnUse"
                      x="29.1406" y="23.5322" width="74" height="32"
                      fill="black">
                    <rect fill="white" x="29.1406" y="23.5322" width="74"
                          height="32"/>
                    <path fill-rule="evenodd" clip-rule="evenodd"
                          d="M61.4267 24.5322C59.4256 24.5322 57.8033 26.1464 57.8033 28.1377V30.7372H31.6991C30.8384 30.7372 30.1406 31.4315 30.1406 32.288C30.1406 33.1444 30.8384 33.8387 31.6991 33.8387H57.8033V37.3087H38.9236C38.0629 37.3087 37.3652 38.003 37.3652 38.8595C37.3652 39.7159 38.0629 40.4102 38.9236 40.4102H57.8033V43.884H48.673C47.8123 43.884 47.1146 44.5783 47.1146 45.4347C47.1146 46.2912 47.8123 46.9855 48.673 46.9855H57.8033V50.9268C57.8033 52.918 59.4256 54.5322 61.4267 54.5322H99.4039C101.405 54.5322 103.027 52.918 103.027 50.9268V28.1377C103.027 26.1464 101.405 24.5322 99.4039 24.5322H61.4267ZM98.4623 51.5366H62.5676C62.7133 51.4604 62.8522 51.3683 62.9816 51.2605L74.8079 41.4071C75.0242 41.2269 75.2033 41.0116 75.3395 40.773L79.0066 43.8019C79.8722 44.5169 81.127 44.5169 81.9927 43.8019L85.6806 40.7558C85.818 41.0012 86.0004 41.2225 86.2219 41.4071L98.0482 51.2604C98.1776 51.3682 98.3166 51.4604 98.4623 51.5366ZM80.4996 42.012L97.9647 27.5866H63.0345L80.4996 42.012ZM73.3071 39.6237L61.4809 29.7704V49.477L73.3071 39.6237ZM87.7227 39.6236L99.5489 29.7703V49.4769L87.7227 39.6236Z"/>
                </mask>
                <path fill-rule="evenodd" clip-rule="evenodd"
                      d="M61.4267 24.5322C59.4256 24.5322 57.8033 26.1464 57.8033 28.1377V30.7372H31.6991C30.8384 30.7372 30.1406 31.4315 30.1406 32.288C30.1406 33.1444 30.8384 33.8387 31.6991 33.8387H57.8033V37.3087H38.9236C38.0629 37.3087 37.3652 38.003 37.3652 38.8595C37.3652 39.7159 38.0629 40.4102 38.9236 40.4102H57.8033V43.884H48.673C47.8123 43.884 47.1146 44.5783 47.1146 45.4347C47.1146 46.2912 47.8123 46.9855 48.673 46.9855H57.8033V50.9268C57.8033 52.918 59.4256 54.5322 61.4267 54.5322H99.4039C101.405 54.5322 103.027 52.918 103.027 50.9268V28.1377C103.027 26.1464 101.405 24.5322 99.4039 24.5322H61.4267ZM98.4623 51.5366H62.5676C62.7133 51.4604 62.8522 51.3683 62.9816 51.2605L74.8079 41.4071C75.0242 41.2269 75.2033 41.0116 75.3395 40.773L79.0066 43.8019C79.8722 44.5169 81.127 44.5169 81.9927 43.8019L85.6806 40.7558C85.818 41.0012 86.0004 41.2225 86.2219 41.4071L98.0482 51.2604C98.1776 51.3682 98.3166 51.4604 98.4623 51.5366ZM80.4996 42.012L97.9647 27.5866H63.0345L80.4996 42.012ZM73.3071 39.6237L61.4809 29.7704V49.477L73.3071 39.6237ZM87.7227 39.6236L99.5489 29.7703V49.4769L87.7227 39.6236Z"
                      fill="#484848"/>
                <path fill-rule="evenodd" clip-rule="evenodd"
                      d="M61.4267 24.5322C59.4256 24.5322 57.8033 26.1464 57.8033 28.1377V30.7372H31.6991C30.8384 30.7372 30.1406 31.4315 30.1406 32.288C30.1406 33.1444 30.8384 33.8387 31.6991 33.8387H57.8033V37.3087H38.9236C38.0629 37.3087 37.3652 38.003 37.3652 38.8595C37.3652 39.7159 38.0629 40.4102 38.9236 40.4102H57.8033V43.884H48.673C47.8123 43.884 47.1146 44.5783 47.1146 45.4347C47.1146 46.2912 47.8123 46.9855 48.673 46.9855H57.8033V50.9268C57.8033 52.918 59.4256 54.5322 61.4267 54.5322H99.4039C101.405 54.5322 103.027 52.918 103.027 50.9268V28.1377C103.027 26.1464 101.405 24.5322 99.4039 24.5322H61.4267ZM98.4623 51.5366H62.5676C62.7133 51.4604 62.8522 51.3683 62.9816 51.2605L74.8079 41.4071C75.0242 41.2269 75.2033 41.0116 75.3395 40.773L79.0066 43.8019C79.8722 44.5169 81.127 44.5169 81.9927 43.8019L85.6806 40.7558C85.818 41.0012 86.0004 41.2225 86.2219 41.4071L98.0482 51.2604C98.1776 51.3682 98.3166 51.4604 98.4623 51.5366ZM80.4996 42.012L97.9647 27.5866H63.0345L80.4996 42.012ZM73.3071 39.6237L61.4809 29.7704V49.477L73.3071 39.6237ZM87.7227 39.6236L99.5489 29.7703V49.4769L87.7227 39.6236Z"
                      stroke="black" stroke-width="0.2" stroke-linejoin="round"
                      mask="url(#path-11-outside-1)"/>
            </g>
            <g id="EmailIcon_2" opacity="0.14">
                <mask id="path-12-outside-2" maskUnits="userSpaceOnUse"
                      x="28.7314" y="23.2129" width="74" height="32"
                      fill="black">
                    <rect fill="white" x="28.7314" y="23.2129" width="74"
                          height="32"/>
                    <path fill-rule="evenodd" clip-rule="evenodd"
                          d="M61.0175 24.2129C59.0164 24.2129 57.3942 25.8271 57.3942 27.8183V30.4179H31.2899C30.4292 30.4179 29.7314 31.1122 29.7314 31.9686C29.7314 32.8251 30.4292 33.5194 31.2899 33.5194H57.3942V36.9894H38.5144C37.6537 36.9894 36.956 37.6837 36.956 38.5401C36.956 39.3966 37.6537 40.0908 38.5144 40.0908H57.3942V43.5647H48.2638C47.4031 43.5647 46.7054 44.2589 46.7054 45.1154C46.7054 45.9718 47.4031 46.6661 48.2638 46.6661H57.3942V50.6074C57.3942 52.5987 59.0164 54.2129 61.0175 54.2129H98.9947C100.996 54.2129 102.618 52.5987 102.618 50.6074V27.8183C102.618 25.8271 100.996 24.2129 98.9947 24.2129H61.0175ZM98.0532 51.2172H62.1584C62.3041 51.1411 62.443 51.049 62.5724 50.9411L74.3987 41.0878C74.615 40.9076 74.7941 40.6922 74.9303 40.4537L78.5974 43.4825C79.4631 44.1975 80.7178 44.1975 81.5835 43.4825L85.2714 40.4365C85.4088 40.6818 85.5913 40.9032 85.8128 41.0877L97.639 50.941C97.7685 51.0489 97.9074 51.1411 98.0532 51.2172ZM80.0904 41.6927L97.5555 27.2673H62.6253L80.0904 41.6927ZM72.8979 39.3044L61.0717 29.451V49.1577L72.8979 39.3044ZM87.3135 39.3043L99.1397 29.451V49.1576L87.3135 39.3043Z"/>
                </mask>
                <path fill-rule="evenodd" clip-rule="evenodd"
                      d="M61.0175 24.2129C59.0164 24.2129 57.3942 25.8271 57.3942 27.8183V30.4179H31.2899C30.4292 30.4179 29.7314 31.1122 29.7314 31.9686C29.7314 32.8251 30.4292 33.5194 31.2899 33.5194H57.3942V36.9894H38.5144C37.6537 36.9894 36.956 37.6837 36.956 38.5401C36.956 39.3966 37.6537 40.0908 38.5144 40.0908H57.3942V43.5647H48.2638C47.4031 43.5647 46.7054 44.2589 46.7054 45.1154C46.7054 45.9718 47.4031 46.6661 48.2638 46.6661H57.3942V50.6074C57.3942 52.5987 59.0164 54.2129 61.0175 54.2129H98.9947C100.996 54.2129 102.618 52.5987 102.618 50.6074V27.8183C102.618 25.8271 100.996 24.2129 98.9947 24.2129H61.0175ZM98.0532 51.2172H62.1584C62.3041 51.1411 62.443 51.049 62.5724 50.9411L74.3987 41.0878C74.615 40.9076 74.7941 40.6922 74.9303 40.4537L78.5974 43.4825C79.4631 44.1975 80.7178 44.1975 81.5835 43.4825L85.2714 40.4365C85.4088 40.6818 85.5913 40.9032 85.8128 41.0877L97.639 50.941C97.7685 51.0489 97.9074 51.1411 98.0532 51.2172ZM80.0904 41.6927L97.5555 27.2673H62.6253L80.0904 41.6927ZM72.8979 39.3044L61.0717 29.451V49.1577L72.8979 39.3044ZM87.3135 39.3043L99.1397 29.451V49.1576L87.3135 39.3043Z"
                      fill="#484848"/>
                <path fill-rule="evenodd" clip-rule="evenodd"
                      d="M61.0175 24.2129C59.0164 24.2129 57.3942 25.8271 57.3942 27.8183V30.4179H31.2899C30.4292 30.4179 29.7314 31.1122 29.7314 31.9686C29.7314 32.8251 30.4292 33.5194 31.2899 33.5194H57.3942V36.9894H38.5144C37.6537 36.9894 36.956 37.6837 36.956 38.5401C36.956 39.3966 37.6537 40.0908 38.5144 40.0908H57.3942V43.5647H48.2638C47.4031 43.5647 46.7054 44.2589 46.7054 45.1154C46.7054 45.9718 47.4031 46.6661 48.2638 46.6661H57.3942V50.6074C57.3942 52.5987 59.0164 54.2129 61.0175 54.2129H98.9947C100.996 54.2129 102.618 52.5987 102.618 50.6074V27.8183C102.618 25.8271 100.996 24.2129 98.9947 24.2129H61.0175ZM98.0532 51.2172H62.1584C62.3041 51.1411 62.443 51.049 62.5724 50.9411L74.3987 41.0878C74.615 40.9076 74.7941 40.6922 74.9303 40.4537L78.5974 43.4825C79.4631 44.1975 80.7178 44.1975 81.5835 43.4825L85.2714 40.4365C85.4088 40.6818 85.5913 40.9032 85.8128 41.0877L97.639 50.941C97.7685 51.0489 97.9074 51.1411 98.0532 51.2172ZM80.0904 41.6927L97.5555 27.2673H62.6253L80.0904 41.6927ZM72.8979 39.3044L61.0717 29.451V49.1577L72.8979 39.3044ZM87.3135 39.3043L99.1397 29.451V49.1576L87.3135 39.3043Z"
                      stroke="black" stroke-width="0.2" stroke-linejoin="round"
                      mask="url(#path-12-outside-2)"/>
            </g>
            <g id="EmailIcon_3" opacity="0.14">
                <mask id="path-13-outside-3" maskUnits="userSpaceOnUse"
                      x="28.3223" y="22.8936" width="74" height="32"
                      fill="black">
                    <rect fill="white" x="28.3223" y="22.8936" width="74"
                          height="32"/>
                    <path fill-rule="evenodd" clip-rule="evenodd"
                          d="M60.6084 23.8936C58.6072 23.8936 56.985 25.5078 56.985 27.499V30.0986H30.8807C30.02 30.0986 29.3223 30.7928 29.3223 31.6493C29.3223 32.5057 30.02 33.2 30.8807 33.2H56.985V36.6701H38.1052C37.2445 36.6701 36.5468 37.3643 36.5468 38.2208C36.5468 39.0772 37.2445 39.7715 38.1052 39.7715H56.985V43.2453H47.8546C46.9939 43.2453 46.2962 43.9396 46.2962 44.7961C46.2962 45.6525 46.9939 46.3468 47.8546 46.3468H56.985V50.2881C56.985 52.2793 58.6072 53.8936 60.6084 53.8936H98.5855C100.587 53.8936 102.209 52.2793 102.209 50.2881V27.499C102.209 25.5078 100.587 23.8936 98.5855 23.8936H60.6084ZM97.644 50.8979H61.7493C61.8949 50.8218 62.0338 50.7296 62.1633 50.6218L73.9895 40.7685C74.2058 40.5882 74.3849 40.3729 74.5211 40.1343L78.1882 43.1632C79.0539 43.8782 80.3086 43.8782 81.1743 43.1632L84.8623 40.1171C84.9996 40.3625 85.1821 40.5838 85.4036 40.7684L97.2298 50.6217C97.3593 50.7296 97.4982 50.8218 97.644 50.8979ZM79.6813 41.3734L97.1464 26.9479H62.2162L79.6813 41.3734ZM72.4887 38.985L60.6625 29.1317V48.8383L72.4887 38.985ZM86.9043 38.9849L98.7306 29.1316V48.8382L86.9043 38.9849Z"/>
                </mask>
                <path fill-rule="evenodd" clip-rule="evenodd"
                      d="M60.6084 23.8936C58.6072 23.8936 56.985 25.5078 56.985 27.499V30.0986H30.8807C30.02 30.0986 29.3223 30.7928 29.3223 31.6493C29.3223 32.5057 30.02 33.2 30.8807 33.2H56.985V36.6701H38.1052C37.2445 36.6701 36.5468 37.3643 36.5468 38.2208C36.5468 39.0772 37.2445 39.7715 38.1052 39.7715H56.985V43.2453H47.8546C46.9939 43.2453 46.2962 43.9396 46.2962 44.7961C46.2962 45.6525 46.9939 46.3468 47.8546 46.3468H56.985V50.2881C56.985 52.2793 58.6072 53.8936 60.6084 53.8936H98.5855C100.587 53.8936 102.209 52.2793 102.209 50.2881V27.499C102.209 25.5078 100.587 23.8936 98.5855 23.8936H60.6084ZM97.644 50.8979H61.7493C61.8949 50.8218 62.0338 50.7296 62.1633 50.6218L73.9895 40.7685C74.2058 40.5882 74.3849 40.3729 74.5211 40.1343L78.1882 43.1632C79.0539 43.8782 80.3086 43.8782 81.1743 43.1632L84.8623 40.1171C84.9996 40.3625 85.1821 40.5838 85.4036 40.7684L97.2298 50.6217C97.3593 50.7296 97.4982 50.8218 97.644 50.8979ZM79.6813 41.3734L97.1464 26.9479H62.2162L79.6813 41.3734ZM72.4887 38.985L60.6625 29.1317V48.8383L72.4887 38.985ZM86.9043 38.9849L98.7306 29.1316V48.8382L86.9043 38.9849Z"
                      fill="#484848"/>
                <path fill-rule="evenodd" clip-rule="evenodd"
                      d="M60.6084 23.8936C58.6072 23.8936 56.985 25.5078 56.985 27.499V30.0986H30.8807C30.02 30.0986 29.3223 30.7928 29.3223 31.6493C29.3223 32.5057 30.02 33.2 30.8807 33.2H56.985V36.6701H38.1052C37.2445 36.6701 36.5468 37.3643 36.5468 38.2208C36.5468 39.0772 37.2445 39.7715 38.1052 39.7715H56.985V43.2453H47.8546C46.9939 43.2453 46.2962 43.9396 46.2962 44.7961C46.2962 45.6525 46.9939 46.3468 47.8546 46.3468H56.985V50.2881C56.985 52.2793 58.6072 53.8936 60.6084 53.8936H98.5855C100.587 53.8936 102.209 52.2793 102.209 50.2881V27.499C102.209 25.5078 100.587 23.8936 98.5855 23.8936H60.6084ZM97.644 50.8979H61.7493C61.8949 50.8218 62.0338 50.7296 62.1633 50.6218L73.9895 40.7685C74.2058 40.5882 74.3849 40.3729 74.5211 40.1343L78.1882 43.1632C79.0539 43.8782 80.3086 43.8782 81.1743 43.1632L84.8623 40.1171C84.9996 40.3625 85.1821 40.5838 85.4036 40.7684L97.2298 50.6217C97.3593 50.7296 97.4982 50.8218 97.644 50.8979ZM79.6813 41.3734L97.1464 26.9479H62.2162L79.6813 41.3734ZM72.4887 38.985L60.6625 29.1317V48.8383L72.4887 38.985ZM86.9043 38.9849L98.7306 29.1316V48.8382L86.9043 38.9849Z"
                      stroke="black" stroke-width="0.2" stroke-linejoin="round"
                      mask="url(#path-13-outside-3)"/>
            </g>
            <g id="EmailIcon_4" opacity="0.14">
                <mask id="path-14-outside-4" maskUnits="userSpaceOnUse"
                      x="27.9131" y="22.5742" width="74" height="32"
                      fill="black">
                    <rect fill="white" x="27.9131" y="22.5742" width="74"
                          height="32"/>
                    <path fill-rule="evenodd" clip-rule="evenodd"
                          d="M60.1992 23.5742C58.1981 23.5742 56.5758 25.1884 56.5758 27.1797V29.7792H30.4715C29.6108 29.7792 28.9131 30.4735 28.9131 31.33C28.9131 32.1864 29.6108 32.8807 30.4715 32.8807H56.5758V36.3507H37.6961C36.8354 36.3507 36.1376 37.045 36.1376 37.9014C36.1376 38.7579 36.8354 39.4522 37.6961 39.4522H56.5758V42.926H47.4455C46.5848 42.926 45.887 43.6203 45.887 44.4767C45.887 45.3332 46.5848 46.0275 47.4455 46.0275H56.5758V49.9688C56.5758 51.96 58.1981 53.5742 60.1992 53.5742H98.1763C100.177 53.5742 101.8 51.96 101.8 49.9688V27.1797C101.8 25.1884 100.177 23.5742 98.1763 23.5742H60.1992ZM97.2348 50.5786H61.3401C61.4858 50.5024 61.6247 50.4103 61.7541 50.3025L73.5803 40.4491C73.7966 40.2689 73.9757 40.0535 74.1119 39.815L77.779 42.8439C78.6447 43.5589 79.8995 43.5589 80.7651 42.8439L84.4531 39.7978C84.5905 40.0432 84.7729 40.2645 84.9944 40.4491L96.8206 50.3024C96.9501 50.4102 97.0891 50.5024 97.2348 50.5786ZM79.2721 41.054L96.7372 26.6286H61.807L79.2721 41.054ZM72.0796 38.6657L60.2533 28.8124V48.519L72.0796 38.6657ZM86.4952 38.6656L98.3214 28.8123V48.5189L86.4952 38.6656Z"/>
                </mask>
                <path fill-rule="evenodd" clip-rule="evenodd"
                      d="M60.1992 23.5742C58.1981 23.5742 56.5758 25.1884 56.5758 27.1797V29.7792H30.4715C29.6108 29.7792 28.9131 30.4735 28.9131 31.33C28.9131 32.1864 29.6108 32.8807 30.4715 32.8807H56.5758V36.3507H37.6961C36.8354 36.3507 36.1376 37.045 36.1376 37.9014C36.1376 38.7579 36.8354 39.4522 37.6961 39.4522H56.5758V42.926H47.4455C46.5848 42.926 45.887 43.6203 45.887 44.4767C45.887 45.3332 46.5848 46.0275 47.4455 46.0275H56.5758V49.9688C56.5758 51.96 58.1981 53.5742 60.1992 53.5742H98.1763C100.177 53.5742 101.8 51.96 101.8 49.9688V27.1797C101.8 25.1884 100.177 23.5742 98.1763 23.5742H60.1992ZM97.2348 50.5786H61.3401C61.4858 50.5024 61.6247 50.4103 61.7541 50.3025L73.5803 40.4491C73.7966 40.2689 73.9757 40.0535 74.1119 39.815L77.779 42.8439C78.6447 43.5589 79.8995 43.5589 80.7651 42.8439L84.4531 39.7978C84.5905 40.0432 84.7729 40.2645 84.9944 40.4491L96.8206 50.3024C96.9501 50.4102 97.0891 50.5024 97.2348 50.5786ZM79.2721 41.054L96.7372 26.6286H61.807L79.2721 41.054ZM72.0796 38.6657L60.2533 28.8124V48.519L72.0796 38.6657ZM86.4952 38.6656L98.3214 28.8123V48.5189L86.4952 38.6656Z"
                      fill="#484848"/>
                <path fill-rule="evenodd" clip-rule="evenodd"
                      d="M60.1992 23.5742C58.1981 23.5742 56.5758 25.1884 56.5758 27.1797V29.7792H30.4715C29.6108 29.7792 28.9131 30.4735 28.9131 31.33C28.9131 32.1864 29.6108 32.8807 30.4715 32.8807H56.5758V36.3507H37.6961C36.8354 36.3507 36.1376 37.045 36.1376 37.9014C36.1376 38.7579 36.8354 39.4522 37.6961 39.4522H56.5758V42.926H47.4455C46.5848 42.926 45.887 43.6203 45.887 44.4767C45.887 45.3332 46.5848 46.0275 47.4455 46.0275H56.5758V49.9688C56.5758 51.96 58.1981 53.5742 60.1992 53.5742H98.1763C100.177 53.5742 101.8 51.96 101.8 49.9688V27.1797C101.8 25.1884 100.177 23.5742 98.1763 23.5742H60.1992ZM97.2348 50.5786H61.3401C61.4858 50.5024 61.6247 50.4103 61.7541 50.3025L73.5803 40.4491C73.7966 40.2689 73.9757 40.0535 74.1119 39.815L77.779 42.8439C78.6447 43.5589 79.8995 43.5589 80.7651 42.8439L84.4531 39.7978C84.5905 40.0432 84.7729 40.2645 84.9944 40.4491L96.8206 50.3024C96.9501 50.4102 97.0891 50.5024 97.2348 50.5786ZM79.2721 41.054L96.7372 26.6286H61.807L79.2721 41.054ZM72.0796 38.6657L60.2533 28.8124V48.519L72.0796 38.6657ZM86.4952 38.6656L98.3214 28.8123V48.5189L86.4952 38.6656Z"
                      stroke="black" stroke-width="0.2" stroke-linejoin="round"
                      mask="url(#path-14-outside-4)"/>
            </g>
            <path id="EmailIcon_5" fill-rule="evenodd" clip-rule="evenodd"
                  d="M59.79 23.2546C57.7889 23.2546 56.1666 24.8689 56.1666 26.8601V29.4596H30.0623C29.2016 29.4596 28.5039 30.1539 28.5039 31.0104C28.5039 31.8668 29.2016 32.5611 30.0623 32.5611H56.1666V36.0311H37.2869C36.4262 36.0311 35.7284 36.7254 35.7284 37.5819C35.7284 38.4383 36.4262 39.1326 37.2869 39.1326H56.1666V42.6064H47.0363C46.1756 42.6064 45.4778 43.3007 45.4778 44.1571C45.4778 45.0136 46.1756 45.7079 47.0363 45.7079H56.1666V49.6492C56.1666 51.6404 57.7889 53.2546 59.79 53.2546H97.7671C99.7683 53.2546 101.391 51.6404 101.391 49.6492V26.8601C101.391 24.8689 99.7683 23.2546 97.7671 23.2546H59.79ZM96.8256 50.259H60.9309C61.0766 50.1829 61.2155 50.0907 61.3449 49.9829L73.1711 40.1296C73.3875 39.9493 73.5665 39.734 73.7028 39.4954L77.3698 42.5243C78.2355 43.2393 79.4903 43.2393 80.356 42.5243L84.0439 39.4782C84.1813 39.7236 84.3637 39.9449 84.5852 40.1295L96.4115 49.9828C96.5409 50.0907 96.6799 50.1828 96.8256 50.259ZM78.8629 40.7344L96.328 26.309H61.3978L78.8629 40.7344ZM71.6704 38.3461L59.8442 28.4928V48.1994L71.6704 38.3461ZM86.086 38.346L97.9122 28.4927V48.1993L86.086 38.346Z"
                  fill="white"/>
        </g>
    </g>
    <defs>
        <linearGradient id="small-email" x1="0.470703" y1="36.6039"
                        x2="352.471" y2="36.6039"
                        gradientUnits="userSpaceOnUse">
            <stop stop-color="#00EFA9"/>
            <stop offset="1" stop-color="#3F56F0"/>
        </linearGradient>
        <linearGradient id="paint1_linear" x1="1.31738" y1="37.4506"
                        x2="353.317" y2="37.4506"
                        gradientUnits="userSpaceOnUse">
            <stop stop-color="#00EFA9"/>
            <stop offset="1" stop-color="#3F56F0"/>
        </linearGradient>
        <linearGradient id="paint2_linear" x1="2.16406" y1="38.2972"
                        x2="354.164" y2="38.2972"
                        gradientUnits="userSpaceOnUse">
            <stop stop-color="#00EFA9"/>
            <stop offset="1" stop-color="#3F56F0"/>
        </linearGradient>
        <linearGradient id="paint3_linear" x1="3.01074" y1="39.1439"
                        x2="355.011" y2="39.1439"
                        gradientUnits="userSpaceOnUse">
            <stop stop-color="#00EFA9"/>
            <stop offset="1" stop-color="#3F56F0"/>
        </linearGradient>
        <linearGradient id="paint4_linear" x1="0.46875" y1="36.4142"
                        x2="352.469" y2="36.4142"
                        gradientUnits="userSpaceOnUse">
            <stop stop-color="#00EFA9"/>
            <stop offset="1" stop-color="#3F56F0"/>
        </linearGradient>
    </defs>
</svg>
