<svg width="78" height="36" viewBox="0 0 78 36" fill="none"
     xmlns="http://www.w3.org/2000/svg">

    <path fill-rule="evenodd" clip-rule="evenodd"
          d="M33.0166 0.445557C31.0154 0.445557 29.3932 2.05977 29.3932 4.05101V6.65056H3.28891C2.42821 6.65056 1.73047 7.34485 1.73047 8.2013C1.73047 9.05774 2.42821 9.75203 3.28891 9.75203H29.3932V13.2221H10.5134C9.65274 13.2221 8.955 13.9163 8.955 14.7728C8.955 15.6292 9.65274 16.3235 10.5134 16.3235H29.3932V19.7973H20.2628C19.4021 19.7973 18.7044 20.4916 18.7044 21.3481C18.7044 22.2045 19.4021 22.8988 20.2628 22.8988H29.3932V26.8401C29.3932 28.8313 31.0154 30.4456 33.0166 30.4456H70.9937C72.9949 30.4456 74.6171 28.8313 74.6171 26.8401V4.05101C74.6171 2.05977 72.9949 0.445557 70.9937 0.445557H33.0166ZM70.0522 27.4499H34.1575C34.3031 27.3738 34.442 27.2816 34.5715 27.1738L46.3977 17.3205C46.614 17.1402 46.7931 16.9249 46.9293 16.6863L50.5964 19.7152C51.4621 20.4302 52.7168 20.4302 53.5825 19.7152L57.2705 16.6691C57.4078 16.9145 57.5903 17.1359 57.8118 17.3204L69.638 27.1737C69.7675 27.2816 69.9064 27.3738 70.0522 27.4499ZM52.0895 17.9254L69.5546 3.49993H34.6244L52.0895 17.9254ZM44.8969 15.537L33.0707 5.68371V25.3903L44.8969 15.537ZM59.3125 15.5369L71.1388 5.68363V25.3903L59.3125 15.5369Z"
          fill="white"/>

    <defs>

    </defs>
</svg>
