<svg width="157" height="202" viewBox="0 0 157 202" fill="none"
     xmlns="http://www.w3.org/2000/svg">
    <g id="emptyCardOutline" filter="url(#filter0_d)">
        <path d="M11.3826 1.30103C9.95459 1.30103 8.59162 1.58448 7.34807 2.09859L7.53909 2.56066C5.08212 3.57641 3.11651 5.53672 2.09697 7.9878L1.63531 7.79577C1.1182 9.03895 0.833008 10.4019 0.833008 11.8302V22.7996H1.33301V44.7383H0.833008V66.6771H1.33301V88.6158H0.833008V110.555H1.33301V132.493H0.833008V154.432H1.33301V176.371H0.833008V187.34C0.833008 188.296 0.960771 189.223 1.20046 190.105L1.68295 189.973C2.15826 191.721 3.09535 193.28 4.35542 194.51L4.00613 194.868C4.6711 195.517 5.42185 196.079 6.23998 196.536C6.51519 196.689 6.79973 196.814 7.08976 196.915L7.25353 196.442C7.78232 196.625 8.33996 196.724 8.90462 196.769L8.8647 197.268C9.16037 197.291 9.4558 197.301 9.74766 197.301H20.8583V196.801H43.0796V197.301H65.3008V196.801H87.5221V197.301H109.743V196.801H131.965V197.301H143.075C143.367 197.301 143.663 197.291 143.958 197.268L143.918 196.769C144.483 196.724 145.041 196.625 145.569 196.442L145.733 196.915C146.023 196.814 146.308 196.689 146.583 196.536C147.195 196.194 147.77 195.793 148.299 195.341L147.974 194.961C148.984 194.097 149.82 193.038 150.423 191.842L150.87 192.067C151.182 191.448 151.434 190.794 151.62 190.113C151.663 189.955 151.698 189.795 151.726 189.637L151.234 189.55C151.285 189.26 151.312 188.965 151.324 188.67L151.824 188.691C151.83 188.535 151.833 188.381 151.833 188.228V177.147H151.333V154.987H151.833V132.826H151.333V110.666H151.833V88.5049H151.333V66.3443H151.833V44.1837H151.333V22.0231H151.833V10.9428C151.833 10.7898 151.83 10.6352 151.824 10.4797L151.324 10.5004C151.312 10.2051 151.285 9.91086 151.234 9.62077L151.726 9.53391C151.698 9.37513 151.663 9.21606 151.62 9.05743C151.314 7.93446 150.826 6.88641 150.19 5.94662L149.776 6.22672C148.556 4.42259 146.764 3.03589 144.658 2.32624L144.818 1.85244C143.757 1.49473 142.621 1.30103 141.44 1.30103H130.602V1.80103H108.926V1.30103H87.2496V1.80103H65.5733V1.30103H43.8971V1.80103H22.2208V1.30103H11.3826Z"
              stroke="#323C56" stroke-dasharray="20 20"/>
    </g>
    <defs>
        <filter id="filter0_d" x="0.333008" y="0.801025" width="156"
                height="201" filterUnits="userSpaceOnUse"
                color-interpolation-filters="sRGB">
            <feFlood flood-opacity="0" result="BackgroundImageFix"/>
            <feColorMatrix in="SourceAlpha" type="matrix"
                           values="0 0 0 0 0 0 0 0 0 0 0 0 0 0 0 0 0 0 127 0"/>
            <feOffset dx="2" dy="2"/>
            <feGaussianBlur stdDeviation="1"/>
            <feColorMatrix type="matrix"
                           values="0 0 0 0 0 0 0 0 0 0 0 0 0 0 0 0 0 0 0.25 0"/>
            <feBlend mode="normal" in2="BackgroundImageFix"
                     result="effect1_dropShadow"/>
            <feBlend mode="normal" in="SourceGraphic" in2="effect1_dropShadow"
                     result="shape"/>
        </filter>
    </defs>
</svg>
