<svg width="100%" height="100%" viewBox="0 0 155 200" fill="none"
     xmlns="http://www.w3.org/2000/svg">
    <g filter="url(#filter0_d)">
        <path d="M150.993 9.98759C150.993 9.39685 150.953 8.80374 150.798 8.23383C149.636 3.97627 145.735 0.845825 141.1 0.845825H11.0428C5.49253 0.845825 0.993164 5.33603 0.993164 10.875V186.385C0.993164 190.149 3.07073 193.428 6.14385 195.144C7.13119 195.695 8.27706 195.846 9.40782 195.846H142.735C143.866 195.846 145.012 195.695 145.999 195.144C148.326 193.845 150.082 191.65 150.798 189.026C150.953 188.456 150.993 187.863 150.993 187.272V9.98759Z"
              fill="url(#paint0_linear)"/>
    </g>
    <path d="M115.68 40.8065L98.4377 65.4811" stroke="#323C56" stroke-width="4"
          stroke-linecap="round"/>
    <g filter="url(#filter1_d)">
        <path d="M56.1619 89.6503L55.5179 91.8903H60.1939L59.5499 89.6503C59.2513 88.6796 58.9619 87.681 58.6819 86.6543C58.4206 85.6276 58.1593 84.6103 57.8979 83.6023H57.7859C57.5246 84.629 57.2633 85.6556 57.0019 86.6823C56.7406 87.6903 56.4606 88.6796 56.1619 89.6503ZM50.0299 99.3943L55.9939 81.0823H59.8019L65.7659 99.3943H62.3499L60.9219 94.4383H54.7619L53.3339 99.3943H50.0299ZM72.5592 99.7303C70.8232 99.7303 69.4419 99.105 68.4152 97.8543C67.4072 96.585 66.9032 94.8116 66.9032 92.5343C66.9032 91.4143 67.0619 90.4063 67.3792 89.5103C67.7152 88.6143 68.1539 87.8583 68.6952 87.2423C69.2366 86.6263 69.8526 86.1503 70.5432 85.8143C71.2526 85.4783 71.9806 85.3103 72.7272 85.3103C73.5112 85.3103 74.1739 85.4503 74.7152 85.7303C75.2566 85.9916 75.7979 86.3556 76.3392 86.8223L76.2272 84.6103V79.6263H79.4472V99.3943H76.7872L76.5632 97.9103H76.4512C75.9472 98.4143 75.3592 98.8436 74.6872 99.1983C74.0152 99.553 73.3059 99.7303 72.5592 99.7303ZM73.3432 97.0703C74.3699 97.0703 75.3312 96.557 76.2272 95.5303V89.1183C75.7419 88.689 75.2659 88.3903 74.7992 88.2223C74.3512 88.0543 73.8939 87.9703 73.4272 87.9703C72.5312 87.9703 71.7752 88.3623 71.1592 89.1463C70.5432 89.9303 70.2352 91.0503 70.2352 92.5063C70.2352 93.9996 70.4966 95.1383 71.0192 95.9223C71.5606 96.6876 72.3352 97.0703 73.3432 97.0703ZM88.3639 99.7303C86.6279 99.7303 85.2466 99.105 84.2199 97.8543C83.2119 96.585 82.7079 94.8116 82.7079 92.5343C82.7079 91.4143 82.8666 90.4063 83.1839 89.5103C83.5199 88.6143 83.9586 87.8583 84.4999 87.2423C85.0412 86.6263 85.6572 86.1503 86.3479 85.8143C87.0572 85.4783 87.7852 85.3103 88.5319 85.3103C89.3159 85.3103 89.9786 85.4503 90.5199 85.7303C91.0612 85.9916 91.6026 86.3556 92.1439 86.8223L92.0319 84.6103V79.6263H95.2519V99.3943H92.5919L92.3679 97.9103H92.2559C91.7519 98.4143 91.1639 98.8436 90.4919 99.1983C89.8199 99.553 89.1106 99.7303 88.3639 99.7303ZM89.1479 97.0703C90.1746 97.0703 91.1359 96.557 92.0319 95.5303V89.1183C91.5466 88.689 91.0706 88.3903 90.6039 88.2223C90.1559 88.0543 89.6986 87.9703 89.2319 87.9703C88.3359 87.9703 87.5799 88.3623 86.9639 89.1463C86.3479 89.9303 86.0399 91.0503 86.0399 92.5063C86.0399 93.9996 86.3012 95.1383 86.8239 95.9223C87.3652 96.6876 88.1399 97.0703 89.1479 97.0703ZM23.5896 127.394V109.082H34.6496V111.826H26.8376V117.006H33.5016V119.75H26.8376V127.394H23.5896ZM39.9033 127.73C38.69 127.73 37.71 127.366 36.9633 126.638C36.2167 125.892 35.8433 124.912 35.8433 123.698C35.8433 122.97 35.9927 122.326 36.2913 121.766C36.6087 121.188 37.094 120.693 37.7473 120.282C38.4193 119.872 39.2593 119.526 40.2673 119.246C41.294 118.966 42.5167 118.752 43.9353 118.602C43.9167 118.248 43.8607 117.912 43.7673 117.594C43.6927 117.258 43.5527 116.969 43.3473 116.726C43.1607 116.465 42.9087 116.269 42.5913 116.138C42.274 115.989 41.882 115.914 41.4153 115.914C40.7433 115.914 40.0807 116.045 39.4273 116.306C38.7927 116.568 38.1673 116.885 37.5513 117.258L36.3753 115.102C37.1407 114.617 37.9993 114.197 38.9513 113.842C39.9033 113.488 40.93 113.31 42.0313 113.31C43.7487 113.31 45.0273 113.824 45.8673 114.85C46.726 115.858 47.1553 117.324 47.1553 119.246V127.394H44.4953L44.2713 125.882H44.1593C43.5433 126.405 42.8807 126.844 42.1713 127.198C41.4807 127.553 40.7247 127.73 39.9033 127.73ZM40.9393 125.21C41.4993 125.21 42.0033 125.08 42.4513 124.818C42.918 124.557 43.4127 124.184 43.9353 123.698V120.618C43.002 120.73 42.218 120.88 41.5833 121.066C40.9487 121.253 40.4353 121.468 40.0433 121.71C39.6513 121.934 39.3713 122.196 39.2033 122.494C39.0353 122.793 38.9513 123.11 38.9513 123.446C38.9513 124.062 39.138 124.51 39.5113 124.79C39.8847 125.07 40.3607 125.21 40.9393 125.21ZM54.0888 127.394L49.3008 113.646H52.5768L54.7608 120.786C54.9475 121.458 55.1342 122.14 55.3208 122.83C55.5262 123.521 55.7222 124.221 55.9088 124.93H56.0208C56.2262 124.221 56.4222 123.521 56.6088 122.83C56.7955 122.14 56.9915 121.458 57.1968 120.786L59.3808 113.646H62.4888L57.8128 127.394H54.0888ZM70.3361 127.73C69.4774 127.73 68.6561 127.572 67.8721 127.254C67.0881 126.937 66.3881 126.47 65.7721 125.854C65.1747 125.238 64.6987 124.482 64.3441 123.586C63.9894 122.69 63.8121 121.673 63.8121 120.534C63.8121 119.396 63.9894 118.378 64.3441 117.482C64.6987 116.586 65.1747 115.83 65.7721 115.214C66.3881 114.598 67.0881 114.132 67.8721 113.814C68.6561 113.478 69.4774 113.31 70.3361 113.31C71.1947 113.31 72.0161 113.478 72.8001 113.814C73.6027 114.132 74.3027 114.598 74.9001 115.214C75.4974 115.83 75.9734 116.586 76.3281 117.482C76.7014 118.378 76.8881 119.396 76.8881 120.534C76.8881 121.673 76.7014 122.69 76.3281 123.586C75.9734 124.482 75.4974 125.238 74.9001 125.854C74.3027 126.47 73.6027 126.937 72.8001 127.254C72.0161 127.572 71.1947 127.73 70.3361 127.73ZM70.3361 125.098C71.3441 125.098 72.1374 124.688 72.7161 123.866C73.2947 123.026 73.5841 121.916 73.5841 120.534C73.5841 119.134 73.2947 118.024 72.7161 117.202C72.1374 116.362 71.3441 115.942 70.3361 115.942C69.3281 115.942 68.5347 116.362 67.9561 117.202C67.3961 118.024 67.1161 119.134 67.1161 120.534C67.1161 121.916 67.3961 123.026 67.9561 123.866C68.5347 124.688 69.3281 125.098 70.3361 125.098ZM80.0753 127.394V113.646H82.7353L82.9593 116.082H83.0713C83.5566 115.186 84.1446 114.505 84.8353 114.038C85.5259 113.553 86.2353 113.31 86.9633 113.31C87.6166 113.31 88.1393 113.404 88.5313 113.59L87.9713 116.39C87.7286 116.316 87.5046 116.26 87.2993 116.222C87.0939 116.185 86.8419 116.166 86.5433 116.166C86.0019 116.166 85.4326 116.381 84.8353 116.81C84.2379 117.221 83.7246 117.949 83.2953 118.994V127.394H80.0753ZM90.5206 127.394V113.646H93.7406V127.394H90.5206ZM92.1446 111.238C91.5659 111.238 91.0899 111.07 90.7166 110.734C90.3432 110.398 90.1566 109.96 90.1566 109.418C90.1566 108.877 90.3432 108.438 90.7166 108.102C91.0899 107.748 91.5659 107.57 92.1446 107.57C92.7232 107.57 93.1992 107.748 93.5726 108.102C93.9459 108.438 94.1326 108.877 94.1326 109.418C94.1326 109.96 93.9459 110.398 93.5726 110.734C93.1992 111.07 92.7232 111.238 92.1446 111.238ZM102.693 127.73C101.89 127.73 101.209 127.609 100.649 127.366C100.107 127.124 99.6594 126.788 99.3047 126.358C98.9687 125.91 98.7167 125.388 98.5487 124.79C98.3994 124.174 98.3247 123.493 98.3247 122.746V116.194H96.3647V113.786L98.4927 113.646L98.8847 109.894H101.573V113.646H105.073V116.194H101.573V122.746C101.573 124.352 102.217 125.154 103.505 125.154C103.747 125.154 103.99 125.126 104.233 125.07C104.494 125.014 104.727 124.94 104.933 124.846L105.493 127.226C105.119 127.357 104.69 127.469 104.205 127.562C103.738 127.674 103.234 127.73 102.693 127.73ZM113.408 127.73C112.456 127.73 111.57 127.572 110.748 127.254C109.927 126.918 109.208 126.442 108.592 125.826C107.976 125.21 107.491 124.464 107.136 123.586C106.8 122.69 106.632 121.673 106.632 120.534C106.632 119.414 106.81 118.406 107.164 117.51C107.519 116.614 107.986 115.858 108.564 115.242C109.162 114.626 109.843 114.15 110.608 113.814C111.374 113.478 112.158 113.31 112.96 113.31C113.894 113.31 114.715 113.469 115.424 113.786C116.134 114.104 116.722 114.552 117.188 115.13C117.674 115.709 118.038 116.4 118.28 117.202C118.523 118.005 118.644 118.882 118.644 119.834C118.644 120.152 118.626 120.45 118.588 120.73C118.57 121.01 118.542 121.234 118.504 121.402H109.768C109.918 122.634 110.347 123.586 111.056 124.258C111.784 124.912 112.708 125.238 113.828 125.238C114.426 125.238 114.976 125.154 115.48 124.986C116.003 124.8 116.516 124.548 117.02 124.23L118.112 126.246C117.459 126.676 116.731 127.03 115.928 127.31C115.126 127.59 114.286 127.73 113.408 127.73ZM109.74 119.218H115.844C115.844 118.154 115.611 117.324 115.144 116.726C114.696 116.11 113.996 115.802 113.044 115.802C112.223 115.802 111.504 116.092 110.888 116.67C110.272 117.249 109.89 118.098 109.74 119.218ZM125.556 127.73C124.604 127.73 123.661 127.553 122.728 127.198C121.813 126.825 121.02 126.368 120.348 125.826L121.86 123.754C122.476 124.24 123.082 124.622 123.68 124.902C124.296 125.164 124.958 125.294 125.668 125.294C126.414 125.294 126.965 125.145 127.32 124.846C127.674 124.529 127.852 124.128 127.852 123.642C127.852 123.362 127.768 123.12 127.6 122.914C127.432 122.69 127.208 122.494 126.928 122.326C126.648 122.158 126.33 122.009 125.976 121.878C125.621 121.729 125.266 121.58 124.912 121.43C124.464 121.262 124.006 121.066 123.54 120.842C123.073 120.618 122.653 120.348 122.28 120.03C121.925 119.713 121.626 119.349 121.384 118.938C121.16 118.509 121.048 118.005 121.048 117.426C121.048 116.213 121.496 115.224 122.392 114.458C123.288 113.693 124.51 113.31 126.06 113.31C127.012 113.31 127.87 113.478 128.636 113.814C129.401 114.15 130.064 114.533 130.624 114.962L129.14 116.922C128.654 116.568 128.16 116.288 127.656 116.082C127.17 115.858 126.657 115.746 126.116 115.746C125.425 115.746 124.912 115.896 124.576 116.194C124.258 116.474 124.1 116.829 124.1 117.258C124.1 117.538 124.174 117.781 124.324 117.986C124.492 118.173 124.706 118.341 124.968 118.49C125.229 118.64 125.528 118.78 125.864 118.91C126.218 119.041 126.582 119.172 126.956 119.302C127.422 119.47 127.889 119.666 128.356 119.89C128.822 120.096 129.242 120.357 129.616 120.674C130.008 120.992 130.316 121.384 130.54 121.85C130.782 122.298 130.904 122.84 130.904 123.474C130.904 124.072 130.782 124.632 130.54 125.154C130.316 125.658 129.98 126.106 129.532 126.498C129.084 126.872 128.524 127.17 127.852 127.394C127.18 127.618 126.414 127.73 125.556 127.73Z"
              fill="#323C56"/>
    </g>
    <g filter="url(#filter2_d)">
        <path d="M139.838 15.3625C139.462 14.4926 138.921 13.7043 138.243 13.0417C137.565 12.3772 136.766 11.8491 135.889 11.4861C134.979 11.1083 134.004 10.9149 133.019 10.9171C131.637 10.9171 130.289 11.2955 129.117 12.0102C128.837 12.1812 128.571 12.369 128.318 12.5736C128.066 12.369 127.8 12.1812 127.52 12.0102C126.348 11.2955 125 10.9171 123.618 10.9171C122.623 10.9171 121.659 11.1077 120.748 11.4861C119.868 11.8505 119.074 12.3746 118.393 13.0417C117.715 13.7035 117.173 14.492 116.799 15.3625C116.409 16.2678 116.21 17.2292 116.21 18.2186C116.21 19.1519 116.401 20.1245 116.779 21.1139C117.096 21.9408 117.55 22.7985 118.13 23.6645C119.049 25.0351 120.313 26.4646 121.883 27.9137C124.484 30.3157 127.06 31.975 127.169 32.0423L127.833 32.4683C128.128 32.6561 128.506 32.6561 128.8 32.4683L129.465 32.0423C129.574 31.9722 132.147 30.3157 134.751 27.9137C136.32 26.4646 137.585 25.0351 138.504 23.6645C139.084 22.7985 139.541 21.9408 139.855 21.1139C140.233 20.1245 140.424 19.1519 140.424 18.2186C140.427 17.2292 140.228 16.2678 139.838 15.3625ZM128.318 30.2513C128.318 30.2513 118.34 23.8579 118.34 18.2186C118.34 15.3625 120.703 13.0473 123.618 13.0473C125.667 13.0473 127.444 14.1909 128.318 15.8614C129.193 14.1909 130.97 13.0473 133.019 13.0473C135.934 13.0473 138.297 15.3625 138.297 18.2186C138.297 23.8579 128.318 30.2513 128.318 30.2513Z"
              fill="#323C56"/>
    </g>
    <g filter="url(#filter3_d)">
        <path fill-rule="evenodd" clip-rule="evenodd"
              d="M128.317 18.2334L127.431 16.541C126.726 15.1944 125.287 14.2632 123.617 14.2632C121.235 14.2632 119.339 16.1497 119.339 18.4345C119.339 19.5605 119.844 20.8197 120.728 22.136C121.604 23.4396 122.79 24.7079 124.006 25.8308C125.218 26.9499 126.435 27.9015 127.35 28.5743C127.735 28.8569 128.065 29.0892 128.317 29.263C128.569 29.0892 128.899 28.8569 129.284 28.5743C130.199 27.9015 131.416 26.9499 132.628 25.8308C133.844 24.7079 135.03 23.4396 135.906 22.136C136.79 20.8197 137.295 19.5605 137.295 18.4345C137.295 16.1497 135.399 14.2632 133.017 14.2632C131.347 14.2632 129.908 15.1944 129.203 16.541L128.317 18.2334Z"
              fill="#A01616"/>
    </g>
    <path d="M119.653 37.6482C119.461 36.5604 118.424 35.8341 117.336 36.0259L99.6093 39.1515C98.5215 39.3433 97.7951 40.3806 97.9869 41.4684C98.1787 42.5562 99.2161 43.2826 100.304 43.0908L116.061 40.3124L118.839 56.0693C119.031 57.1571 120.068 57.8834 121.156 57.6916C122.244 57.4998 122.97 56.4625 122.778 55.3747L119.653 37.6482ZM100.01 66.7216L119.321 39.1426L116.045 36.8483L96.7338 64.4273L100.01 66.7216Z"
          fill="#323C56"/>
    <defs>
        <filter id="filter0_d" x="0.993164" y="0.845825" width="154"
                height="199" filterUnits="userSpaceOnUse"
                color-interpolation-filters="sRGB">
            <feFlood flood-opacity="0" result="BackgroundImageFix"/>
            <feColorMatrix in="SourceAlpha" type="matrix"
                           values="0 0 0 0 0 0 0 0 0 0 0 0 0 0 0 0 0 0 127 0"/>
            <feOffset dx="2" dy="2"/>
            <feGaussianBlur stdDeviation="1"/>
            <feColorMatrix type="matrix"
                           values="0 0 0 0 0 0 0 0 0 0 0 0 0 0 0 0 0 0 0.25 0"/>
            <feBlend mode="normal" in2="BackgroundImageFix"
                     result="effect1_dropShadow"/>
            <feBlend mode="normal" in="SourceGraphic" in2="effect1_dropShadow"
                     result="shape"/>
        </filter>
        <filter id="filter1_d" x="23.5898" y="79.6262" width="111.314"
                height="52.104" filterUnits="userSpaceOnUse"
                color-interpolation-filters="sRGB">
            <feFlood flood-opacity="0" result="BackgroundImageFix"/>
            <feColorMatrix in="SourceAlpha" type="matrix"
                           values="0 0 0 0 0 0 0 0 0 0 0 0 0 0 0 0 0 0 127 0"/>
            <feOffset dx="2" dy="2"/>
            <feGaussianBlur stdDeviation="1"/>
            <feColorMatrix type="matrix"
                           values="0 0 0 0 0 0 0 0 0 0 0 0 0 0 0 0 0 0 0.25 0"/>
            <feBlend mode="normal" in2="BackgroundImageFix"
                     result="effect1_dropShadow"/>
            <feBlend mode="normal" in="SourceGraphic" in2="effect1_dropShadow"
                     result="shape"/>
        </filter>
        <filter id="filter2_d" x="116.21" y="10.9171" width="28.2139"
                height="25.6921" filterUnits="userSpaceOnUse"
                color-interpolation-filters="sRGB">
            <feFlood flood-opacity="0" result="BackgroundImageFix"/>
            <feColorMatrix in="SourceAlpha" type="matrix"
                           values="0 0 0 0 0 0 0 0 0 0 0 0 0 0 0 0 0 0 127 0"/>
            <feOffset dx="2" dy="2"/>
            <feGaussianBlur stdDeviation="1"/>
            <feColorMatrix type="matrix"
                           values="0 0 0 0 0 0 0 0 0 0 0 0 0 0 0 0 0 0 0.25 0"/>
            <feBlend mode="normal" in2="BackgroundImageFix"
                     result="effect1_dropShadow"/>
            <feBlend mode="normal" in="SourceGraphic" in2="effect1_dropShadow"
                     result="shape"/>
        </filter>
        <filter id="filter3_d" x="119.339" y="14.2632" width="21.9564"
                height="18.9998" filterUnits="userSpaceOnUse"
                color-interpolation-filters="sRGB">
            <feFlood flood-opacity="0" result="BackgroundImageFix"/>
            <feColorMatrix in="SourceAlpha" type="matrix"
                           values="0 0 0 0 0 0 0 0 0 0 0 0 0 0 0 0 0 0 127 0"/>
            <feOffset dx="2" dy="2"/>
            <feGaussianBlur stdDeviation="1"/>
            <feColorMatrix type="matrix"
                           values="0 0 0 0 0 0 0 0 0 0 0 0 0 0 0 0 0 0 0.25 0"/>
            <feBlend mode="normal" in2="BackgroundImageFix"
                     result="effect1_dropShadow"/>
            <feBlend mode="normal" in="SourceGraphic" in2="effect1_dropShadow"
                     result="shape"/>
        </filter>
        <linearGradient id="paint0_linear" x1="2.19766" y1="4.64063"
                        x2="141.139" y2="199.294"
                        gradientUnits="userSpaceOnUse">
            <stop stop-color="#EEECE8"/>
            <stop offset="1" stop-color="#EEECE8"/>
        </linearGradient>
    </defs>
</svg>
