<svg width="159" height="202" viewBox="0 0 159 202" fill="none"
     xmlns="http://www.w3.org/2000/svg">
    <g id="emtyDeckCard">
        <g id="DeckCard">
            <g id="background">
                <g id="Subtract" filter="url(#filter0_d)">
                    <path d="M13.5291 0.512939C12.1011 0.512939 10.7381 0.796399 9.49455 1.31051L9.68558 1.77258C7.2286 2.78833 5.26299 4.74863 4.24345 7.19971L3.7818 7.00768C3.26469 8.25086 2.97949 9.61386 2.97949 11.0421V22.0115H3.47949V43.9502H2.97949V65.889H3.47949V87.8277H2.97949V109.767H3.47949V131.705H2.97949V153.644H3.47949V175.583H2.97949V186.552C2.97949 187.508 3.10725 188.435 3.34695 189.316L3.82943 189.185C4.30475 190.933 5.24183 192.492 6.5019 193.722L6.15262 194.08C6.81758 194.729 7.56834 195.291 8.38646 195.748C8.66167 195.901 8.94622 196.026 9.23624 196.126L9.40001 195.654C9.92881 195.837 10.4864 195.936 11.0511 195.981L11.0112 196.48C11.3069 196.503 11.6023 196.513 11.8941 196.513H23.0048V196.013H45.2261V196.513H67.4473V196.013H89.6686V196.513H111.89V196.013H134.111V196.513H145.222C145.514 196.513 145.809 196.503 146.105 196.48L146.065 195.981C146.629 195.936 147.187 195.837 147.716 195.654L147.88 196.127C148.17 196.026 148.454 195.901 148.729 195.748C149.342 195.406 149.916 195.005 150.446 194.553L150.121 194.172C151.13 193.309 151.967 192.25 152.57 191.053L153.016 191.279C153.328 190.66 153.581 190.006 153.767 189.325C153.81 189.166 153.845 189.007 153.873 188.849L153.38 188.762C153.432 188.472 153.459 188.177 153.471 187.882L153.97 187.903C153.977 187.747 153.979 187.593 153.979 187.44V176.359H153.479V154.199H153.979V132.038H153.479V109.877H153.979V87.7168H153.479V65.5562H153.979V43.3956H153.479V21.235H153.979V10.1547C153.979 10.0017 153.977 9.8471 153.97 9.69157L153.471 9.71235C153.459 9.41706 153.432 9.12277 153.38 8.83269L153.873 8.74582C153.845 8.58704 153.81 8.42798 153.767 8.26934C153.46 7.14637 152.973 6.09832 152.337 5.15854L151.923 5.43863C150.703 3.6345 148.91 2.24781 146.805 1.53816L146.965 1.06435C145.903 0.706647 144.767 0.512939 143.587 0.512939H132.749V1.01294H111.072V0.512939H89.3961V1.01294H67.7198V0.512939H46.0435V1.01294H24.3673V0.512939H13.5291Z"
                          stroke="#323C56" stroke-dasharray="20 20"/>
                </g>
            </g>
            <g id="heartOutline" filter="url(#filter1_d)">
                <path d="M139.659 19.4454C139.284 18.5755 138.742 17.7872 138.065 17.1246C137.387 16.46 136.587 15.9319 135.71 15.569C134.801 15.1912 133.825 14.9978 132.84 15C131.458 15 130.11 15.3784 128.938 16.0931C128.658 16.2641 128.392 16.4519 128.14 16.6565C127.887 16.4519 127.621 16.2641 127.341 16.0931C126.169 15.3784 124.821 15 123.439 15C122.444 15 121.48 15.1906 120.569 15.569C119.689 15.9334 118.896 16.4575 118.215 17.1246C117.536 17.7864 116.995 18.5749 116.62 19.4454C116.23 20.3507 116.031 21.3121 116.031 22.3015C116.031 23.2348 116.222 24.2074 116.6 25.1968C116.917 26.0237 117.371 26.8813 117.951 27.7474C118.871 29.118 120.135 30.5475 121.704 31.9966C124.305 34.3986 126.881 36.0579 126.99 36.1252L127.655 36.5512C127.949 36.739 128.327 36.739 128.622 36.5512L129.286 36.1252C129.395 36.0551 131.968 34.3986 134.572 31.9966C136.142 30.5475 137.406 29.118 138.325 27.7474C138.905 26.8813 139.362 26.0237 139.676 25.1968C140.055 24.2074 140.245 23.2348 140.245 22.3015C140.248 21.3121 140.049 20.3507 139.659 19.4454Z"
                      fill="#323C56"/>
                <path d="M139.659 19.4454C139.284 18.5755 138.742 17.7872 138.065 17.1246C137.387 16.46 136.587 15.9319 135.71 15.569C134.801 15.1912 133.825 14.9978 132.84 15C131.458 15 130.11 15.3784 128.938 16.0931C128.658 16.2641 128.392 16.4519 128.14 16.6565C127.887 16.4519 127.621 16.2641 127.341 16.0931C126.169 15.3784 124.821 15 123.439 15C122.444 15 121.48 15.1906 120.569 15.569C119.689 15.9334 118.896 16.4575 118.215 17.1246C117.536 17.7864 116.995 18.5749 116.62 19.4454C116.23 20.3507 116.031 21.3121 116.031 22.3015C116.031 23.2348 116.222 24.2074 116.6 25.1968C116.917 26.0237 117.371 26.8813 117.951 27.7474C118.871 29.118 120.135 30.5475 121.704 31.9966C124.305 34.3986 126.881 36.0579 126.99 36.1252L127.655 36.5512C127.949 36.739 128.327 36.739 128.622 36.5512L129.286 36.1252C129.395 36.0551 131.968 34.3986 134.572 31.9966C136.142 30.5475 137.406 29.118 138.325 27.7474C138.905 26.8813 139.362 26.0237 139.676 25.1968C140.055 24.2074 140.245 23.2348 140.245 22.3015C140.248 21.3121 140.049 20.3507 139.659 19.4454Z"
                      stroke="url(#heart_outline)" stroke-width="3"/>
            </g>
            <g id="heartButton" style="mix-blend-mode:multiply">
                <circle cx="130.237" cy="24.5" r="24.5" fill="white"/>
            </g>
        </g>
        <g id="Add Favorites" filter="url(#filter2_d)">
            <path d="M58.2118 91.2594L57.5678 93.4994H62.2438L61.5998 91.2594C61.3012 90.2888 61.0118 89.2901 60.7318 88.2634C60.4705 87.2368 60.2092 86.2194 59.9478 85.2114H59.8358C59.5745 86.2381 59.3132 87.2648 59.0518 88.2914C58.7905 89.2994 58.5105 90.2888 58.2118 91.2594ZM52.0798 101.003L58.0438 82.6914H61.8518L67.8158 101.003H64.3998L62.9718 96.0474H56.8118L55.3838 101.003H52.0798ZM74.6091 101.339C72.8731 101.339 71.4918 100.714 70.4651 99.4634C69.4571 98.1941 68.9531 96.4208 68.9531 94.1434C68.9531 93.0234 69.1118 92.0154 69.4291 91.1194C69.7651 90.2234 70.2038 89.4674 70.7451 88.8514C71.2865 88.2354 71.9025 87.7594 72.5931 87.4234C73.3025 87.0874 74.0305 86.9194 74.7771 86.9194C75.5611 86.9194 76.2238 87.0594 76.7651 87.3394C77.3065 87.6008 77.8478 87.9648 78.3891 88.4314L78.2771 86.2194V81.2354H81.4971V101.003H78.8371L78.6131 99.5194H78.5011C77.9971 100.023 77.4091 100.453 76.7371 100.807C76.0651 101.162 75.3558 101.339 74.6091 101.339ZM75.3931 98.6794C76.4198 98.6794 77.3811 98.1661 78.2771 97.1394V90.7274C77.7918 90.2981 77.3158 89.9994 76.8491 89.8314C76.4011 89.6634 75.9438 89.5794 75.4771 89.5794C74.5811 89.5794 73.8251 89.9714 73.2091 90.7554C72.5931 91.5394 72.2851 92.6594 72.2851 94.1154C72.2851 95.6088 72.5465 96.7474 73.0691 97.5314C73.6105 98.2968 74.3851 98.6794 75.3931 98.6794ZM90.4138 101.339C88.6778 101.339 87.2965 100.714 86.2698 99.4634C85.2618 98.1941 84.7578 96.4208 84.7578 94.1434C84.7578 93.0234 84.9165 92.0154 85.2338 91.1194C85.5698 90.2234 86.0085 89.4674 86.5498 88.8514C87.0911 88.2354 87.7071 87.7594 88.3978 87.4234C89.1071 87.0874 89.8351 86.9194 90.5818 86.9194C91.3658 86.9194 92.0285 87.0594 92.5698 87.3394C93.1111 87.6008 93.6525 87.9648 94.1938 88.4314L94.0818 86.2194V81.2354H97.3018V101.003H94.6418L94.4178 99.5194H94.3058C93.8018 100.023 93.2138 100.453 92.5418 100.807C91.8698 101.162 91.1605 101.339 90.4138 101.339ZM91.1978 98.6794C92.2245 98.6794 93.1858 98.1661 94.0818 97.1394V90.7274C93.5965 90.2981 93.1205 89.9994 92.6538 89.8314C92.2058 89.6634 91.7485 89.5794 91.2818 89.5794C90.3858 89.5794 89.6298 89.9714 89.0138 90.7554C88.3978 91.5394 88.0898 92.6594 88.0898 94.1154C88.0898 95.6088 88.3511 96.7474 88.8738 97.5314C89.4151 98.2968 90.1898 98.6794 91.1978 98.6794ZM25.6395 129.003V110.691H36.6995V113.435H28.8875V118.615H35.5515V121.359H28.8875V129.003H25.6395ZM41.9532 129.339C40.7399 129.339 39.7599 128.975 39.0132 128.247C38.2666 127.501 37.8932 126.521 37.8932 125.307C37.8932 124.579 38.0426 123.935 38.3412 123.375C38.6586 122.797 39.1439 122.302 39.7972 121.891C40.4692 121.481 41.3092 121.135 42.3172 120.855C43.3439 120.575 44.5666 120.361 45.9852 120.211C45.9666 119.857 45.9106 119.521 45.8172 119.203C45.7426 118.867 45.6026 118.578 45.3972 118.335C45.2106 118.074 44.9586 117.878 44.6412 117.747C44.3239 117.598 43.9319 117.523 43.4652 117.523C42.7932 117.523 42.1306 117.654 41.4772 117.915C40.8426 118.177 40.2172 118.494 39.6012 118.867L38.4252 116.711C39.1906 116.226 40.0492 115.806 41.0012 115.451C41.9532 115.097 42.9799 114.919 44.0812 114.919C45.7986 114.919 47.0772 115.433 47.9172 116.459C48.7759 117.467 49.2052 118.933 49.2052 120.855V129.003H46.5452L46.3212 127.491H46.2092C45.5932 128.014 44.9306 128.453 44.2212 128.807C43.5306 129.162 42.7746 129.339 41.9532 129.339ZM42.9892 126.819C43.5492 126.819 44.0532 126.689 44.5012 126.427C44.9679 126.166 45.4626 125.793 45.9852 125.307V122.227C45.0519 122.339 44.2679 122.489 43.6332 122.675C42.9986 122.862 42.4852 123.077 42.0932 123.319C41.7012 123.543 41.4212 123.805 41.2532 124.103C41.0852 124.402 41.0012 124.719 41.0012 125.055C41.0012 125.671 41.1879 126.119 41.5612 126.399C41.9346 126.679 42.4106 126.819 42.9892 126.819ZM56.1387 129.003L51.3507 115.255H54.6267L56.8107 122.395C56.9974 123.067 57.1841 123.749 57.3707 124.439C57.5761 125.13 57.7721 125.83 57.9587 126.539H58.0707C58.2761 125.83 58.4721 125.13 58.6587 124.439C58.8454 123.749 59.0414 123.067 59.2467 122.395L61.4307 115.255H64.5387L59.8627 129.003H56.1387ZM72.386 129.339C71.5273 129.339 70.706 129.181 69.922 128.863C69.138 128.546 68.438 128.079 67.822 127.463C67.2246 126.847 66.7486 126.091 66.394 125.195C66.0393 124.299 65.862 123.282 65.862 122.143C65.862 121.005 66.0393 119.987 66.394 119.091C66.7486 118.195 67.2246 117.439 67.822 116.823C68.438 116.207 69.138 115.741 69.922 115.423C70.706 115.087 71.5273 114.919 72.386 114.919C73.2446 114.919 74.066 115.087 74.85 115.423C75.6526 115.741 76.3526 116.207 76.95 116.823C77.5473 117.439 78.0233 118.195 78.378 119.091C78.7513 119.987 78.938 121.005 78.938 122.143C78.938 123.282 78.7513 124.299 78.378 125.195C78.0233 126.091 77.5473 126.847 76.95 127.463C76.3526 128.079 75.6526 128.546 74.85 128.863C74.066 129.181 73.2446 129.339 72.386 129.339ZM72.386 126.707C73.394 126.707 74.1873 126.297 74.766 125.475C75.3446 124.635 75.634 123.525 75.634 122.143C75.634 120.743 75.3446 119.633 74.766 118.811C74.1873 117.971 73.394 117.551 72.386 117.551C71.378 117.551 70.5846 117.971 70.006 118.811C69.446 119.633 69.166 120.743 69.166 122.143C69.166 123.525 69.446 124.635 70.006 125.475C70.5846 126.297 71.378 126.707 72.386 126.707ZM82.1252 129.003V115.255H84.7852L85.0092 117.691H85.1212C85.6065 116.795 86.1945 116.114 86.8852 115.647C87.5758 115.162 88.2852 114.919 89.0132 114.919C89.6665 114.919 90.1892 115.013 90.5812 115.199L90.0212 117.999C89.7785 117.925 89.5545 117.869 89.3492 117.831C89.1438 117.794 88.8918 117.775 88.5932 117.775C88.0518 117.775 87.4825 117.99 86.8852 118.419C86.2878 118.83 85.7745 119.558 85.3452 120.603V129.003H82.1252ZM92.5705 129.003V115.255H95.7905V129.003H92.5705ZM94.1945 112.847C93.6158 112.847 93.1398 112.679 92.7665 112.343C92.3931 112.007 92.2065 111.569 92.2065 111.027C92.2065 110.486 92.3931 110.047 92.7665 109.711C93.1398 109.357 93.6158 109.179 94.1945 109.179C94.7731 109.179 95.2491 109.357 95.6225 109.711C95.9958 110.047 96.1825 110.486 96.1825 111.027C96.1825 111.569 95.9958 112.007 95.6225 112.343C95.2491 112.679 94.7731 112.847 94.1945 112.847ZM104.743 129.339C103.94 129.339 103.259 129.218 102.699 128.975C102.157 128.733 101.709 128.397 101.355 127.967C101.019 127.519 100.767 126.997 100.599 126.399C100.449 125.783 100.375 125.102 100.375 124.355V117.803H98.4146V115.395L100.543 115.255L100.935 111.503H103.623V115.255H107.123V117.803H103.623V124.355C103.623 125.961 104.267 126.763 105.555 126.763C105.797 126.763 106.04 126.735 106.283 126.679C106.544 126.623 106.777 126.549 106.983 126.455L107.543 128.835C107.169 128.966 106.74 129.078 106.255 129.171C105.788 129.283 105.284 129.339 104.743 129.339ZM115.458 129.339C114.506 129.339 113.62 129.181 112.798 128.863C111.977 128.527 111.258 128.051 110.642 127.435C110.026 126.819 109.541 126.073 109.186 125.195C108.85 124.299 108.682 123.282 108.682 122.143C108.682 121.023 108.86 120.015 109.214 119.119C109.569 118.223 110.036 117.467 110.614 116.851C111.212 116.235 111.893 115.759 112.658 115.423C113.424 115.087 114.208 114.919 115.01 114.919C115.944 114.919 116.765 115.078 117.474 115.395C118.184 115.713 118.772 116.161 119.238 116.739C119.724 117.318 120.088 118.009 120.33 118.811C120.573 119.614 120.694 120.491 120.694 121.443C120.694 121.761 120.676 122.059 120.638 122.339C120.62 122.619 120.592 122.843 120.554 123.011H111.818C111.968 124.243 112.397 125.195 113.106 125.867C113.834 126.521 114.758 126.847 115.878 126.847C116.476 126.847 117.026 126.763 117.53 126.595C118.053 126.409 118.566 126.157 119.07 125.839L120.162 127.855C119.509 128.285 118.781 128.639 117.978 128.919C117.176 129.199 116.336 129.339 115.458 129.339ZM111.79 120.827H117.894C117.894 119.763 117.661 118.933 117.194 118.335C116.746 117.719 116.046 117.411 115.094 117.411C114.273 117.411 113.554 117.701 112.938 118.279C112.322 118.858 111.94 119.707 111.79 120.827ZM127.606 129.339C126.654 129.339 125.711 129.162 124.778 128.807C123.863 128.434 123.07 127.977 122.398 127.435L123.91 125.363C124.526 125.849 125.132 126.231 125.73 126.511C126.346 126.773 127.008 126.903 127.718 126.903C128.464 126.903 129.015 126.754 129.37 126.455C129.724 126.138 129.902 125.737 129.902 125.251C129.902 124.971 129.818 124.729 129.65 124.523C129.482 124.299 129.258 124.103 128.978 123.935C128.698 123.767 128.38 123.618 128.026 123.487C127.671 123.338 127.316 123.189 126.962 123.039C126.514 122.871 126.056 122.675 125.59 122.451C125.123 122.227 124.703 121.957 124.33 121.639C123.975 121.322 123.676 120.958 123.434 120.547C123.21 120.118 123.098 119.614 123.098 119.035C123.098 117.822 123.546 116.833 124.442 116.067C125.338 115.302 126.56 114.919 128.11 114.919C129.062 114.919 129.92 115.087 130.686 115.423C131.451 115.759 132.114 116.142 132.674 116.571L131.19 118.531C130.704 118.177 130.21 117.897 129.706 117.691C129.22 117.467 128.707 117.355 128.166 117.355C127.475 117.355 126.962 117.505 126.626 117.803C126.308 118.083 126.15 118.438 126.15 118.867C126.15 119.147 126.224 119.39 126.374 119.595C126.542 119.782 126.756 119.95 127.018 120.099C127.279 120.249 127.578 120.389 127.914 120.519C128.268 120.65 128.632 120.781 129.006 120.911C129.472 121.079 129.939 121.275 130.406 121.499C130.872 121.705 131.292 121.966 131.666 122.283C132.058 122.601 132.366 122.993 132.59 123.459C132.832 123.907 132.954 124.449 132.954 125.083C132.954 125.681 132.832 126.241 132.59 126.763C132.366 127.267 132.03 127.715 131.582 128.107C131.134 128.481 130.574 128.779 129.902 129.003C129.23 129.227 128.464 129.339 127.606 129.339Z"
                  fill="#323C56"/>
        </g>
        <g id="Arrow 4" filter="url(#filter3_d)">
            <path d="M113.216 42.6221C113.024 41.5343 111.987 40.8079 110.899 40.9997L93.1727 44.1254C92.0849 44.3172 91.3586 45.3545 91.5504 46.4423C91.7422 47.5301 92.7795 48.2564 93.8673 48.0646L109.624 45.2863L112.403 61.0432C112.594 62.131 113.632 62.8573 114.72 62.6655C115.807 62.4737 116.534 61.4364 116.342 60.3486L113.216 42.6221ZM93.5739 71.6955L112.885 44.1165L109.608 41.8222L90.2972 69.4012L93.5739 71.6955Z"
                  fill="#323C56"/>
        </g>
        <g id="Vector 16" filter="url(#filter4_d)">
            <path d="M108.955 46.1678L91.7131 70.8424" stroke="#323C56"
                  stroke-width="4" stroke-linecap="round"/>
        </g>
    </g>
    <defs>
        <filter id="filter0_d" x="2.47949" y="0.0129395" width="156"
                height="201" filterUnits="userSpaceOnUse"
                color-interpolation-filters="sRGB">
            <feFlood flood-opacity="0" result="BackgroundImageFix"/>
            <feColorMatrix in="SourceAlpha" type="matrix"
                           values="0 0 0 0 0 0 0 0 0 0 0 0 0 0 0 0 0 0 127 0"/>
            <feOffset dx="2" dy="2"/>
            <feGaussianBlur stdDeviation="1"/>
            <feColorMatrix type="matrix"
                           values="0 0 0 0 0 0 0 0 0 0 0 0 0 0 0 0 0 0 0.25 0"/>
            <feBlend mode="normal" in2="BackgroundImageFix"
                     result="effect1_dropShadow"/>
            <feBlend mode="normal" in="SourceGraphic" in2="effect1_dropShadow"
                     result="shape"/>
        </filter>
        <filter id="filter1_d" x="114.531" y="13.5" width="31.2139"
                height="28.6921" filterUnits="userSpaceOnUse"
                color-interpolation-filters="sRGB">
            <feFlood flood-opacity="0" result="BackgroundImageFix"/>
            <feColorMatrix in="SourceAlpha" type="matrix"
                           values="0 0 0 0 0 0 0 0 0 0 0 0 0 0 0 0 0 0 127 0"/>
            <feOffset dx="2" dy="2"/>
            <feGaussianBlur stdDeviation="1"/>
            <feColorMatrix type="matrix"
                           values="0 0 0 0 0 0 0 0 0 0 0 0 0 0 0 0 0 0 0.25 0"/>
            <feBlend mode="normal" in2="BackgroundImageFix"
                     result="effect1_dropShadow"/>
            <feBlend mode="normal" in="SourceGraphic" in2="effect1_dropShadow"
                     result="shape"/>
        </filter>
        <filter id="filter2_d" x="25.6396" y="81.2354" width="111.314"
                height="52.104" filterUnits="userSpaceOnUse"
                color-interpolation-filters="sRGB">
            <feFlood flood-opacity="0" result="BackgroundImageFix"/>
            <feColorMatrix in="SourceAlpha" type="matrix"
                           values="0 0 0 0 0 0 0 0 0 0 0 0 0 0 0 0 0 0 127 0"/>
            <feOffset dx="2" dy="2"/>
            <feGaussianBlur stdDeviation="1"/>
            <feColorMatrix type="matrix"
                           values="0 0 0 0 0 0 0 0 0 0 0 0 0 0 0 0 0 0 0.25 0"/>
            <feBlend mode="normal" in2="BackgroundImageFix"
                     result="effect1_dropShadow"/>
            <feBlend mode="normal" in="SourceGraphic" in2="effect1_dropShadow"
                     result="shape"/>
        </filter>
        <filter id="filter3_d" x="90.2969" y="40.969" width="30.0753"
                height="34.7265" filterUnits="userSpaceOnUse"
                color-interpolation-filters="sRGB">
            <feFlood flood-opacity="0" result="BackgroundImageFix"/>
            <feColorMatrix in="SourceAlpha" type="matrix"
                           values="0 0 0 0 0 0 0 0 0 0 0 0 0 0 0 0 0 0 127 0"/>
            <feOffset dx="2" dy="2"/>
            <feGaussianBlur stdDeviation="1"/>
            <feColorMatrix type="matrix"
                           values="0 0 0 0 0 0 0 0 0 0 0 0 0 0 0 0 0 0 0.25 0"/>
            <feBlend mode="normal" in2="BackgroundImageFix"
                     result="effect1_dropShadow"/>
            <feBlend mode="normal" in="SourceGraphic" in2="effect1_dropShadow"
                     result="shape"/>
        </filter>
        <filter id="filter4_d" x="89.7129" y="44.1677" width="25.2422"
                height="32.675" filterUnits="userSpaceOnUse"
                color-interpolation-filters="sRGB">
            <feFlood flood-opacity="0" result="BackgroundImageFix"/>
            <feColorMatrix in="SourceAlpha" type="matrix"
                           values="0 0 0 0 0 0 0 0 0 0 0 0 0 0 0 0 0 0 127 0"/>
            <feOffset dx="2" dy="2"/>
            <feGaussianBlur stdDeviation="1"/>
            <feColorMatrix type="matrix"
                           values="0 0 0 0 0 0 0 0 0 0 0 0 0 0 0 0 0 0 0.25 0"/>
            <feBlend mode="normal" in2="BackgroundImageFix"
                     result="effect1_dropShadow"/>
            <feBlend mode="normal" in="SourceGraphic" in2="effect1_dropShadow"
                     result="shape"/>
        </filter>
        <linearGradient id="heart_outline" x1="118.585" y1="15.2726"
                        x2="135.691" y2="34.4694"
                        gradientUnits="userSpaceOnUse">
            <stop stop-color="#E94747" stop-opacity="0.59"/>
            <stop offset="1" stop-color="#F30E0E" stop-opacity="0.74"/>
        </linearGradient>
    </defs>
</svg>
