<svg width="157" height="202" viewBox="0 0 157 202" fill="none"
     xmlns="http://www.w3.org/2000/svg">
    <g id="emtyDeckCard">
        <g id="emptyCardOutline" filter="url(#filter0_d)">
            <path d="M151.631 10.569C151.631 10.4161 151.628 10.2614 151.622 10.1059L151.122 10.1267C151.11 9.83136 151.083 9.53708 151.032 9.24699L151.524 9.16013C151.496 9.00135 151.461 8.84228 151.418 8.68365C151.112 7.56068 150.624 6.51263 149.988 5.57284L149.574 5.85294C148.354 4.04881 146.561 2.66211 144.456 1.95246L144.616 1.47866C143.555 1.12095 142.419 0.927246 141.238 0.927246H130.4V1.42725H108.724V0.927246H87.0475V1.42725H65.3712V0.927246H43.6949V1.42725H22.0186V0.927246H11.1805C9.75245 0.927246 8.38948 1.21071 7.14592 1.72481L7.33694 2.18688C4.87997 3.20263 2.91436 5.16294 1.89482 7.61402L1.43316 7.42199C0.916056 8.66517 0.630859 10.0282 0.630859 11.4564V22.4258H1.13086V44.3645H0.630859V66.3033H1.13086V88.2421H0.630859V110.181H1.13086V132.12H0.630859V154.058H1.13086V175.997H0.630859V186.966C0.630859 187.922 0.758622 188.849 0.998316 189.731L1.4808 189.6C1.95611 191.348 2.8932 192.906 4.15327 194.136L3.80398 194.494C4.46895 195.143 5.2197 195.705 6.03783 196.162C6.31304 196.316 6.59759 196.44 6.88761 196.541L7.05138 196.068C7.58017 196.252 8.13781 196.35 8.70247 196.395L8.66256 196.894C8.95822 196.918 9.25365 196.927 9.54551 196.927H20.6561V196.427H42.8774V196.927H65.0987V196.427H87.32V196.927H109.541V196.427H131.763V196.927H142.873C143.165 196.927 143.46 196.918 143.756 196.894L143.716 196.395C144.281 196.35 144.838 196.252 145.367 196.068L145.531 196.541C145.821 196.44 146.106 196.316 146.381 196.162C146.993 195.82 147.568 195.419 148.097 194.967L147.772 194.587C148.782 193.724 149.618 192.664 150.221 191.468L150.668 191.693C150.98 191.074 151.232 190.421 151.418 189.739C151.461 189.581 151.496 189.422 151.524 189.263L151.032 189.176C151.083 188.886 151.11 188.592 151.122 188.296L151.622 188.317C151.628 188.161 151.631 188.007 151.631 187.854V176.774H151.131V154.613H151.631V132.452H151.131V110.292H151.631V88.1311H151.131V65.9705H151.631V43.8099H151.131V21.6493H151.631V10.569Z"
                  stroke="#323C56" stroke-dasharray="20 20"/>
        </g>
        <g id="Add Favorites" filter="url(#filter1_d)">
            <path d="M55.7928 85.2638L55.1488 87.5038H59.8248L59.1808 85.2638C58.8821 84.2931 58.5928 83.2945 58.3128 82.2678C58.0515 81.2411 57.7901 80.2238 57.5288 79.2158H57.4168C57.1555 80.2425 56.8941 81.2691 56.6328 82.2958C56.3715 83.3038 56.0915 84.2931 55.7928 85.2638ZM49.6608 95.0078L55.6248 76.6958H59.4328L65.3968 95.0078H61.9808L60.5528 90.0518H54.3928L52.9648 95.0078H49.6608ZM72.1901 95.3438C70.4541 95.3438 69.0727 94.7185 68.0461 93.4678C67.0381 92.1985 66.5341 90.4251 66.5341 88.1478C66.5341 87.0278 66.6927 86.0198 67.0101 85.1238C67.3461 84.2278 67.7847 83.4718 68.3261 82.8558C68.8674 82.2398 69.4834 81.7638 70.1741 81.4278C70.8834 81.0918 71.6114 80.9238 72.3581 80.9238C73.1421 80.9238 73.8047 81.0638 74.3461 81.3438C74.8874 81.6051 75.4287 81.9691 75.9701 82.4358L75.8581 80.2238V75.2398H79.0781V95.0078H76.4181L76.1941 93.5238H76.0821C75.5781 94.0278 74.9901 94.4571 74.3181 94.8118C73.6461 95.1665 72.9367 95.3438 72.1901 95.3438ZM72.9741 92.6838C74.0007 92.6838 74.9621 92.1705 75.8581 91.1438V84.7318C75.3727 84.3025 74.8967 84.0038 74.4301 83.8358C73.9821 83.6678 73.5247 83.5838 73.0581 83.5838C72.1621 83.5838 71.4061 83.9758 70.7901 84.7598C70.1741 85.5438 69.8661 86.6638 69.8661 88.1198C69.8661 89.6131 70.1274 90.7518 70.6501 91.5358C71.1914 92.3011 71.9661 92.6838 72.9741 92.6838ZM87.9948 95.3438C86.2588 95.3438 84.8774 94.7185 83.8508 93.4678C82.8428 92.1985 82.3388 90.4251 82.3388 88.1478C82.3388 87.0278 82.4974 86.0198 82.8148 85.1238C83.1508 84.2278 83.5894 83.4718 84.1308 82.8558C84.6721 82.2398 85.2881 81.7638 85.9788 81.4278C86.6881 81.0918 87.4161 80.9238 88.1628 80.9238C88.9468 80.9238 89.6094 81.0638 90.1508 81.3438C90.6921 81.6051 91.2334 81.9691 91.7748 82.4358L91.6628 80.2238V75.2398H94.8828V95.0078H92.2228L91.9988 93.5238H91.8868C91.3828 94.0278 90.7948 94.4571 90.1228 94.8118C89.4508 95.1665 88.7414 95.3438 87.9948 95.3438ZM88.7788 92.6838C89.8054 92.6838 90.7668 92.1705 91.6628 91.1438V84.7318C91.1774 84.3025 90.7014 84.0038 90.2348 83.8358C89.7868 83.6678 89.3294 83.5838 88.8628 83.5838C87.9668 83.5838 87.2108 83.9758 86.5948 84.7598C85.9788 85.5438 85.6708 86.6638 85.6708 88.1198C85.6708 89.6131 85.9321 90.7518 86.4548 91.5358C86.9961 92.3011 87.7708 92.6838 88.7788 92.6838ZM23.2205 123.008V104.696H34.2805V107.44H26.4685V112.62H33.1325V115.364H26.4685V123.008H23.2205ZM39.5342 123.344C38.3209 123.344 37.3409 122.98 36.5942 122.252C35.8475 121.505 35.4742 120.525 35.4742 119.312C35.4742 118.584 35.6235 117.94 35.9222 117.38C36.2395 116.801 36.7249 116.306 37.3782 115.896C38.0502 115.485 38.8902 115.14 39.8982 114.86C40.9249 114.58 42.1475 114.365 43.5662 114.216C43.5475 113.861 43.4915 113.525 43.3982 113.208C43.3235 112.872 43.1835 112.582 42.9782 112.34C42.7915 112.078 42.5395 111.882 42.2222 111.752C41.9049 111.602 41.5129 111.528 41.0462 111.528C40.3742 111.528 39.7115 111.658 39.0582 111.92C38.4235 112.181 37.7982 112.498 37.1822 112.872L36.0062 110.716C36.7715 110.23 37.6302 109.81 38.5822 109.456C39.5342 109.101 40.5609 108.924 41.6622 108.924C43.3795 108.924 44.6582 109.437 45.4982 110.464C46.3569 111.472 46.7862 112.937 46.7862 114.86V123.008H44.1262L43.9022 121.496H43.7902C43.1742 122.018 42.5115 122.457 41.8022 122.812C41.1115 123.166 40.3555 123.344 39.5342 123.344ZM40.5702 120.824C41.1302 120.824 41.6342 120.693 42.0822 120.432C42.5489 120.17 43.0435 119.797 43.5662 119.312V116.232C42.6329 116.344 41.8489 116.493 41.2142 116.68C40.5795 116.866 40.0662 117.081 39.6742 117.324C39.2822 117.548 39.0022 117.809 38.8342 118.108C38.6662 118.406 38.5822 118.724 38.5822 119.06C38.5822 119.676 38.7689 120.124 39.1422 120.404C39.5155 120.684 39.9915 120.824 40.5702 120.824ZM53.7197 123.008L48.9317 109.26H52.2077L54.3917 116.4C54.5784 117.072 54.765 117.753 54.9517 118.444C55.157 119.134 55.353 119.834 55.5397 120.544H55.6517C55.857 119.834 56.053 119.134 56.2397 118.444C56.4264 117.753 56.6224 117.072 56.8277 116.4L59.0117 109.26H62.1197L57.4437 123.008H53.7197ZM69.9669 123.344C69.1083 123.344 68.2869 123.185 67.5029 122.868C66.7189 122.55 66.0189 122.084 65.4029 121.468C64.8056 120.852 64.3296 120.096 63.9749 119.2C63.6203 118.304 63.4429 117.286 63.4429 116.148C63.4429 115.009 63.6203 113.992 63.9749 113.096C64.3296 112.2 64.8056 111.444 65.4029 110.828C66.0189 110.212 66.7189 109.745 67.5029 109.428C68.2869 109.092 69.1083 108.924 69.9669 108.924C70.8256 108.924 71.6469 109.092 72.4309 109.428C73.2336 109.745 73.9336 110.212 74.5309 110.828C75.1283 111.444 75.6043 112.2 75.9589 113.096C76.3323 113.992 76.5189 115.009 76.5189 116.148C76.5189 117.286 76.3323 118.304 75.9589 119.2C75.6043 120.096 75.1283 120.852 74.5309 121.468C73.9336 122.084 73.2336 122.55 72.4309 122.868C71.6469 123.185 70.8256 123.344 69.9669 123.344ZM69.9669 120.712C70.9749 120.712 71.7683 120.301 72.3469 119.48C72.9256 118.64 73.2149 117.529 73.2149 116.148C73.2149 114.748 72.9256 113.637 72.3469 112.816C71.7683 111.976 70.9749 111.556 69.9669 111.556C68.9589 111.556 68.1656 111.976 67.5869 112.816C67.0269 113.637 66.7469 114.748 66.7469 116.148C66.7469 117.529 67.0269 118.64 67.5869 119.48C68.1656 120.301 68.9589 120.712 69.9669 120.712ZM79.7061 123.008V109.26H82.3661L82.5901 111.696H82.7021C83.1874 110.8 83.7754 110.118 84.4661 109.652C85.1568 109.166 85.8661 108.924 86.5941 108.924C87.2474 108.924 87.7701 109.017 88.1621 109.204L87.6021 112.004C87.3594 111.929 87.1354 111.873 86.9301 111.836C86.7248 111.798 86.4728 111.78 86.1741 111.78C85.6328 111.78 85.0634 111.994 84.4661 112.424C83.8688 112.834 83.3554 113.562 82.9261 114.608V123.008H79.7061ZM90.1514 123.008V109.26H93.3714V123.008H90.1514ZM91.7754 106.852C91.1968 106.852 90.7208 106.684 90.3474 106.348C89.9741 106.012 89.7874 105.573 89.7874 105.032C89.7874 104.49 89.9741 104.052 90.3474 103.716C90.7208 103.361 91.1968 103.184 91.7754 103.184C92.3541 103.184 92.8301 103.361 93.2034 103.716C93.5768 104.052 93.7634 104.49 93.7634 105.032C93.7634 105.573 93.5768 106.012 93.2034 106.348C92.8301 106.684 92.3541 106.852 91.7754 106.852ZM102.324 123.344C101.521 123.344 100.84 123.222 100.28 122.98C99.7382 122.737 99.2902 122.401 98.9355 121.972C98.5995 121.524 98.3475 121.001 98.1795 120.404C98.0302 119.788 97.9555 119.106 97.9555 118.36V111.808H95.9955V109.4L98.1235 109.26L98.5155 105.508H101.204V109.26H104.704V111.808H101.204V118.36C101.204 119.965 101.848 120.768 103.136 120.768C103.378 120.768 103.621 120.74 103.864 120.684C104.125 120.628 104.358 120.553 104.564 120.46L105.124 122.84C104.75 122.97 104.321 123.082 103.836 123.176C103.369 123.288 102.865 123.344 102.324 123.344ZM113.039 123.344C112.087 123.344 111.201 123.185 110.379 122.868C109.558 122.532 108.839 122.056 108.223 121.44C107.607 120.824 107.122 120.077 106.767 119.2C106.431 118.304 106.263 117.286 106.263 116.148C106.263 115.028 106.441 114.02 106.795 113.124C107.15 112.228 107.617 111.472 108.195 110.856C108.793 110.24 109.474 109.764 110.239 109.428C111.005 109.092 111.789 108.924 112.591 108.924C113.525 108.924 114.346 109.082 115.055 109.4C115.765 109.717 116.353 110.165 116.819 110.744C117.305 111.322 117.669 112.013 117.911 112.816C118.154 113.618 118.275 114.496 118.275 115.448C118.275 115.765 118.257 116.064 118.219 116.344C118.201 116.624 118.173 116.848 118.135 117.016H109.399C109.549 118.248 109.978 119.2 110.687 119.872C111.415 120.525 112.339 120.852 113.459 120.852C114.057 120.852 114.607 120.768 115.111 120.6C115.634 120.413 116.147 120.161 116.651 119.844L117.743 121.86C117.09 122.289 116.362 122.644 115.559 122.924C114.757 123.204 113.917 123.344 113.039 123.344ZM109.371 114.832H115.475C115.475 113.768 115.242 112.937 114.775 112.34C114.327 111.724 113.627 111.416 112.675 111.416C111.854 111.416 111.135 111.705 110.519 112.284C109.903 112.862 109.521 113.712 109.371 114.832ZM125.187 123.344C124.235 123.344 123.292 123.166 122.359 122.812C121.444 122.438 120.651 121.981 119.979 121.44L121.491 119.368C122.107 119.853 122.713 120.236 123.311 120.516C123.927 120.777 124.589 120.908 125.299 120.908C126.045 120.908 126.596 120.758 126.951 120.46C127.305 120.142 127.483 119.741 127.483 119.256C127.483 118.976 127.399 118.733 127.231 118.528C127.063 118.304 126.839 118.108 126.559 117.94C126.279 117.772 125.961 117.622 125.607 117.492C125.252 117.342 124.897 117.193 124.543 117.044C124.095 116.876 123.637 116.68 123.171 116.456C122.704 116.232 122.284 115.961 121.911 115.644C121.556 115.326 121.257 114.962 121.015 114.552C120.791 114.122 120.679 113.618 120.679 113.04C120.679 111.826 121.127 110.837 122.023 110.072C122.919 109.306 124.141 108.924 125.691 108.924C126.643 108.924 127.501 109.092 128.267 109.428C129.032 109.764 129.695 110.146 130.255 110.576L128.771 112.536C128.285 112.181 127.791 111.901 127.287 111.696C126.801 111.472 126.288 111.36 125.747 111.36C125.056 111.36 124.543 111.509 124.207 111.808C123.889 112.088 123.731 112.442 123.731 112.872C123.731 113.152 123.805 113.394 123.955 113.6C124.123 113.786 124.337 113.954 124.599 114.104C124.86 114.253 125.159 114.393 125.495 114.524C125.849 114.654 126.213 114.785 126.587 114.916C127.053 115.084 127.52 115.28 127.987 115.504C128.453 115.709 128.873 115.97 129.247 116.288C129.639 116.605 129.947 116.997 130.171 117.464C130.413 117.912 130.535 118.453 130.535 119.088C130.535 119.685 130.413 120.245 130.171 120.768C129.947 121.272 129.611 121.72 129.163 122.112C128.715 122.485 128.155 122.784 127.483 123.008C126.811 123.232 126.045 123.344 125.187 123.344Z"
                  fill="#323C56"/>
        </g>
        <g id="heartOutline" filter="url(#filter2_d)">
            <path d="M139.722 15.5701C139.346 14.7002 138.804 13.9119 138.127 13.2493C137.449 12.5848 136.65 12.0567 135.773 11.6938C134.863 11.3159 133.887 11.1225 132.903 11.1248C131.521 11.1248 130.173 11.5032 129.001 12.2179C128.721 12.3889 128.454 12.5767 128.202 12.7813C127.95 12.5767 127.684 12.3889 127.403 12.2179C126.232 11.5032 124.884 11.1248 123.502 11.1248C122.507 11.1248 121.543 11.3154 120.632 11.6938C119.751 12.0581 118.958 12.5823 118.277 13.2493C117.599 13.9112 117.057 14.6996 116.682 15.5701C116.293 16.4754 116.094 17.4368 116.094 18.4262C116.094 19.3596 116.284 20.3322 116.663 21.3216C116.979 22.1484 117.434 23.0061 118.014 23.8722C118.933 25.2428 120.197 26.6722 121.767 28.1213C124.368 30.5234 126.944 32.1827 127.053 32.2499L127.717 32.676C128.012 32.8638 128.39 32.8638 128.684 32.676L129.348 32.2499C129.458 32.1799 132.031 30.5234 134.635 28.1213C136.204 26.6722 137.468 25.2428 138.388 23.8722C138.968 23.0061 139.425 22.1484 139.739 21.3216C140.117 20.3322 140.308 19.3596 140.308 18.4262C140.31 17.4368 140.111 16.4754 139.722 15.5701ZM128.202 30.4589C128.202 30.4589 118.224 24.0656 118.224 18.4262C118.224 15.5701 120.587 13.255 123.502 13.255C125.551 13.255 127.328 14.3985 128.202 16.069C129.077 14.3985 130.854 13.255 132.903 13.255C135.817 13.255 138.18 15.5701 138.18 18.4262C138.18 24.0656 128.202 30.4589 128.202 30.4589Z"
                  fill="#323C56"/>
        </g>
        <g id="heartCenter" filter="url(#filter3_d)">
            <path fill-rule="evenodd" clip-rule="evenodd"
                  d="M128.201 18.4409L127.315 16.7486C126.61 15.4019 125.171 14.4707 123.5 14.4707C121.118 14.4707 119.223 16.3573 119.223 18.642C119.223 19.768 119.727 21.0272 120.612 22.3435C121.488 23.6471 122.674 24.9154 123.89 26.0384C125.102 27.1575 126.318 28.109 127.234 28.7818C127.618 29.0644 127.948 29.2967 128.201 29.4705C128.453 29.2967 128.783 29.0644 129.168 28.7818C130.083 28.109 131.3 27.1575 132.512 26.0384C133.728 24.9154 134.914 23.6471 135.79 22.3435C136.674 21.0272 137.179 19.768 137.179 18.642C137.179 16.3573 135.283 14.4707 132.901 14.4707C131.231 14.4707 129.792 15.4019 129.087 16.7486L128.201 18.4409Z"
                  fill="#A01616"/>
        </g>
        <path id="Arrow 4"
              d="M119.536 37.8557C119.345 36.7679 118.307 36.0416 117.22 36.2334L99.493 39.359C98.4053 39.5509 97.6789 40.5882 97.8707 41.676C98.0625 42.7637 99.0998 43.4901 100.188 43.2983L115.945 40.5199L118.723 56.2768C118.915 57.3646 119.952 58.091 121.04 57.8991C122.128 57.7073 122.854 56.67 122.662 55.5822L119.536 37.8557ZM99.8942 66.9291L119.205 39.3501L115.929 37.0558L96.6176 64.6348L99.8942 66.9291Z"
              fill="#323C56"/>
    </g>
    <defs>
        <filter id="filter0_d" x="0.130859" y="0.427246" width="156"
                height="201" filterUnits="userSpaceOnUse"
                color-interpolation-filters="sRGB">
            <feFlood flood-opacity="0" result="BackgroundImageFix"/>
            <feColorMatrix in="SourceAlpha" type="matrix"
                           values="0 0 0 0 0 0 0 0 0 0 0 0 0 0 0 0 0 0 127 0"/>
            <feOffset dx="2" dy="2"/>
            <feGaussianBlur stdDeviation="1"/>
            <feColorMatrix type="matrix"
                           values="0 0 0 0 0 0 0 0 0 0 0 0 0 0 0 0 0 0 0.25 0"/>
            <feBlend mode="normal" in2="BackgroundImageFix"
                     result="effect1_dropShadow"/>
            <feBlend mode="normal" in="SourceGraphic" in2="effect1_dropShadow"
                     result="shape"/>
        </filter>
        <filter id="filter1_d" x="23.2207" y="75.2397" width="111.314"
                height="52.104" filterUnits="userSpaceOnUse"
                color-interpolation-filters="sRGB">
            <feFlood flood-opacity="0" result="BackgroundImageFix"/>
            <feColorMatrix in="SourceAlpha" type="matrix"
                           values="0 0 0 0 0 0 0 0 0 0 0 0 0 0 0 0 0 0 127 0"/>
            <feOffset dx="2" dy="2"/>
            <feGaussianBlur stdDeviation="1"/>
            <feColorMatrix type="matrix"
                           values="0 0 0 0 0 0 0 0 0 0 0 0 0 0 0 0 0 0 0.25 0"/>
            <feBlend mode="normal" in2="BackgroundImageFix"
                     result="effect1_dropShadow"/>
            <feBlend mode="normal" in="SourceGraphic" in2="effect1_dropShadow"
                     result="shape"/>
        </filter>
        <filter id="filter2_d" x="116.094" y="11.1248" width="28.2139"
                height="25.6921" filterUnits="userSpaceOnUse"
                color-interpolation-filters="sRGB">
            <feFlood flood-opacity="0" result="BackgroundImageFix"/>
            <feColorMatrix in="SourceAlpha" type="matrix"
                           values="0 0 0 0 0 0 0 0 0 0 0 0 0 0 0 0 0 0 127 0"/>
            <feOffset dx="2" dy="2"/>
            <feGaussianBlur stdDeviation="1"/>
            <feColorMatrix type="matrix"
                           values="0 0 0 0 0 0 0 0 0 0 0 0 0 0 0 0 0 0 0.25 0"/>
            <feBlend mode="normal" in2="BackgroundImageFix"
                     result="effect1_dropShadow"/>
            <feBlend mode="normal" in="SourceGraphic" in2="effect1_dropShadow"
                     result="shape"/>
        </filter>
        <filter id="filter3_d" x="119.223" y="14.4707" width="21.9564"
                height="18.9998" filterUnits="userSpaceOnUse"
                color-interpolation-filters="sRGB">
            <feFlood flood-opacity="0" result="BackgroundImageFix"/>
            <feColorMatrix in="SourceAlpha" type="matrix"
                           values="0 0 0 0 0 0 0 0 0 0 0 0 0 0 0 0 0 0 127 0"/>
            <feOffset dx="2" dy="2"/>
            <feGaussianBlur stdDeviation="1"/>
            <feColorMatrix type="matrix"
                           values="0 0 0 0 0 0 0 0 0 0 0 0 0 0 0 0 0 0 0.25 0"/>
            <feBlend mode="normal" in2="BackgroundImageFix"
                     result="effect1_dropShadow"/>
            <feBlend mode="normal" in="SourceGraphic" in2="effect1_dropShadow"
                     result="shape"/>
        </filter>
    </defs>
</svg>
