<svg width="468" height="91" viewBox="0 0 468 91" fill="none"
     xmlns="http://www.w3.org/2000/svg">
    <g id="Mask Group">
        <mask id="mask0" mask-type="alpha" maskUnits="userSpaceOnUse" x="0"
              y="0" width="468" height="91">
            <g id="Frame 121" clip-path="url(#clip0)">
                <rect width="468" height="91" fill="#C1C1C1"/>
                <rect id="Rectangle 267" x="-16.1709" y="-34.0906"
                      width="552.82" height="167.874" fill="#C4C4C4"/>
            </g>
        </mask>
        <g mask="url(#mask0)">
            <path id="Password"
                  d="M89.1208 24.2174V5.96141H95.3928C96.4008 5.96141 97.3435 6.06407 98.2208 6.26941C99.0982 6.45607 99.8635 6.78274 100.517 7.24941C101.17 7.69741 101.684 8.30407 102.057 9.06941C102.449 9.81607 102.645 10.7401 102.645 11.8414C102.645 12.9054 102.449 13.8294 102.057 14.6134C101.684 15.3974 101.17 16.0414 100.517 16.5454C99.8635 17.0494 99.1075 17.4227 98.2488 17.6654C97.3902 17.9081 96.4755 18.0294 95.5048 18.0294H93.2368V24.2174H89.1208ZM93.2368 14.7534H95.2528C97.4928 14.7534 98.6128 13.7827 98.6128 11.8414C98.6128 10.8894 98.3142 10.2174 97.7168 9.82541C97.1195 9.43341 96.2608 9.23741 95.1408 9.23741H93.2368V14.7534ZM108.008 24.5534C107.373 24.5534 106.794 24.4414 106.272 24.2174C105.768 24.0121 105.338 23.7227 104.984 23.3494C104.629 22.9574 104.349 22.5094 104.144 22.0054C103.957 21.5014 103.864 20.9507 103.864 20.3534C103.864 18.8974 104.48 17.7587 105.712 16.9374C106.944 16.1161 108.932 15.5654 111.676 15.2854C111.638 14.6694 111.452 14.1841 111.116 13.8294C110.798 13.4561 110.257 13.2694 109.492 13.2694C108.894 13.2694 108.297 13.3814 107.7 13.6054C107.121 13.8294 106.496 14.1374 105.824 14.5294L104.34 11.8134C105.236 11.2721 106.169 10.8334 107.14 10.4974C108.129 10.1614 109.174 9.99341 110.276 9.99341C112.068 9.99341 113.43 10.5067 114.364 11.5334C115.316 12.5414 115.792 14.1187 115.792 16.2654V24.2174H112.432L112.152 22.7894H112.04C111.442 23.3121 110.817 23.7414 110.164 24.0774C109.51 24.3947 108.792 24.5534 108.008 24.5534ZM109.408 21.3614C109.874 21.3614 110.276 21.2587 110.612 21.0534C110.948 20.8481 111.302 20.5587 111.676 20.1854V17.7494C110.22 17.9547 109.212 18.2534 108.652 18.6454C108.092 19.0374 107.812 19.5041 107.812 20.0454C107.812 20.4934 107.952 20.8294 108.232 21.0534C108.53 21.2587 108.922 21.3614 109.408 21.3614ZM123.361 24.5534C122.446 24.5534 121.504 24.3761 120.533 24.0214C119.581 23.6667 118.75 23.2001 118.041 22.6214L119.889 20.0454C120.524 20.5307 121.13 20.8947 121.709 21.1374C122.288 21.3801 122.876 21.5014 123.473 21.5014C124.089 21.5014 124.537 21.3987 124.817 21.1934C125.097 20.9881 125.237 20.6987 125.237 20.3254C125.237 20.1014 125.153 19.9054 124.985 19.7374C124.836 19.5507 124.621 19.3827 124.341 19.2334C124.08 19.0841 123.781 18.9534 123.445 18.8414C123.109 18.7107 122.764 18.5707 122.409 18.4214C121.98 18.2534 121.55 18.0574 121.121 17.8334C120.692 17.6094 120.3 17.3387 119.945 17.0214C119.59 16.6854 119.301 16.3027 119.077 15.8734C118.853 15.4254 118.741 14.9121 118.741 14.3334C118.741 13.6987 118.862 13.1107 119.105 12.5694C119.366 12.0281 119.73 11.5707 120.197 11.1974C120.664 10.8241 121.224 10.5347 121.877 10.3294C122.53 10.1054 123.258 9.99341 124.061 9.99341C125.125 9.99341 126.058 10.1801 126.861 10.5534C127.664 10.9081 128.364 11.3094 128.961 11.7574L127.113 14.2214C126.609 13.8481 126.114 13.5587 125.629 13.3534C125.144 13.1481 124.658 13.0454 124.173 13.0454C123.128 13.0454 122.605 13.4094 122.605 14.1374C122.605 14.3614 122.68 14.5574 122.829 14.7254C122.978 14.8747 123.174 15.0147 123.417 15.1454C123.678 15.2761 123.968 15.4067 124.285 15.5374C124.621 15.6494 124.966 15.7707 125.321 15.9014C125.769 16.0694 126.208 16.2654 126.637 16.4894C127.085 16.6947 127.486 16.9561 127.841 17.2734C128.214 17.5907 128.513 17.9827 128.737 18.4494C128.961 18.8974 129.073 19.4387 129.073 20.0734C129.073 20.7081 128.952 21.2961 128.709 21.8374C128.466 22.3787 128.102 22.8547 127.617 23.2654C127.132 23.6574 126.534 23.9747 125.825 24.2174C125.116 24.4414 124.294 24.5534 123.361 24.5534ZM135.775 24.5534C134.861 24.5534 133.918 24.3761 132.947 24.0214C131.995 23.6667 131.165 23.2001 130.455 22.6214L132.303 20.0454C132.938 20.5307 133.545 20.8947 134.123 21.1374C134.702 21.3801 135.29 21.5014 135.887 21.5014C136.503 21.5014 136.951 21.3987 137.231 21.1934C137.511 20.9881 137.651 20.6987 137.651 20.3254C137.651 20.1014 137.567 19.9054 137.399 19.7374C137.25 19.5507 137.035 19.3827 136.755 19.2334C136.494 19.0841 136.195 18.9534 135.859 18.8414C135.523 18.7107 135.178 18.5707 134.823 18.4214C134.394 18.2534 133.965 18.0574 133.535 17.8334C133.106 17.6094 132.714 17.3387 132.359 17.0214C132.005 16.6854 131.715 16.3027 131.491 15.8734C131.267 15.4254 131.155 14.9121 131.155 14.3334C131.155 13.6987 131.277 13.1107 131.519 12.5694C131.781 12.0281 132.145 11.5707 132.611 11.1974C133.078 10.8241 133.638 10.5347 134.291 10.3294C134.945 10.1054 135.673 9.99341 136.475 9.99341C137.539 9.99341 138.473 10.1801 139.275 10.5534C140.078 10.9081 140.778 11.3094 141.375 11.7574L139.527 14.2214C139.023 13.8481 138.529 13.5587 138.043 13.3534C137.558 13.1481 137.073 13.0454 136.587 13.0454C135.542 13.0454 135.019 13.4094 135.019 14.1374C135.019 14.3614 135.094 14.5574 135.243 14.7254C135.393 14.8747 135.589 15.0147 135.831 15.1454C136.093 15.2761 136.382 15.4067 136.699 15.5374C137.035 15.6494 137.381 15.7707 137.735 15.9014C138.183 16.0694 138.622 16.2654 139.051 16.4894C139.499 16.6947 139.901 16.9561 140.255 17.2734C140.629 17.5907 140.927 17.9827 141.151 18.4494C141.375 18.8974 141.487 19.4387 141.487 20.0734C141.487 20.7081 141.366 21.2961 141.123 21.8374C140.881 22.3787 140.517 22.8547 140.031 23.2654C139.546 23.6574 138.949 23.9747 138.239 24.2174C137.53 24.4414 136.709 24.5534 135.775 24.5534ZM146.425 24.2174L142.953 10.3294H147.041L148.385 16.7694C148.497 17.4601 148.6 18.1414 148.693 18.8134C148.787 19.4854 148.889 20.1761 149.001 20.8854H149.113C149.244 20.1761 149.365 19.4761 149.477 18.7854C149.608 18.0947 149.757 17.4227 149.925 16.7694L151.465 10.3294H155.021L156.589 16.7694C156.757 17.4601 156.907 18.1414 157.037 18.8134C157.168 19.4854 157.308 20.1761 157.457 20.8854H157.569C157.7 20.1761 157.803 19.4854 157.877 18.8134C157.971 18.1414 158.083 17.4601 158.213 16.7694L159.529 10.3294H163.337L160.005 24.2174H155.189L153.929 18.6734C153.78 18.0201 153.649 17.3667 153.537 16.7134C153.425 16.0601 153.304 15.3601 153.173 14.6134H153.061C152.931 15.3601 152.809 16.0601 152.697 16.7134C152.604 17.3667 152.492 18.0201 152.361 18.6734L151.129 24.2174H146.425ZM171.585 24.5534C170.707 24.5534 169.858 24.3947 169.037 24.0774C168.215 23.7414 167.487 23.2654 166.853 22.6494C166.237 22.0334 165.742 21.2774 165.369 20.3814C164.995 19.4667 164.809 18.4307 164.809 17.2734C164.809 16.1161 164.995 15.0894 165.369 14.1934C165.742 13.2787 166.237 12.5134 166.853 11.8974C167.487 11.2814 168.215 10.8147 169.037 10.4974C169.858 10.1614 170.707 9.99341 171.585 9.99341C172.462 9.99341 173.302 10.1614 174.105 10.4974C174.926 10.8147 175.645 11.2814 176.261 11.8974C176.895 12.5134 177.399 13.2787 177.773 14.1934C178.146 15.0894 178.333 16.1161 178.333 17.2734C178.333 18.4307 178.146 19.4667 177.773 20.3814C177.399 21.2774 176.895 22.0334 176.261 22.6494C175.645 23.2654 174.926 23.7414 174.105 24.0774C173.302 24.3947 172.462 24.5534 171.585 24.5534ZM171.585 21.2214C172.425 21.2214 173.059 20.8667 173.489 20.1574C173.918 19.4481 174.133 18.4867 174.133 17.2734C174.133 16.0601 173.918 15.0987 173.489 14.3894C173.059 13.6801 172.425 13.3254 171.585 13.3254C170.726 13.3254 170.082 13.6801 169.653 14.3894C169.242 15.0987 169.037 16.0601 169.037 17.2734C169.037 18.4867 169.242 19.4481 169.653 20.1574C170.082 20.8667 170.726 21.2214 171.585 21.2214ZM181.152 24.2174V10.3294H184.512L184.792 12.7654H184.904C185.408 11.8134 186.015 11.1134 186.724 10.6654C187.433 10.2174 188.143 9.99341 188.852 9.99341C189.244 9.99341 189.561 10.0214 189.804 10.0774C190.065 10.1147 190.299 10.1801 190.504 10.2734L189.832 13.8294C189.571 13.7547 189.328 13.6987 189.104 13.6614C188.88 13.6241 188.619 13.6054 188.32 13.6054C187.797 13.6054 187.247 13.7921 186.668 14.1654C186.108 14.5387 185.641 15.2014 185.268 16.1534V24.2174H181.152ZM196.991 24.5534C196.132 24.5534 195.348 24.3854 194.639 24.0494C193.948 23.7134 193.351 23.2374 192.847 22.6214C192.362 21.9867 191.979 21.2214 191.699 20.3254C191.438 19.4294 191.307 18.4121 191.307 17.2734C191.307 16.1347 191.466 15.1174 191.783 14.2214C192.119 13.3254 192.548 12.5694 193.071 11.9534C193.612 11.3187 194.228 10.8334 194.919 10.4974C195.628 10.1614 196.347 9.99341 197.075 9.99341C197.859 9.99341 198.503 10.1241 199.007 10.3854C199.511 10.6467 200.006 11.0014 200.491 11.4494L200.323 9.32141V4.58941H204.439V24.2174H201.079L200.799 22.8454H200.687C200.202 23.3307 199.632 23.7414 198.979 24.0774C198.326 24.3947 197.663 24.5534 196.991 24.5534ZM198.055 21.1934C198.503 21.1934 198.904 21.1001 199.259 20.9134C199.632 20.7267 199.987 20.4001 200.323 19.9334V14.2494C199.95 13.9134 199.567 13.6801 199.175 13.5494C198.783 13.4187 198.4 13.3534 198.027 13.3534C197.374 13.3534 196.795 13.6707 196.291 14.3054C195.787 14.9214 195.535 15.8921 195.535 17.2174C195.535 18.5987 195.75 19.6067 196.179 20.2414C196.627 20.8761 197.252 21.1934 198.055 21.1934Z"
                  fill="white"/>
            <line id="Line 19" x1="89.8545" y1="56.374" x2="439.638" y2="56.374"
                  stroke="white" stroke-width="2" stroke-linecap="round"/>
        </g>
    </g>
    <defs>
        <clipPath id="clip0">
            <rect width="468" height="91" fill="white"/>
        </clipPath>
    </defs>
</svg>
