<svg width="100%" height="100%" viewBox="0 0 1190 530" fill="none"
     xmlns="http://www.w3.org/2000/svg">
    <g id="SignUpModel">
        <g clip-path="url(#clip0)">
            <path id="Intersect"
                  d="M397.472 524.343C436.657 510.099 484.387 486.295 528.812 456.183C621.851 397.193 721.171 310.469 711.836 226.011C707.562 187.344 700.315 159.401 694.581 137.292C679.406 78.7825 674.828 61.1302 763.996 -6.31665H1139.46C1170.49 -6.31665 1195.64 20.0816 1195.64 52.6455V465.38C1195.64 497.944 1170.49 524.343 1139.46 524.343H397.472Z"
                  fill="url(#paint0_linear)"/>
            <g id="Intersect_2" filter="url(#filter0_d)">
                <path d="M720.84 0C641.481 57.1951 645.556 72.1643 659.061 121.781C664.164 140.529 670.614 164.225 674.418 197.014C687.442 309.288 462.828 426.285 394.637 450H50C22.3858 450 0 427.614 0 400V50C0 22.3858 22.3858 0 50 0H720.84Z"
                      fill="url(#paint1_linear)"/>
            </g>
            <g id="Intersect_3" filter="url(#filter1_d)">
                <path d="M781.886 0C695.117 67.2858 699.572 84.896 714.338 143.266C719.918 165.322 726.97 193.198 731.129 231.773C745.369 363.854 499.783 501.493 425.226 529.392H48.4115C18.219 529.392 -6.25684 503.057 -6.25684 470.571V58.8213C-6.25684 26.3352 18.219 0 48.4115 0H781.886Z"
                      fill="url(#paint2_linear)"/>
            </g>
            <g id="Frame 119">
                <g id="Group 125">
                    <g id="Synaps Logo">
                        <g id="Vector" filter="url(#filter2_d)">
                            <path d="M69.3563 197.5C57.574 197.501 46.0416 194.115 36.1435 187.748C35.0884 187.128 34.2223 186.234 33.6377 185.162C33.0531 184.09 32.7721 182.879 32.8246 181.66C32.8246 178.294 35.0372 173.52 39.4623 167.337C40.1022 166.353 40.9961 165.559 42.0502 165.038C43.1043 164.517 44.2798 164.289 45.4531 164.376C48.4844 164.376 52.031 165.57 56.1167 168.029C61.8199 171.276 66.6564 172.899 70.6263 172.899C77.7274 172.899 81.2819 171.506 81.2899 168.721C81.2899 167.528 80.1756 166.585 77.971 165.761C75.2499 164.834 72.4389 164.194 69.5839 163.851C65.8467 163.294 62.1822 162.33 58.6568 160.975C54.8491 159.572 51.1924 157.793 47.7416 155.663C44.0729 153.236 41.166 149.827 39.3545 145.827C37.0352 140.84 35.8996 135.388 36.0356 129.893C36.0356 111.59 48.6801 102.439 73.9692 102.439C82.8067 102.587 91.5095 104.622 99.4898 108.407C103.564 110.269 105.6 112.824 105.6 116.07C105.6 118.458 104.402 121.525 101.934 125.476C99.2502 129.654 96.5783 131.743 93.8945 131.743C91.8006 131.567 89.7634 130.975 87.9037 130C83.5062 127.807 78.6811 126.597 73.7655 126.455C66.8881 126.455 63.4614 127.744 63.4614 130.286C63.4614 132.149 64.5876 133.629 66.8641 134.727C69.5729 135.953 72.4684 136.72 75.4309 136.995C79.1896 137.481 82.9008 138.279 86.5258 139.382C90.3438 140.483 94.0597 141.908 97.6327 143.643C101.26 145.554 104.218 148.518 106.116 152.142C108.517 156.669 109.694 161.741 109.53 166.859C109.715 172.315 108.542 177.732 106.116 182.627C104.015 186.705 100.655 190.002 96.5304 192.033C92.5485 194.011 88.3167 195.444 83.9498 196.294C79.1339 197.15 74.2479 197.554 69.3563 197.5Z"
                                  fill="#4CB69F"/>
                        </g>
                        <g id="Vector_2" filter="url(#filter3_d)">
                            <path d="M199.572 105.22C206.45 108.244 209.889 111.901 209.889 116.19C209.889 118.04 209.014 120.833 207.265 124.545V124.724C207.212 124.766 207.169 124.818 207.138 124.878C207.107 124.938 207.089 125.003 207.085 125.07L161.291 227.101C160.579 228.824 159.779 230.509 158.895 232.15C158.128 233.462 157.086 234.594 155.84 235.469C154.424 236.515 152.701 237.064 150.939 237.032C148.615 237.032 145.404 236.161 141.354 234.418C134.477 231.402 131.038 227.821 131.038 223.676C131.038 221.814 131.973 218.794 133.842 214.616C138.139 204.741 142.8 194.468 147.824 183.797L113.078 125.464C110.745 121.629 109.579 118.784 109.579 116.93C109.579 113.214 112.726 109.497 119.021 105.781C122.974 103.466 126.353 102.308 129.157 102.308C130.762 102.298 132.335 102.763 133.674 103.645C134.877 104.389 135.916 105.367 136.729 106.521C137.376 107.516 138.339 109.056 139.617 111.141C149.873 128.647 157.621 141.646 162.861 150.136C163.444 148.282 169.036 135.805 179.635 112.704C180.45 110.842 181.061 109.517 181.468 108.694C182.014 107.677 182.66 106.717 183.397 105.829C184.141 104.807 185.13 103.986 186.273 103.442C187.492 102.943 188.802 102.703 190.119 102.737C193.405 102.927 196.62 103.771 199.572 105.22Z"
                                  fill="#4CB69F"/>
                        </g>
                        <g id="Vector_3" filter="url(#filter4_d)">
                            <path d="M268.957 104.17C274.5 104.074 279.994 105.221 285.032 107.527C290.07 109.833 294.522 113.238 298.06 117.491C305.808 126.371 309.682 137.198 309.682 149.969V180.61C309.711 182.602 309.627 184.595 309.431 186.578C309.165 188.164 308.63 189.694 307.849 191.102C307.363 191.981 306.702 192.751 305.907 193.367C305.112 193.983 304.199 194.43 303.224 194.683C300.32 195.466 297.317 195.82 294.31 195.733C291.773 195.789 289.241 195.496 286.785 194.862C285.176 194.452 283.642 193.787 282.244 192.892C281.08 191.987 280.239 190.731 279.848 189.311C279.392 188.015 279.099 186.668 278.973 185.301C278.914 184.262 278.89 182.639 278.89 180.431V149.79C278.89 145.016 277.512 141.316 274.78 138.654C272.048 135.992 268.346 134.643 263.685 134.643C261.647 134.563 259.614 134.892 257.706 135.609C255.798 136.327 254.054 137.419 252.578 138.821C251.145 140.257 250.025 141.973 249.289 143.86C248.553 145.748 248.216 147.767 248.301 149.79V180.61C248.333 182.603 248.245 184.596 248.037 186.578C247.782 188.165 247.251 189.696 246.468 191.102C245.98 191.982 245.318 192.753 244.52 193.369C243.723 193.985 242.808 194.432 241.831 194.683C238.927 195.466 235.923 195.82 232.916 195.733C229.969 195.814 227.025 195.46 224.182 194.683C223.196 194.429 222.275 193.973 221.476 193.344C220.678 192.715 220.02 191.927 219.545 191.03C218.773 189.586 218.243 188.025 217.975 186.411C217.767 184.429 217.679 182.436 217.712 180.443V118.804C217.68 116.855 217.768 114.905 217.975 112.967C218.235 111.395 218.796 109.887 219.629 108.527C220.152 107.678 220.838 106.94 221.648 106.356C222.458 105.772 223.377 105.354 224.35 105.125C227.209 104.415 230.151 104.094 233.096 104.17C235.989 104.089 238.877 104.443 241.663 105.22C243.532 105.631 245.184 106.715 246.3 108.264C246.985 109.302 247.487 110.448 247.786 111.654C247.985 112.865 248.073 114.092 248.049 115.319C248.342 114.9 248.663 114.502 249.008 114.125C249.415 113.655 250.29 112.784 251.632 111.511C252.943 110.244 254.367 109.097 255.885 108.085C257.722 106.955 259.69 106.049 261.744 105.388C264.065 104.589 266.502 104.178 268.957 104.17Z"
                                  fill="#4CB69F"/>
                        </g>
                        <g id="Vector_4" filter="url(#filter5_d)">
                            <path d="M398.657 104.17C401.605 104.084 404.549 104.438 407.391 105.22C408.377 105.474 409.299 105.93 410.097 106.559C410.896 107.188 411.553 107.976 412.028 108.873C412.8 110.317 413.33 111.878 413.598 113.492C413.807 115.474 413.895 117.467 413.861 119.46V180.443C413.895 182.435 413.807 184.428 413.598 186.411C413.342 188.013 412.811 189.56 412.028 190.982C411.541 191.862 410.878 192.634 410.081 193.25C409.284 193.866 408.368 194.312 407.391 194.563C404.489 195.352 401.484 195.706 398.477 195.614C393.229 195.614 389.539 194.826 387.382 193.226C386.295 192.418 385.396 191.385 384.747 190.198C384.097 189.012 383.713 187.699 383.62 186.351C379.307 192.502 372.313 195.578 362.64 195.578C352.16 195.578 342.607 190.99 333.98 181.815C325.572 173.193 320.925 161.608 321.052 149.587C321.052 137.651 325.39 127.115 334.064 117.98C342.739 108.845 352.264 104.301 362.64 104.349C366.34 104.307 370.009 105.017 373.424 106.438C375.897 107.36 378.201 108.683 380.241 110.353C381.403 111.441 382.455 112.64 383.38 113.934C383.457 112.519 383.831 111.137 384.479 109.876C385.127 108.615 386.035 107.505 387.143 106.617C389.359 105.041 393.169 104.17 398.657 104.17ZM367.313 165.116C369.314 165.15 371.298 164.746 373.126 163.933C374.954 163.121 376.581 161.919 377.893 160.414C380.613 157.609 382.145 153.869 382.17 149.969C382.122 146.112 380.675 142.403 378.097 139.525C376.744 137.918 375.039 136.643 373.113 135.796C371.188 134.95 369.093 134.555 366.99 134.643C364.891 134.578 362.805 134.983 360.885 135.828C358.965 136.673 357.26 137.936 355.895 139.525C353.182 142.403 351.651 146.189 351.605 150.136C351.625 152.08 352.039 153.999 352.821 155.779C353.604 157.559 354.739 159.164 356.158 160.497C357.596 161.994 359.329 163.178 361.249 163.973C363.169 164.768 365.234 165.157 367.313 165.116Z"
                                  fill="#4CB69F"/>
                        </g>
                        <g id="Vector_5" filter="url(#filter6_d)">
                            <path d="M427.844 220.823V119.15C427.805 117.157 427.893 115.164 428.107 113.182C428.374 111.624 428.905 110.122 429.677 108.742C430.142 107.878 430.776 107.116 431.542 106.501C432.307 105.886 433.189 105.43 434.134 105.161C436.917 104.367 439.808 104.013 442.701 104.11C447.941 104.11 451.639 104.906 453.796 106.498C454.885 107.31 455.785 108.347 456.434 109.537C457.083 110.728 457.467 112.045 457.558 113.397C461.983 107.365 468.625 104.349 477.483 104.349C487.62 104.349 496.941 108.817 505.448 117.753C513.955 126.69 518.209 136.963 518.209 148.573C518.332 160.337 513.774 171.671 505.532 180.096C497.089 189.041 487.76 193.509 477.543 193.501C468.693 193.501 462.107 190.831 457.786 185.492V220.668C457.82 222.66 457.736 224.653 457.534 226.636C457.255 228.193 456.721 229.693 455.953 231.076C455.486 231.938 454.851 232.699 454.086 233.314C453.321 233.929 452.44 234.385 451.495 234.657C448.71 235.44 445.821 235.79 442.929 235.696C440.009 235.784 437.093 235.434 434.278 234.657C432.361 234.14 430.728 232.887 429.737 231.172C428.959 229.823 428.427 228.348 428.167 226.815C427.932 224.826 427.824 222.825 427.844 220.823ZM462.447 138.821C459.891 141.641 458.462 145.298 458.433 149.098C458.459 152.888 459.928 156.526 462.542 159.28C463.823 160.771 465.421 161.959 467.219 162.758C469.018 163.557 470.973 163.947 472.942 163.899C474.977 163.939 476.998 163.557 478.877 162.778C480.755 162 482.451 160.841 483.858 159.375C485.257 158.049 486.374 156.456 487.142 154.69C487.91 152.924 488.313 151.022 488.327 149.098C488.318 145.236 486.816 141.525 484.133 138.737C482.781 137.232 481.116 136.039 479.253 135.241C477.391 134.444 475.376 134.06 473.35 134.118C471.293 134.024 469.242 134.398 467.352 135.213C465.463 136.028 463.785 137.262 462.447 138.821Z"
                                  fill="#4CB69F"/>
                        </g>
                        <g id="Vector_6" filter="url(#filter7_d)">
                            <path d="M563.475 197.5C551.694 197.498 540.162 194.112 530.263 187.748C529.208 187.128 528.341 186.234 527.757 185.162C527.172 184.09 526.891 182.879 526.944 181.66C526.944 178.294 529.156 173.52 533.581 167.337C534.222 166.354 535.116 165.561 536.17 165.04C537.224 164.519 538.399 164.29 539.572 164.376C542.6 164.376 546.154 165.594 550.236 168.029C555.947 171.276 560.784 172.899 564.745 172.899C571.846 172.899 575.401 171.506 575.409 168.721C575.409 167.528 574.295 166.585 572.09 165.761C569.369 164.834 566.558 164.193 563.703 163.851C559.965 163.296 556.301 162.331 552.776 160.975C548.964 159.572 545.304 157.793 541.849 155.663C538.177 153.24 535.269 149.829 533.462 145.827C531.135 140.843 529.999 135.388 530.143 129.893C530.143 111.59 542.783 102.439 568.064 102.439C576.902 102.584 585.606 104.619 593.585 108.407C597.659 110.269 599.707 112.824 599.707 116.07C599.707 118.458 598.509 121.525 596.029 125.476C593.353 129.654 590.673 131.743 587.99 131.743C585.896 131.566 583.859 130.973 581.999 130C577.593 127.826 572.764 126.636 567.849 126.515C560.971 126.515 557.533 127.804 557.533 130.346C557.533 132.208 558.667 133.688 560.935 134.786C563.644 136.013 566.54 136.779 569.502 137.054C573.265 137.541 576.98 138.34 580.609 139.442C584.422 140.545 588.134 141.97 591.704 143.703C595.366 145.611 598.356 148.589 600.271 152.237C602.662 156.768 603.834 161.838 603.673 166.955C603.84 172.377 602.672 177.758 600.271 182.627C598.169 186.704 594.809 190.001 590.685 192.033C586.703 194.011 582.472 195.444 578.105 196.294C573.277 197.152 568.379 197.556 563.475 197.5Z"
                                  fill="#4CB69F"/>
                        </g>
                    </g>
                </g>
            </g>
        </g>
    </g>
    <defs>
        <filter id="filter0_d" x="0" y="0" width="728.84" height="458"
                filterUnits="userSpaceOnUse" color-interpolation-filters="sRGB">
            <feFlood flood-opacity="0" result="BackgroundImageFix"/>
            <feColorMatrix in="SourceAlpha" type="matrix"
                           values="0 0 0 0 0 0 0 0 0 0 0 0 0 0 0 0 0 0 127 0"/>
            <feOffset dx="4" dy="4"/>
            <feGaussianBlur stdDeviation="2"/>
            <feColorMatrix type="matrix"
                           values="0 0 0 0 0 0 0 0 0 0 0 0 0 0 0 0 0 0 0.2 0"/>
            <feBlend mode="normal" in2="BackgroundImageFix"
                     result="effect1_dropShadow"/>
            <feBlend mode="normal" in="SourceGraphic" in2="effect1_dropShadow"
                     result="shape"/>
        </filter>
        <filter id="filter1_d" x="-6.25684" y="0" width="796.142"
                height="537.392" filterUnits="userSpaceOnUse"
                color-interpolation-filters="sRGB">
            <feFlood flood-opacity="0" result="BackgroundImageFix"/>
            <feColorMatrix in="SourceAlpha" type="matrix"
                           values="0 0 0 0 0 0 0 0 0 0 0 0 0 0 0 0 0 0 127 0"/>
            <feOffset dx="4" dy="4"/>
            <feGaussianBlur stdDeviation="2"/>
            <feColorMatrix type="matrix"
                           values="0 0 0 0 0 0 0 0 0 0 0 0 0 0 0 0 0 0 0.2 0"/>
            <feBlend mode="normal" in2="BackgroundImageFix"
                     result="effect1_dropShadow"/>
            <feBlend mode="normal" in="SourceGraphic" in2="effect1_dropShadow"
                     result="shape"/>
        </filter>
        <filter id="filter2_d" x="32.8184" y="102.439" width="88.7309"
                height="109.065" filterUnits="userSpaceOnUse"
                color-interpolation-filters="sRGB">
            <feFlood flood-opacity="0" result="BackgroundImageFix"/>
            <feColorMatrix in="SourceAlpha" type="matrix"
                           values="0 0 0 0 0 0 0 0 0 0 0 0 0 0 0 0 0 0 127 0"/>
            <feOffset dx="6" dy="8"/>
            <feGaussianBlur stdDeviation="3"/>
            <feColorMatrix type="matrix"
                           values="0 0 0 0 0 0 0 0 0 0 0 0 0 0 0 0 0 0 0.28 0"/>
            <feBlend mode="normal" in2="BackgroundImageFix"
                     result="effect1_dropShadow"/>
            <feBlend mode="normal" in="SourceGraphic" in2="effect1_dropShadow"
                     result="shape"/>
        </filter>
        <filter id="filter3_d" x="109.579" y="102.308" width="112.309"
                height="148.726" filterUnits="userSpaceOnUse"
                color-interpolation-filters="sRGB">
            <feFlood flood-opacity="0" result="BackgroundImageFix"/>
            <feColorMatrix in="SourceAlpha" type="matrix"
                           values="0 0 0 0 0 0 0 0 0 0 0 0 0 0 0 0 0 0 127 0"/>
            <feOffset dx="6" dy="8"/>
            <feGaussianBlur stdDeviation="3"/>
            <feColorMatrix type="matrix"
                           values="0 0 0 0 0 0 0 0 0 0 0 0 0 0 0 0 0 0 0.28 0"/>
            <feBlend mode="normal" in2="BackgroundImageFix"
                     result="effect1_dropShadow"/>
            <feBlend mode="normal" in="SourceGraphic" in2="effect1_dropShadow"
                     result="shape"/>
        </filter>
        <filter id="filter4_d" x="217.705" y="104.159" width="103.983"
                height="105.587" filterUnits="userSpaceOnUse"
                color-interpolation-filters="sRGB">
            <feFlood flood-opacity="0" result="BackgroundImageFix"/>
            <feColorMatrix in="SourceAlpha" type="matrix"
                           values="0 0 0 0 0 0 0 0 0 0 0 0 0 0 0 0 0 0 127 0"/>
            <feOffset dx="6" dy="8"/>
            <feGaussianBlur stdDeviation="3"/>
            <feColorMatrix type="matrix"
                           values="0 0 0 0 0 0 0 0 0 0 0 0 0 0 0 0 0 0 0.28 0"/>
            <feBlend mode="normal" in2="BackgroundImageFix"
                     result="effect1_dropShadow"/>
            <feBlend mode="normal" in="SourceGraphic" in2="effect1_dropShadow"
                     result="shape"/>
        </filter>
        <filter id="filter5_d" x="321.05" y="104.157" width="104.819"
                height="105.471" filterUnits="userSpaceOnUse"
                color-interpolation-filters="sRGB">
            <feFlood flood-opacity="0" result="BackgroundImageFix"/>
            <feColorMatrix in="SourceAlpha" type="matrix"
                           values="0 0 0 0 0 0 0 0 0 0 0 0 0 0 0 0 0 0 127 0"/>
            <feOffset dx="6" dy="8"/>
            <feGaussianBlur stdDeviation="3"/>
            <feColorMatrix type="matrix"
                           values="0 0 0 0 0 0 0 0 0 0 0 0 0 0 0 0 0 0 0.28 0"/>
            <feBlend mode="normal" in2="BackgroundImageFix"
                     result="effect1_dropShadow"/>
            <feBlend mode="normal" in="SourceGraphic" in2="effect1_dropShadow"
                     result="shape"/>
        </filter>
        <filter id="filter6_d" x="427.835" y="104.094" width="102.376"
                height="145.616" filterUnits="userSpaceOnUse"
                color-interpolation-filters="sRGB">
            <feFlood flood-opacity="0" result="BackgroundImageFix"/>
            <feColorMatrix in="SourceAlpha" type="matrix"
                           values="0 0 0 0 0 0 0 0 0 0 0 0 0 0 0 0 0 0 127 0"/>
            <feOffset dx="6" dy="8"/>
            <feGaussianBlur stdDeviation="3"/>
            <feColorMatrix type="matrix"
                           values="0 0 0 0 0 0 0 0 0 0 0 0 0 0 0 0 0 0 0.28 0"/>
            <feBlend mode="normal" in2="BackgroundImageFix"
                     result="effect1_dropShadow"/>
            <feBlend mode="normal" in="SourceGraphic" in2="effect1_dropShadow"
                     result="shape"/>
        </filter>
        <filter id="filter7_d" x="526.938" y="102.439" width="88.7516"
                height="109.065" filterUnits="userSpaceOnUse"
                color-interpolation-filters="sRGB">
            <feFlood flood-opacity="0" result="BackgroundImageFix"/>
            <feColorMatrix in="SourceAlpha" type="matrix"
                           values="0 0 0 0 0 0 0 0 0 0 0 0 0 0 0 0 0 0 127 0"/>
            <feOffset dx="6" dy="8"/>
            <feGaussianBlur stdDeviation="3"/>
            <feColorMatrix type="matrix"
                           values="0 0 0 0 0 0 0 0 0 0 0 0 0 0 0 0 0 0 0.28 0"/>
            <feBlend mode="normal" in2="BackgroundImageFix"
                     result="effect1_dropShadow"/>
            <feBlend mode="normal" in="SourceGraphic" in2="effect1_dropShadow"
                     result="shape"/>
        </filter>
        <linearGradient id="paint0_linear" x1="675.788" y1="10.9921"
                        x2="1174.92" y2="481.888"
                        gradientUnits="userSpaceOnUse">
            <stop stop-color="#D0D0CF"/>
            <stop offset="1" stop-color="#E1DED7"/>
        </linearGradient>
        <linearGradient id="paint1_linear" x1="296.01" y1="13.0187" x2="647.132"
                        y2="279.722" gradientUnits="userSpaceOnUse">
            <stop stop-color="white"/>
            <stop offset="1" stop-color="#EAEAEA"/>
        </linearGradient>
        <linearGradient id="paint2_linear" x1="317.39" y1="15.3156" x2="721.432"
                        y2="300.547" gradientUnits="userSpaceOnUse">
            <stop stop-color="white"/>
            <stop offset="1" stop-color="#EAEAEA"/>
        </linearGradient>
        <clipPath id="clip0">
            <rect width="1190" height="530" rx="50" fill="white"/>
        </clipPath>
    </defs>
</svg>
