<svg width="1190" height="530" viewBox="0 0 1190 530" fill="none"
     xmlns="http://www.w3.org/2000/svg">
    <g id="SignUpModel">
        <g clip-path="url(#clip0)">
            <path id="Intersect"
                  d="M397.472 524.343C436.657 510.099 484.387 486.295 528.812 456.183C621.851 397.193 721.171 310.469 711.836 226.011C707.562 187.344 700.315 159.401 694.581 137.292C679.406 78.7825 674.828 61.1301 763.996 -6.31665H1139.46C1170.49 -6.31665 1195.64 20.0816 1195.64 52.6455V465.38C1195.64 497.944 1170.49 524.343 1139.46 524.343H397.472Z"
                  fill="url(#paint0_linear)"/>
            <g id="Intersect_2" filter="url(#filter0_d)">
                <path d="M720.84 0C641.481 57.1951 645.556 72.1643 659.061 121.781C664.164 140.529 670.614 164.225 674.418 197.014C687.442 309.288 462.828 426.285 394.637 450H50C22.3858 450 0 427.614 0 400V50C0 22.3858 22.3858 0 50 0H720.84Z"
                      fill="url(#paint1_linear)"/>
            </g>
            <g id="Intersect_3" filter="url(#filter1_d)">
                <path d="M781.886 0C695.117 67.2858 699.572 84.896 714.338 143.266C719.918 165.322 726.97 193.198 731.129 231.773C745.369 363.854 499.783 501.493 425.226 529.392H48.4115C18.219 529.392 -6.25684 503.057 -6.25684 470.571V58.8213C-6.25684 26.3352 18.219 0 48.4115 0H781.886Z"
                      fill="url(#paint2_linear)"/>
            </g>
            <g id="Frame 119">
                <path id="synapse"
                      d="M75.6807 210.148C73.6946 208.893 72.7015 206.907 72.7015 204.189C72.7015 201.471 74.6876 197.342 78.6599 191.802C79.8098 190.025 81.6391 189.137 84.1479 189.137C86.7612 189.137 90.2631 190.443 94.6535 193.057C99.0439 195.565 103.016 196.82 106.57 196.82C112.947 196.82 116.135 195.565 116.135 193.057C116.135 191.07 112.633 189.607 105.629 188.666C99.0439 187.725 92.5106 185.269 86.0295 181.297C82.998 179.415 80.4892 176.488 78.5031 172.516C76.517 168.439 75.5239 163.63 75.5239 158.09C75.5239 141.574 86.8658 133.316 109.549 133.316C116.971 133.316 124.602 135.093 132.442 138.647C136.101 140.319 137.93 142.41 137.93 144.919C137.93 147.428 136.78 150.511 134.481 154.17C132.181 157.829 129.829 159.658 127.425 159.658C126.17 159.658 123.818 158.874 120.369 157.306C117.024 155.738 113.365 154.954 109.393 154.954C103.225 154.954 100.141 156.104 100.141 158.404C100.141 161.54 103.696 163.578 110.804 164.519C117.703 165.251 124.393 167.237 130.874 170.477C133.906 171.941 136.415 174.502 138.401 178.161C140.491 181.715 141.537 186.21 141.537 191.645C141.537 197.081 140.491 201.733 138.401 205.601C136.415 209.364 133.592 212.186 129.933 214.068C123.243 217.308 114.828 218.929 104.689 218.929C94.6535 218.929 84.9842 216.002 75.6807 210.148ZM215.267 135.825C221.434 138.542 224.518 141.835 224.518 145.703C224.518 147.585 224.1 149.362 223.264 151.034C222.428 152.707 222.009 153.595 222.009 153.7L180.928 245.585C180.092 247.571 179.36 249.086 178.733 250.132C178.21 251.177 177.321 252.17 176.067 253.111C174.813 254.052 173.245 254.522 171.363 254.522C169.481 254.522 166.711 253.738 163.053 252.17C156.885 249.452 153.801 246.212 153.801 242.449C153.801 239.94 158.819 227.971 168.854 206.541L137.651 154.013C135.56 150.564 134.515 148.003 134.515 146.33C134.515 142.985 137.337 139.64 142.982 136.295C146.536 134.204 149.306 133.159 151.293 133.159C153.279 133.159 154.899 133.577 156.153 134.413C157.408 135.25 158.296 136.138 158.819 137.079C159.446 137.915 162.321 142.776 167.443 151.661C172.67 160.442 177.635 168.648 182.339 176.279C182.862 174.606 185.684 168.178 190.806 156.993C195.928 145.703 198.646 139.692 198.96 138.961C199.378 138.229 200.005 137.34 200.841 136.295C202.2 134.518 204.082 133.629 206.486 133.629C208.995 133.629 211.922 134.361 215.267 135.825ZM270.421 134.884C280.875 134.884 289.551 138.908 296.45 146.957C303.454 154.902 306.956 164.623 306.956 176.122V203.719C306.956 206.123 306.851 207.953 306.642 209.207C306.538 210.357 306.12 211.663 305.388 213.127C303.924 215.949 299.848 217.361 293.157 217.361C285.736 217.361 281.45 215.427 280.3 211.559C279.673 209.782 279.359 207.116 279.359 203.562V175.965C279.359 171.679 278.105 168.334 275.596 165.93C273.192 163.526 269.899 162.324 265.717 162.324C261.641 162.324 258.296 163.578 255.682 166.087C253.173 168.596 251.919 171.889 251.919 175.965V203.719C251.919 206.123 251.814 207.953 251.605 209.207C251.501 210.357 251.03 211.663 250.194 213.127C248.835 215.949 244.811 217.361 238.121 217.361C231.535 217.361 227.51 215.949 226.047 213.127C225.315 211.559 224.845 210.2 224.636 209.05C224.531 207.796 224.479 205.966 224.479 203.562V148.055C224.479 145.755 224.531 144.03 224.636 142.881C224.845 141.626 225.368 140.267 226.204 138.804C227.667 136.19 231.692 134.884 238.277 134.884C244.654 134.884 248.574 136.086 250.037 138.49C251.083 140.267 251.605 142.41 251.605 144.919C252.024 144.187 252.964 143.142 254.428 141.783C255.891 140.424 257.302 139.326 258.661 138.49C262.216 136.086 266.136 134.884 270.421 134.884ZM366.139 143.665C366.766 137.811 370.895 134.884 378.526 134.884C382.603 134.884 385.635 135.197 387.621 135.825C389.607 136.452 390.966 137.549 391.698 139.117C392.534 140.685 393.004 142.097 393.109 143.351C393.318 144.501 393.422 146.278 393.422 148.682V203.562C393.422 205.966 393.318 207.796 393.109 209.05C393.004 210.2 392.586 211.559 391.854 213.127C390.391 215.845 386.785 217.204 381.035 217.204C375.39 217.204 371.575 216.524 369.589 215.165C367.707 213.702 366.61 211.611 366.296 208.893C362.428 214.434 355.947 217.204 346.853 217.204C337.863 217.204 329.5 213.075 321.765 204.817C314.029 196.558 310.162 186.994 310.162 176.122C310.162 165.146 314.029 155.581 321.765 147.428C329.605 139.17 338.177 135.041 347.48 135.041C351.034 135.041 354.275 135.668 357.202 136.922C360.129 138.177 362.167 139.379 363.317 140.529C364.467 141.574 365.407 142.619 366.139 143.665ZM337.602 176.279C337.602 179.729 338.961 182.865 341.678 185.687C344.396 188.405 347.689 189.764 351.557 189.764C355.425 189.764 358.613 188.353 361.122 185.53C363.735 182.708 365.042 179.624 365.042 176.279C365.042 172.829 363.787 169.641 361.278 166.714C358.874 163.787 355.581 162.324 351.4 162.324C347.323 162.324 343.978 163.787 341.365 166.714C338.856 169.641 337.602 172.829 337.602 176.279ZM398.864 239.94V148.369C398.864 145.964 398.916 144.187 399.021 143.037C399.23 141.887 399.7 140.581 400.432 139.117C401.895 136.295 405.397 134.884 410.937 134.884C416.478 134.884 420.189 135.615 422.07 137.079C424.056 138.438 425.206 140.476 425.52 143.194C429.492 137.758 435.712 135.041 444.179 135.041C452.751 135.041 460.852 139.065 468.483 147.114C476.114 155.163 479.929 164.519 479.929 175.181C479.929 185.844 476.114 195.199 468.483 203.249C460.957 211.298 452.908 215.322 444.336 215.322C435.764 215.322 429.544 212.918 425.677 208.109V239.783C425.677 242.187 425.572 243.964 425.363 245.114C425.259 246.264 424.788 247.571 423.952 249.034C423.22 250.602 421.913 251.7 420.032 252.327C418.15 252.954 415.589 253.268 412.349 253.268C409.108 253.268 406.495 252.954 404.509 252.327C402.627 251.7 401.268 250.654 400.432 249.191C399.7 247.727 399.23 246.421 399.021 245.271C398.916 244.121 398.864 242.344 398.864 239.94ZM429.91 166.087C427.506 168.909 426.304 171.993 426.304 175.338C426.304 178.683 427.506 181.767 429.91 184.589C432.419 187.307 435.555 188.666 439.318 188.666C443.186 188.666 446.427 187.307 449.04 184.589C451.758 181.871 453.117 178.788 453.117 175.338C453.117 171.889 451.862 168.805 449.353 166.087C446.845 163.265 443.552 161.853 439.475 161.853C435.503 161.853 432.315 163.265 429.91 166.087ZM483.698 210.148C481.711 208.893 480.718 206.907 480.718 204.189C480.718 201.471 482.705 197.342 486.677 191.802C487.827 190.025 489.656 189.137 492.165 189.137C494.778 189.137 498.28 190.443 502.67 193.057C507.061 195.565 511.033 196.82 514.587 196.82C520.964 196.82 524.152 195.565 524.152 193.057C524.152 191.07 520.65 189.607 513.646 188.666C507.061 187.725 500.527 185.269 494.046 181.297C491.015 179.415 488.506 176.488 486.52 172.516C484.534 168.439 483.541 163.63 483.541 158.09C483.541 141.574 494.883 133.316 517.566 133.316C524.988 133.316 532.619 135.093 540.459 138.647C544.118 140.319 545.947 142.41 545.947 144.919C545.947 147.428 544.797 150.511 542.498 154.17C540.198 157.829 537.846 159.658 535.442 159.658C534.187 159.658 531.835 158.874 528.386 157.306C525.041 155.738 521.382 154.954 517.41 154.954C511.242 154.954 508.158 156.104 508.158 158.404C508.158 161.54 511.713 163.578 518.821 164.519C525.72 165.251 532.41 167.237 538.891 170.477C541.923 171.941 544.431 174.502 546.418 178.161C548.508 181.715 549.554 186.21 549.554 191.645C549.554 197.081 548.508 201.733 546.418 205.601C544.431 209.364 541.609 212.186 537.95 214.068C531.26 217.308 522.845 218.929 512.706 218.929C502.67 218.929 493.001 216.002 483.698 210.148ZM632.384 166.401C632.384 172.777 630.764 177.533 627.524 180.669C624.388 183.701 620.886 185.217 617.018 185.217H579.856C579.856 188.143 581.581 190.6 585.031 192.586C588.48 194.572 591.93 195.565 595.38 195.565C601.443 195.565 606.199 194.938 609.648 193.684L611.373 193.057C613.882 191.907 615.973 191.332 617.645 191.332C620.99 191.332 623.865 193.684 626.269 198.388C627.628 201.21 628.308 203.614 628.308 205.601C628.308 214.904 617.175 219.556 594.909 219.556C587.174 219.556 580.275 218.249 574.212 215.636C568.253 212.918 563.601 209.364 560.256 204.973C553.671 196.506 550.378 187.046 550.378 176.593C550.378 163.421 554.612 152.916 563.079 145.076C571.651 137.131 582.313 133.159 595.066 133.159C609.596 133.159 620.259 138.281 627.053 148.525C630.607 153.961 632.384 159.919 632.384 166.401ZM599.3 170.948C603.272 170.948 605.258 169.275 605.258 165.93C605.258 163.526 604.317 161.592 602.436 160.129C600.659 158.665 598.045 157.933 594.596 157.933C591.251 157.933 587.905 159.345 584.56 162.167C581.215 164.885 579.543 167.812 579.543 170.948H599.3Z"
                      fill="#4F9182"/>
                <path id="synapse_2"
                      d="M76.293 211.984C74.3069 210.73 73.3138 208.744 73.3138 206.026C73.3138 203.308 75.2999 199.179 79.2722 193.639C80.4221 191.861 82.2514 190.973 84.7602 190.973C87.3735 190.973 90.8754 192.28 95.2658 194.893C99.6562 197.402 103.628 198.656 107.183 198.656C113.559 198.656 116.747 197.402 116.747 194.893C116.747 192.907 113.246 191.443 106.242 190.503C99.6562 189.562 93.1229 187.105 86.6418 183.133C83.6103 181.251 81.1015 178.324 79.1154 174.352C77.1293 170.275 76.1362 165.467 76.1362 159.927C76.1362 143.41 87.4781 135.152 110.162 135.152C117.584 135.152 125.215 136.929 133.055 140.483C136.713 142.156 138.543 144.247 138.543 146.755C138.543 149.264 137.393 152.348 135.093 156.007C132.793 159.665 130.441 161.495 128.037 161.495C126.783 161.495 124.431 160.711 120.981 159.143C117.636 157.575 113.977 156.791 110.005 156.791C103.838 156.791 100.754 157.94 100.754 160.24C100.754 163.376 104.308 165.415 111.416 166.355C118.315 167.087 125.006 169.073 131.487 172.314C134.518 173.777 137.027 176.338 139.013 179.997C141.104 183.551 142.149 188.046 142.149 193.482C142.149 198.917 141.104 203.569 139.013 207.437C137.027 211.2 134.204 214.023 130.546 215.904C123.856 219.145 115.441 220.765 105.301 220.765C95.2658 220.765 85.5965 217.838 76.293 211.984ZM215.879 137.661C222.047 140.379 225.131 143.672 225.131 147.539C225.131 149.421 224.712 151.198 223.876 152.871C223.04 154.543 222.622 155.432 222.622 155.536L181.54 247.421C180.704 249.407 179.972 250.923 179.345 251.968C178.822 253.013 177.934 254.007 176.679 254.947C175.425 255.888 173.857 256.359 171.975 256.359C170.094 256.359 167.324 255.575 163.665 254.007C157.497 251.289 154.414 248.048 154.414 244.285C154.414 241.776 159.431 229.807 169.467 208.378L138.263 155.85C136.173 152.4 135.127 149.839 135.127 148.167C135.127 144.821 137.95 141.476 143.595 138.131C147.149 136.041 149.919 134.995 151.905 134.995C153.891 134.995 155.511 135.413 156.766 136.25C158.02 137.086 158.909 137.975 159.431 138.915C160.059 139.752 162.933 144.612 168.055 153.498C173.282 162.279 178.247 170.484 182.951 178.115C183.474 176.443 186.296 170.014 191.419 158.829C196.541 147.539 199.259 141.529 199.572 140.797C199.99 140.065 200.617 139.177 201.454 138.131C202.813 136.354 204.694 135.466 207.099 135.466C209.607 135.466 212.534 136.197 215.879 137.661ZM271.034 136.72C281.487 136.72 290.163 140.745 297.062 148.794C304.066 156.738 307.568 166.46 307.568 177.959V205.555C307.568 207.96 307.464 209.789 307.254 211.043C307.15 212.193 306.732 213.5 306 214.963C304.537 217.786 300.46 219.197 293.77 219.197C286.348 219.197 282.062 217.263 280.912 213.395C280.285 211.618 279.971 208.953 279.971 205.399V177.802C279.971 173.516 278.717 170.171 276.208 167.767C273.804 165.362 270.511 164.16 266.33 164.16C262.253 164.16 258.908 165.415 256.294 167.923C253.786 170.432 252.531 173.725 252.531 177.802V205.555C252.531 207.96 252.427 209.789 252.218 211.043C252.113 212.193 251.643 213.5 250.806 214.963C249.448 217.786 245.423 219.197 238.733 219.197C232.147 219.197 228.123 217.786 226.659 214.963C225.928 213.395 225.457 212.036 225.248 210.887C225.144 209.632 225.091 207.803 225.091 205.399V149.891C225.091 147.592 225.144 145.867 225.248 144.717C225.457 143.463 225.98 142.104 226.816 140.64C228.28 138.027 232.304 136.72 238.89 136.72C245.266 136.72 249.186 137.922 250.65 140.327C251.695 142.104 252.218 144.247 252.218 146.755C252.636 146.024 253.577 144.978 255.04 143.619C256.504 142.26 257.915 141.163 259.274 140.327C262.828 137.922 266.748 136.72 271.034 136.72ZM366.752 145.501C367.379 139.647 371.508 136.72 379.139 136.72C383.216 136.72 386.247 137.034 388.233 137.661C390.219 138.288 391.578 139.386 392.31 140.954C393.146 142.522 393.617 143.933 393.721 145.187C393.93 146.337 394.035 148.114 394.035 150.519V205.399C394.035 207.803 393.93 209.632 393.721 210.887C393.617 212.036 393.198 213.395 392.467 214.963C391.003 217.681 387.397 219.04 381.648 219.04C376.003 219.04 372.187 218.361 370.201 217.002C368.32 215.538 367.222 213.448 366.908 210.73C363.041 216.27 356.56 219.04 347.465 219.04C338.475 219.04 330.113 214.911 322.377 206.653C314.642 198.395 310.774 188.83 310.774 177.959C310.774 166.983 314.642 157.418 322.377 149.264C330.217 141.006 338.789 136.877 348.092 136.877C351.646 136.877 354.887 137.504 357.814 138.759C360.741 140.013 362.779 141.215 363.929 142.365C365.079 143.41 366.02 144.456 366.752 145.501ZM338.214 178.115C338.214 181.565 339.573 184.701 342.291 187.523C345.009 190.241 348.301 191.6 352.169 191.6C356.037 191.6 359.225 190.189 361.734 187.367C364.347 184.544 365.654 181.46 365.654 178.115C365.654 174.666 364.4 171.477 361.891 168.551C359.486 165.624 356.194 164.16 352.012 164.16C347.936 164.16 344.59 165.624 341.977 168.551C339.468 171.477 338.214 174.666 338.214 178.115ZM399.476 241.776V150.205C399.476 147.801 399.528 146.024 399.633 144.874C399.842 143.724 400.312 142.417 401.044 140.954C402.508 138.131 406.009 136.72 411.55 136.72C417.09 136.72 420.801 137.452 422.683 138.915C424.669 140.274 425.819 142.313 426.132 145.031C430.104 139.595 436.324 136.877 444.791 136.877C453.363 136.877 461.464 140.901 469.095 148.951C476.726 157 480.542 166.355 480.542 177.018C480.542 187.68 476.726 197.036 469.095 205.085C461.569 213.134 453.52 217.159 444.948 217.159C436.376 217.159 430.157 214.754 426.289 209.946V241.619C426.289 244.024 426.184 245.801 425.975 246.951C425.871 248.1 425.4 249.407 424.564 250.871C423.832 252.439 422.526 253.536 420.644 254.163C418.763 254.791 416.201 255.104 412.961 255.104C409.72 255.104 407.107 254.791 405.121 254.163C403.239 253.536 401.88 252.491 401.044 251.027C400.312 249.564 399.842 248.257 399.633 247.107C399.528 245.957 399.476 244.18 399.476 241.776ZM430.523 167.923C428.118 170.746 426.916 173.829 426.916 177.175C426.916 180.52 428.118 183.603 430.523 186.426C433.031 189.144 436.167 190.503 439.931 190.503C443.798 190.503 447.039 189.144 449.652 186.426C452.37 183.708 453.729 180.624 453.729 177.175C453.729 173.725 452.475 170.641 449.966 167.923C447.457 165.101 444.164 163.69 440.087 163.69C436.115 163.69 432.927 165.101 430.523 167.923ZM484.31 211.984C482.324 210.73 481.331 208.744 481.331 206.026C481.331 203.308 483.317 199.179 487.289 193.639C488.439 191.861 490.268 190.973 492.777 190.973C495.39 190.973 498.892 192.28 503.283 194.893C507.673 197.402 511.645 198.656 515.199 198.656C521.576 198.656 524.764 197.402 524.764 194.893C524.764 192.907 521.262 191.443 514.259 190.503C507.673 189.562 501.14 187.105 494.659 183.133C491.627 181.251 489.118 178.324 487.132 174.352C485.146 170.275 484.153 165.467 484.153 159.927C484.153 143.41 495.495 135.152 518.179 135.152C525.601 135.152 533.231 136.929 541.071 140.483C544.73 142.156 546.559 144.247 546.559 146.755C546.559 149.264 545.41 152.348 543.11 156.007C540.81 159.665 538.458 161.495 536.054 161.495C534.799 161.495 532.447 160.711 528.998 159.143C525.653 157.575 521.994 156.791 518.022 156.791C511.854 156.791 508.771 157.94 508.771 160.24C508.771 163.376 512.325 165.415 519.433 166.355C526.332 167.087 533.022 169.073 539.503 172.314C542.535 173.777 545.044 176.338 547.03 179.997C549.121 183.551 550.166 188.046 550.166 193.482C550.166 198.917 549.121 203.569 547.03 207.437C545.044 211.2 542.221 214.023 538.563 215.904C531.873 219.145 523.458 220.765 513.318 220.765C503.283 220.765 493.613 217.838 484.31 211.984ZM632.997 168.237C632.997 174.613 631.376 179.37 628.136 182.506C625 185.537 621.498 187.053 617.63 187.053H580.469C580.469 189.98 582.194 192.436 585.643 194.423C589.093 196.409 592.542 197.402 595.992 197.402C602.055 197.402 606.811 196.775 610.261 195.52L611.986 194.893C614.494 193.743 616.585 193.168 618.258 193.168C621.603 193.168 624.477 195.52 626.882 200.224C628.24 203.047 628.92 205.451 628.92 207.437C628.92 216.74 617.787 221.392 595.522 221.392C587.786 221.392 580.887 220.085 574.824 217.472C568.866 214.754 564.214 211.2 560.869 206.81C554.283 198.343 550.99 188.882 550.99 178.429C550.99 165.258 555.224 154.752 563.691 146.912C572.263 138.968 582.925 134.995 595.678 134.995C610.208 134.995 620.871 140.117 627.666 150.362C631.22 155.797 632.997 161.756 632.997 168.237ZM599.912 172.784C603.884 172.784 605.87 171.112 605.87 167.767C605.87 165.362 604.93 163.428 603.048 161.965C601.271 160.501 598.658 159.77 595.208 159.77C591.863 159.77 588.518 161.181 585.173 164.003C581.828 166.721 580.155 169.648 580.155 172.784H599.912Z"
                      fill="#4F9082"/>
                <path id="synapse_3"
                      d="M76.9053 213.821C74.9192 212.566 73.9261 210.58 73.9261 207.862C73.9261 205.144 75.9122 201.015 79.8845 195.475C81.0344 193.698 82.8637 192.809 85.3725 192.809C87.9858 192.809 91.4877 194.116 95.8781 196.729C100.269 199.238 104.241 200.493 107.795 200.493C114.171 200.493 117.36 199.238 117.36 196.729C117.36 194.743 113.858 193.28 106.854 192.339C100.269 191.398 93.7352 188.942 87.2541 184.969C84.2226 183.088 81.7138 180.161 79.7277 176.189C77.7416 172.112 76.7485 167.303 76.7485 161.763C76.7485 145.247 88.0904 136.989 110.774 136.989C118.196 136.989 125.827 138.766 133.667 142.32C137.326 143.992 139.155 146.083 139.155 148.592C139.155 151.101 138.005 154.184 135.705 157.843C133.406 161.502 131.054 163.331 128.649 163.331C127.395 163.331 125.043 162.547 121.593 160.979C118.248 159.411 114.59 158.627 110.617 158.627C104.45 158.627 101.366 159.777 101.366 162.077C101.366 165.213 104.92 167.251 112.029 168.192C118.928 168.924 125.618 170.91 132.099 174.15C135.13 175.614 137.639 178.175 139.625 181.833C141.716 185.388 142.761 189.882 142.761 195.318C142.761 200.754 141.716 205.406 139.625 209.273C137.639 213.037 134.817 215.859 131.158 217.741C124.468 220.981 116.053 222.601 105.913 222.601C95.8781 222.601 86.2088 219.674 76.9053 213.821ZM216.492 139.497C222.659 142.215 225.743 145.508 225.743 149.376C225.743 151.257 225.325 153.034 224.488 154.707C223.652 156.38 223.234 157.268 223.234 157.373L182.152 249.257C181.316 251.244 180.584 252.759 179.957 253.805C179.435 254.85 178.546 255.843 177.292 256.784C176.037 257.725 174.469 258.195 172.588 258.195C170.706 258.195 167.936 257.411 164.277 255.843C158.11 253.125 155.026 249.885 155.026 246.121C155.026 243.613 160.044 231.644 170.079 210.214L138.876 157.686C136.785 154.237 135.74 151.676 135.74 150.003C135.74 146.658 138.562 143.313 144.207 139.968C147.761 137.877 150.531 136.832 152.517 136.832C154.503 136.832 156.124 137.25 157.378 138.086C158.632 138.922 159.521 139.811 160.044 140.752C160.671 141.588 163.545 146.449 168.668 155.334C173.894 164.115 178.86 172.321 183.564 179.952C184.086 178.279 186.909 171.85 192.031 160.665C197.153 149.376 199.871 143.365 200.184 142.633C200.603 141.902 201.23 141.013 202.066 139.968C203.425 138.191 205.307 137.302 207.711 137.302C210.22 137.302 213.147 138.034 216.492 139.497ZM271.646 138.557C282.099 138.557 290.776 142.581 297.675 150.63C304.679 158.575 308.18 168.296 308.18 179.795V207.392C308.18 209.796 308.076 211.625 307.867 212.88C307.762 214.03 307.344 215.336 306.612 216.8C305.149 219.622 301.072 221.033 294.382 221.033C286.96 221.033 282.674 219.1 281.524 215.232C280.897 213.455 280.584 210.789 280.584 207.235V179.638C280.584 175.352 279.329 172.007 276.82 169.603C274.416 167.199 271.123 165.997 266.942 165.997C262.865 165.997 259.52 167.251 256.907 169.76C254.398 172.269 253.144 175.561 253.144 179.638V207.392C253.144 209.796 253.039 211.625 252.83 212.88C252.725 214.03 252.255 215.336 251.419 216.8C250.06 219.622 246.035 221.033 239.345 221.033C232.76 221.033 228.735 219.622 227.272 216.8C226.54 215.232 226.069 213.873 225.86 212.723C225.756 211.469 225.704 209.639 225.704 207.235V151.728C225.704 149.428 225.756 147.703 225.86 146.553C226.069 145.299 226.592 143.94 227.428 142.477C228.892 139.863 232.916 138.557 239.502 138.557C245.879 138.557 249.799 139.759 251.262 142.163C252.307 143.94 252.83 146.083 252.83 148.592C253.248 147.86 254.189 146.815 255.652 145.456C257.116 144.097 258.527 142.999 259.886 142.163C263.44 139.759 267.36 138.557 271.646 138.557ZM367.364 147.337C367.991 141.484 372.12 138.557 379.751 138.557C383.828 138.557 386.859 138.87 388.845 139.497C390.832 140.125 392.191 141.222 392.922 142.79C393.759 144.358 394.229 145.769 394.333 147.024C394.543 148.174 394.647 149.951 394.647 152.355V207.235C394.647 209.639 394.543 211.469 394.333 212.723C394.229 213.873 393.811 215.232 393.079 216.8C391.616 219.518 388.009 220.877 382.26 220.877C376.615 220.877 372.8 220.197 370.813 218.838C368.932 217.375 367.834 215.284 367.521 212.566C363.653 218.106 357.172 220.877 348.077 220.877C339.088 220.877 330.725 216.748 322.989 208.489C315.254 200.231 311.386 190.666 311.386 179.795C311.386 168.819 315.254 159.254 322.989 151.101C330.829 142.842 339.401 138.713 348.705 138.713C352.259 138.713 355.499 139.341 358.426 140.595C361.353 141.849 363.392 143.052 364.541 144.201C365.691 145.247 366.632 146.292 367.364 147.337ZM338.826 179.952C338.826 183.401 340.185 186.537 342.903 189.36C345.621 192.078 348.914 193.437 352.781 193.437C356.649 193.437 359.837 192.025 362.346 189.203C364.96 186.381 366.266 183.297 366.266 179.952C366.266 176.502 365.012 173.314 362.503 170.387C360.099 167.46 356.806 165.997 352.625 165.997C348.548 165.997 345.203 167.46 342.589 170.387C340.081 173.314 338.826 176.502 338.826 179.952ZM400.088 243.613V152.041C400.088 149.637 400.141 147.86 400.245 146.71C400.454 145.56 400.925 144.254 401.656 142.79C403.12 139.968 406.622 138.557 412.162 138.557C417.702 138.557 421.413 139.288 423.295 140.752C425.281 142.111 426.431 144.149 426.744 146.867C430.717 141.431 436.936 138.713 445.404 138.713C453.975 138.713 462.077 142.738 469.708 150.787C477.339 158.836 481.154 168.192 481.154 178.854C481.154 189.517 477.339 198.872 469.708 206.921C462.181 214.97 454.132 218.995 445.56 218.995C436.989 218.995 430.769 216.591 426.901 211.782V243.456C426.901 245.86 426.797 247.637 426.588 248.787C426.483 249.937 426.013 251.244 425.176 252.707C424.445 254.275 423.138 255.373 421.256 256C419.375 256.627 416.814 256.941 413.573 256.941C410.333 256.941 407.719 256.627 405.733 256C403.852 255.373 402.493 254.327 401.656 252.864C400.925 251.4 400.454 250.094 400.245 248.944C400.141 247.794 400.088 246.017 400.088 243.613ZM431.135 169.76C428.731 172.582 427.528 175.666 427.528 179.011C427.528 182.356 428.731 185.44 431.135 188.262C433.644 190.98 436.78 192.339 440.543 192.339C444.411 192.339 447.651 190.98 450.264 188.262C452.982 185.544 454.341 182.461 454.341 179.011C454.341 175.561 453.087 172.478 450.578 169.76C448.069 166.937 444.776 165.526 440.7 165.526C436.727 165.526 433.539 166.937 431.135 169.76ZM484.922 213.821C482.936 212.566 481.943 210.58 481.943 207.862C481.943 205.144 483.929 201.015 487.901 195.475C489.051 193.698 490.881 192.809 493.389 192.809C496.003 192.809 499.505 194.116 503.895 196.729C508.285 199.238 512.258 200.493 515.812 200.493C522.188 200.493 525.377 199.238 525.377 196.729C525.377 194.743 521.875 193.28 514.871 192.339C508.285 191.398 501.752 188.942 495.271 184.969C492.24 183.088 489.731 180.161 487.745 176.189C485.758 172.112 484.765 167.303 484.765 161.763C484.765 145.247 496.107 136.989 518.791 136.989C526.213 136.989 533.844 138.766 541.684 142.32C545.342 143.992 547.172 146.083 547.172 148.592C547.172 151.101 546.022 154.184 543.722 157.843C541.422 161.502 539.07 163.331 536.666 163.331C535.412 163.331 533.06 162.547 529.61 160.979C526.265 159.411 522.606 158.627 518.634 158.627C512.467 158.627 509.383 159.777 509.383 162.077C509.383 165.213 512.937 167.251 520.045 168.192C526.945 168.924 533.635 170.91 540.116 174.15C543.147 175.614 545.656 178.175 547.642 181.833C549.733 185.388 550.778 189.882 550.778 195.318C550.778 200.754 549.733 205.406 547.642 209.273C545.656 213.037 542.834 215.859 539.175 217.741C532.485 220.981 524.07 222.601 513.93 222.601C503.895 222.601 494.226 219.674 484.922 213.821ZM633.609 170.073C633.609 176.45 631.989 181.206 628.748 184.342C625.612 187.374 622.11 188.889 618.243 188.889H581.081C581.081 191.816 582.806 194.273 586.255 196.259C589.705 198.245 593.155 199.238 596.604 199.238C602.667 199.238 607.423 198.611 610.873 197.357L612.598 196.729C615.107 195.58 617.197 195.005 618.87 195.005C622.215 195.005 625.09 197.357 627.494 202.061C628.853 204.883 629.532 207.287 629.532 209.273C629.532 218.577 618.399 223.229 596.134 223.229C588.398 223.229 581.499 221.922 575.436 219.309C569.478 216.591 564.826 213.037 561.481 208.646C554.895 200.179 551.603 190.719 551.603 180.265C551.603 167.094 555.836 156.589 564.303 148.749C572.875 140.804 583.538 136.832 596.291 136.832C610.821 136.832 621.483 141.954 628.278 152.198C631.832 157.634 633.609 163.592 633.609 170.073ZM600.524 174.621C604.496 174.621 606.483 172.948 606.483 169.603C606.483 167.199 605.542 165.265 603.66 163.801C601.883 162.338 599.27 161.606 595.82 161.606C592.475 161.606 589.13 163.017 585.785 165.84C582.44 168.558 580.767 171.485 580.767 174.621H600.524Z"
                      fill="#4F9182"/>
                <path id="synapse_4"
                      d="M77.5176 215.657C75.5315 214.403 74.5384 212.416 74.5384 209.699C74.5384 206.981 76.5245 202.852 80.4968 197.311C81.6467 195.534 83.476 194.646 85.9848 194.646C88.5981 194.646 92.1 195.952 96.4904 198.566C100.881 201.075 104.853 202.329 108.407 202.329C114.784 202.329 117.972 201.075 117.972 198.566C117.972 196.58 114.47 195.116 107.466 194.175C100.881 193.235 94.3475 190.778 87.8664 186.806C84.8349 184.924 82.3261 181.997 80.34 178.025C78.3539 173.948 77.3608 169.14 77.3608 163.599C77.3608 147.083 88.7027 138.825 111.386 138.825C118.808 138.825 126.439 140.602 134.279 144.156C137.938 145.829 139.767 147.919 139.767 150.428C139.767 152.937 138.617 156.021 136.318 159.679C134.018 163.338 131.666 165.167 129.262 165.167C128.007 165.167 125.655 164.383 122.206 162.815C118.861 161.247 115.202 160.463 111.23 160.463C105.062 160.463 101.978 161.613 101.978 163.913C101.978 167.049 105.533 169.087 112.641 170.028C119.54 170.76 126.23 172.746 132.711 175.987C135.743 177.45 138.251 180.011 140.238 183.67C142.328 187.224 143.374 191.719 143.374 197.155C143.374 202.59 142.328 207.242 140.238 211.11C138.251 214.873 135.429 217.695 131.77 219.577C125.08 222.818 116.665 224.438 106.526 224.438C96.4904 224.438 86.8211 221.511 77.5176 215.657ZM217.104 141.334C223.271 144.052 226.355 147.344 226.355 151.212C226.355 153.094 225.937 154.871 225.101 156.543C224.264 158.216 223.846 159.104 223.846 159.209L182.765 251.094C181.928 253.08 181.197 254.596 180.57 255.641C180.047 256.686 179.158 257.679 177.904 258.62C176.65 259.561 175.082 260.031 173.2 260.031C171.318 260.031 168.548 259.247 164.89 257.679C158.722 254.962 155.638 251.721 155.638 247.958C155.638 245.449 160.656 233.48 170.691 212.051L139.488 159.523C137.397 156.073 136.352 153.512 136.352 151.839C136.352 148.494 139.174 145.149 144.819 141.804C148.373 139.714 151.143 138.668 153.13 138.668C155.116 138.668 156.736 139.086 157.99 139.923C159.245 140.759 160.133 141.647 160.656 142.588C161.283 143.424 164.158 148.285 169.28 157.171C174.507 165.951 179.472 174.157 184.176 181.788C184.699 180.116 187.521 173.687 192.643 162.502C197.765 151.212 200.483 145.202 200.797 144.47C201.215 143.738 201.842 142.85 202.678 141.804C204.037 140.027 205.919 139.139 208.323 139.139C210.832 139.139 213.759 139.87 217.104 141.334ZM272.258 140.393C282.712 140.393 291.388 144.418 298.287 152.467C305.291 160.411 308.793 170.133 308.793 181.631V209.228C308.793 211.632 308.688 213.462 308.479 214.716C308.375 215.866 307.956 217.173 307.225 218.636C305.761 221.459 301.684 222.87 294.994 222.87C287.572 222.87 283.287 220.936 282.137 217.068C281.51 215.291 281.196 212.626 281.196 209.071V181.475C281.196 177.189 279.942 173.844 277.433 171.439C275.028 169.035 271.736 167.833 267.554 167.833C263.478 167.833 260.132 169.087 257.519 171.596C255.01 174.105 253.756 177.398 253.756 181.475V209.228C253.756 211.632 253.651 213.462 253.442 214.716C253.338 215.866 252.867 217.173 252.031 218.636C250.672 221.459 246.648 222.87 239.958 222.87C233.372 222.87 229.347 221.459 227.884 218.636C227.152 217.068 226.682 215.709 226.473 214.559C226.368 213.305 226.316 211.476 226.316 209.071V153.564C226.316 151.264 226.368 149.54 226.473 148.39C226.682 147.135 227.204 145.776 228.041 144.313C229.504 141.7 233.529 140.393 240.114 140.393C246.491 140.393 250.411 141.595 251.874 143.999C252.92 145.776 253.442 147.919 253.442 150.428C253.86 149.696 254.801 148.651 256.265 147.292C257.728 145.933 259.139 144.836 260.498 143.999C264.052 141.595 267.972 140.393 272.258 140.393ZM367.976 149.174C368.603 143.32 372.732 140.393 380.363 140.393C384.44 140.393 387.472 140.707 389.458 141.334C391.444 141.961 392.803 143.059 393.535 144.627C394.371 146.195 394.841 147.606 394.946 148.86C395.155 150.01 395.259 151.787 395.259 154.191V209.071C395.259 211.476 395.155 213.305 394.946 214.559C394.841 215.709 394.423 217.068 393.691 218.636C392.228 221.354 388.621 222.713 382.872 222.713C377.227 222.713 373.412 222.034 371.426 220.675C369.544 219.211 368.447 217.12 368.133 214.403C364.265 219.943 357.784 222.713 348.69 222.713C339.7 222.713 331.337 218.584 323.602 210.326C315.866 202.068 311.999 192.503 311.999 181.631C311.999 170.655 315.866 161.091 323.602 152.937C331.442 144.679 340.013 140.55 349.317 140.55C352.871 140.55 356.112 141.177 359.039 142.431C361.965 143.686 364.004 144.888 365.154 146.038C366.304 147.083 367.244 148.128 367.976 149.174ZM339.439 181.788C339.439 185.238 340.797 188.374 343.515 191.196C346.233 193.914 349.526 195.273 353.394 195.273C357.261 195.273 360.45 193.862 362.959 191.039C365.572 188.217 366.879 185.133 366.879 181.788C366.879 178.339 365.624 175.15 363.115 172.223C360.711 169.296 357.418 167.833 353.237 167.833C349.16 167.833 345.815 169.296 343.202 172.223C340.693 175.15 339.439 178.339 339.439 181.788ZM400.701 245.449V153.878C400.701 151.474 400.753 149.696 400.858 148.547C401.067 147.397 401.537 146.09 402.269 144.627C403.732 141.804 407.234 140.393 412.774 140.393C418.315 140.393 422.026 141.125 423.907 142.588C425.893 143.947 427.043 145.986 427.357 148.703C431.329 143.268 437.549 140.55 446.016 140.55C454.588 140.55 462.689 144.574 470.32 152.623C477.951 160.672 481.766 170.028 481.766 180.691C481.766 191.353 477.951 200.709 470.32 208.758C462.794 216.807 454.745 220.831 446.173 220.831C437.601 220.831 431.381 218.427 427.514 213.619V245.292C427.514 247.696 427.409 249.474 427.2 250.623C427.095 251.773 426.625 253.08 425.789 254.543C425.057 256.111 423.75 257.209 421.869 257.836C419.987 258.463 417.426 258.777 414.186 258.777C410.945 258.777 408.332 258.463 406.346 257.836C404.464 257.209 403.105 256.164 402.269 254.7C401.537 253.237 401.067 251.93 400.858 250.78C400.753 249.63 400.701 247.853 400.701 245.449ZM431.747 171.596C429.343 174.419 428.141 177.502 428.141 180.847C428.141 184.192 429.343 187.276 431.747 190.099C434.256 192.816 437.392 194.175 441.155 194.175C445.023 194.175 448.263 192.816 450.877 190.099C453.595 187.381 454.954 184.297 454.954 180.847C454.954 177.398 453.699 174.314 451.19 171.596C448.682 168.774 445.389 167.363 441.312 167.363C437.34 167.363 434.151 168.774 431.747 171.596ZM485.534 215.657C483.548 214.403 482.555 212.416 482.555 209.699C482.555 206.981 484.541 202.852 488.514 197.311C489.664 195.534 491.493 194.646 494.002 194.646C496.615 194.646 500.117 195.952 504.507 198.566C508.898 201.075 512.87 202.329 516.424 202.329C522.801 202.329 525.989 201.075 525.989 198.566C525.989 196.58 522.487 195.116 515.483 194.175C508.898 193.235 502.364 190.778 495.883 186.806C492.852 184.924 490.343 181.997 488.357 178.025C486.371 173.948 485.378 169.14 485.378 163.599C485.378 147.083 496.72 138.825 519.403 138.825C526.825 138.825 534.456 140.602 542.296 144.156C545.955 145.829 547.784 147.919 547.784 150.428C547.784 152.937 546.634 156.021 544.334 159.679C542.035 163.338 539.683 165.167 537.278 165.167C536.024 165.167 533.672 164.383 530.222 162.815C526.877 161.247 523.219 160.463 519.246 160.463C513.079 160.463 509.995 161.613 509.995 163.913C509.995 167.049 513.549 169.087 520.658 170.028C527.557 170.76 534.247 172.746 540.728 175.987C543.76 177.45 546.268 180.011 548.254 183.67C550.345 187.224 551.39 191.719 551.39 197.155C551.39 202.59 550.345 207.242 548.254 211.11C546.268 214.873 543.446 217.695 539.787 219.577C533.097 222.818 524.682 224.438 514.542 224.438C504.507 224.438 494.838 221.511 485.534 215.657ZM634.221 171.91C634.221 178.286 632.601 183.043 629.361 186.179C626.225 189.21 622.723 190.726 618.855 190.726H581.693C581.693 193.653 583.418 196.109 586.868 198.095C590.317 200.082 593.767 201.075 597.217 201.075C603.279 201.075 608.036 200.447 611.485 199.193L613.21 198.566C615.719 197.416 617.81 196.841 619.482 196.841C622.827 196.841 625.702 199.193 628.106 203.897C629.465 206.719 630.145 209.124 630.145 211.11C630.145 220.413 619.012 225.065 596.746 225.065C589.011 225.065 582.111 223.758 576.049 221.145C570.09 218.427 565.438 214.873 562.093 210.483C555.508 202.015 552.215 192.555 552.215 182.102C552.215 168.931 556.449 158.425 564.916 150.585C573.487 142.64 584.15 138.668 596.903 138.668C611.433 138.668 622.095 143.79 628.89 154.035C632.444 159.47 634.221 165.429 634.221 171.91ZM601.137 176.457C605.109 176.457 607.095 174.784 607.095 171.439C607.095 169.035 606.154 167.101 604.273 165.638C602.495 164.174 599.882 163.443 596.433 163.443C593.087 163.443 589.742 164.854 586.397 167.676C583.052 170.394 581.38 173.321 581.38 176.457H601.137Z"
                      fill="#4F9082"/>
                <path id="synapse_5"
                      d="M78.1299 217.493C76.1438 216.239 75.1507 214.253 75.1507 211.535C75.1507 208.817 77.1368 204.688 81.1091 199.148C82.259 197.371 84.0883 196.482 86.5971 196.482C89.2104 196.482 92.7123 197.789 97.1027 200.402C101.493 202.911 105.465 204.165 109.02 204.165C115.396 204.165 118.584 202.911 118.584 200.402C118.584 198.416 115.082 196.953 108.079 196.012C101.493 195.071 94.9598 192.615 88.4787 188.642C85.4472 186.761 82.9384 183.834 80.9523 179.861C78.9662 175.785 77.9731 170.976 77.9731 165.436C77.9731 148.92 89.315 140.661 111.999 140.661C119.421 140.661 127.052 142.439 134.892 145.993C138.55 147.665 140.38 149.756 140.38 152.265C140.38 154.773 139.23 157.857 136.93 161.516C134.63 165.175 132.278 167.004 129.874 167.004C128.62 167.004 126.268 166.22 122.818 164.652C119.473 163.084 115.814 162.3 111.842 162.3C105.674 162.3 102.591 163.45 102.591 165.749C102.591 168.885 106.145 170.924 113.253 171.865C120.152 172.596 126.842 174.582 133.324 177.823C136.355 179.287 138.864 181.848 140.85 185.506C142.941 189.06 143.986 193.555 143.986 198.991C143.986 204.427 142.941 209.079 140.85 212.946C138.864 216.709 136.041 219.532 132.383 221.413C125.693 224.654 117.278 226.274 107.138 226.274C97.1027 226.274 87.4334 223.347 78.1299 217.493ZM217.716 143.17C223.884 145.888 226.967 149.181 226.967 153.049C226.967 154.93 226.549 156.707 225.713 158.38C224.877 160.052 224.459 160.941 224.459 161.045L183.377 252.93C182.541 254.916 181.809 256.432 181.182 257.477C180.659 258.523 179.771 259.516 178.516 260.457C177.262 261.397 175.694 261.868 173.812 261.868C171.931 261.868 169.16 261.084 165.502 259.516C159.334 256.798 156.251 253.557 156.251 249.794C156.251 247.285 161.268 235.316 171.303 213.887L140.1 161.359C138.01 157.909 136.964 155.348 136.964 153.676C136.964 150.331 139.787 146.986 145.431 143.641C148.986 141.55 151.756 140.505 153.742 140.505C155.728 140.505 157.348 140.923 158.603 141.759C159.857 142.595 160.746 143.484 161.268 144.425C161.895 145.261 164.77 150.122 169.892 159.007C175.119 167.788 180.084 175.994 184.788 183.625C185.311 181.952 188.133 175.523 193.255 164.338C198.378 153.049 201.095 147.038 201.409 146.306C201.827 145.574 202.454 144.686 203.291 143.641C204.65 141.864 206.531 140.975 208.935 140.975C211.444 140.975 214.371 141.707 217.716 143.17ZM272.871 142.229C283.324 142.229 292 146.254 298.899 154.303C305.903 162.248 309.405 171.969 309.405 183.468V211.065C309.405 213.469 309.3 215.298 309.091 216.553C308.987 217.703 308.569 219.009 307.837 220.473C306.374 223.295 302.297 224.706 295.607 224.706C288.185 224.706 283.899 222.772 282.749 218.905C282.122 217.128 281.808 214.462 281.808 210.908V183.311C281.808 179.025 280.554 175.68 278.045 173.276C275.641 170.872 272.348 169.669 268.167 169.669C264.09 169.669 260.745 170.924 258.131 173.433C255.623 175.941 254.368 179.234 254.368 183.311V211.065C254.368 213.469 254.264 215.298 254.055 216.553C253.95 217.703 253.48 219.009 252.643 220.473C251.284 223.295 247.26 224.706 240.57 224.706C233.984 224.706 229.96 223.295 228.496 220.473C227.764 218.905 227.294 217.546 227.085 216.396C226.98 215.141 226.928 213.312 226.928 210.908V155.401C226.928 153.101 226.98 151.376 227.085 150.226C227.294 148.972 227.817 147.613 228.653 146.149C230.116 143.536 234.141 142.229 240.727 142.229C247.103 142.229 251.023 143.432 252.487 145.836C253.532 147.613 254.055 149.756 254.055 152.265C254.473 151.533 255.414 150.488 256.877 149.129C258.34 147.77 259.752 146.672 261.111 145.836C264.665 143.432 268.585 142.229 272.871 142.229ZM368.588 151.01C369.216 145.156 373.345 142.229 380.976 142.229C385.052 142.229 388.084 142.543 390.07 143.17C392.056 143.797 393.415 144.895 394.147 146.463C394.983 148.031 395.454 149.442 395.558 150.697C395.767 151.847 395.872 153.624 395.872 156.028V210.908C395.872 213.312 395.767 215.141 395.558 216.396C395.454 217.546 395.035 218.905 394.304 220.473C392.84 223.191 389.234 224.549 383.484 224.549C377.84 224.549 374.024 223.87 372.038 222.511C370.156 221.048 369.059 218.957 368.745 216.239C364.878 221.779 358.396 224.549 349.302 224.549C340.312 224.549 331.95 220.42 324.214 212.162C316.479 203.904 312.611 194.339 312.611 183.468C312.611 172.492 316.479 162.927 324.214 154.773C332.054 146.515 340.626 142.386 349.929 142.386C353.483 142.386 356.724 143.013 359.651 144.268C362.578 145.522 364.616 146.724 365.766 147.874C366.916 148.92 367.857 149.965 368.588 151.01ZM340.051 183.625C340.051 187.074 341.41 190.21 344.128 193.033C346.846 195.751 350.138 197.109 354.006 197.109C357.874 197.109 361.062 195.698 363.571 192.876C366.184 190.053 367.491 186.97 367.491 183.625C367.491 180.175 366.236 176.987 363.728 174.06C361.323 171.133 358.031 169.669 353.849 169.669C349.772 169.669 346.427 171.133 343.814 174.06C341.305 176.987 340.051 180.175 340.051 183.625ZM401.313 247.285V155.714C401.313 153.31 401.365 151.533 401.47 150.383C401.679 149.233 402.149 147.926 402.881 146.463C404.345 143.641 407.846 142.229 413.387 142.229C418.927 142.229 422.638 142.961 424.519 144.425C426.506 145.784 427.655 147.822 427.969 150.54C431.941 145.104 438.161 142.386 446.628 142.386C455.2 142.386 463.301 146.411 470.932 154.46C478.563 162.509 482.379 171.865 482.379 182.527C482.379 193.189 478.563 202.545 470.932 210.594C463.406 218.643 455.357 222.668 446.785 222.668C438.213 222.668 431.994 220.264 428.126 215.455V247.129C428.126 249.533 428.021 251.31 427.812 252.46C427.708 253.61 427.237 254.916 426.401 256.38C425.669 257.948 424.363 259.045 422.481 259.673C420.599 260.3 418.038 260.613 414.798 260.613C411.557 260.613 408.944 260.3 406.958 259.673C405.076 259.045 403.717 258 402.881 256.537C402.149 255.073 401.679 253.767 401.47 252.617C401.365 251.467 401.313 249.69 401.313 247.285ZM432.359 173.433C429.955 176.255 428.753 179.339 428.753 182.684C428.753 186.029 429.955 189.113 432.359 191.935C434.868 194.653 438.004 196.012 441.767 196.012C445.635 196.012 448.876 194.653 451.489 191.935C454.207 189.217 455.566 186.133 455.566 182.684C455.566 179.234 454.311 176.151 451.803 173.433C449.294 170.61 446.001 169.199 441.924 169.199C437.952 169.199 434.764 170.61 432.359 173.433ZM486.147 217.493C484.161 216.239 483.168 214.253 483.168 211.535C483.168 208.817 485.154 204.688 489.126 199.148C490.276 197.371 492.105 196.482 494.614 196.482C497.227 196.482 500.729 197.789 505.12 200.402C509.51 202.911 513.482 204.165 517.036 204.165C523.413 204.165 526.601 202.911 526.601 200.402C526.601 198.416 523.099 196.953 516.096 196.012C509.51 195.071 502.977 192.615 496.496 188.642C493.464 186.761 490.955 183.834 488.969 179.861C486.983 175.785 485.99 170.976 485.99 165.436C485.99 148.92 497.332 140.661 520.016 140.661C527.437 140.661 535.068 142.439 542.908 145.993C546.567 147.665 548.396 149.756 548.396 152.265C548.396 154.773 547.247 157.857 544.947 161.516C542.647 165.175 540.295 167.004 537.891 167.004C536.636 167.004 534.284 166.22 530.835 164.652C527.49 163.084 523.831 162.3 519.859 162.3C513.691 162.3 510.608 163.45 510.608 165.749C510.608 168.885 514.162 170.924 521.27 171.865C528.169 172.596 534.859 174.582 541.34 177.823C544.372 179.287 546.881 181.848 548.867 185.506C550.957 189.06 552.003 193.555 552.003 198.991C552.003 204.427 550.957 209.079 548.867 212.946C546.881 216.709 544.058 219.532 540.4 221.413C533.709 224.654 525.295 226.274 515.155 226.274C505.12 226.274 495.45 223.347 486.147 217.493ZM634.834 173.746C634.834 180.123 633.213 184.879 629.973 188.015C626.837 191.047 623.335 192.562 619.467 192.562H582.306C582.306 195.489 584.03 197.946 587.48 199.932C590.93 201.918 594.379 202.911 597.829 202.911C603.892 202.911 608.648 202.284 612.098 201.029L613.822 200.402C616.331 199.252 618.422 198.677 620.094 198.677C623.439 198.677 626.314 201.029 628.718 205.733C630.077 208.556 630.757 210.96 630.757 212.946C630.757 222.25 619.624 226.901 597.358 226.901C589.623 226.901 582.724 225.595 576.661 222.981C570.702 220.264 566.051 216.709 562.706 212.319C556.12 203.852 552.827 194.392 552.827 183.938C552.827 170.767 557.061 160.261 565.528 152.421C574.1 144.477 584.762 140.505 597.515 140.505C612.045 140.505 622.708 145.627 629.502 155.871C633.057 161.307 634.834 167.265 634.834 173.746ZM601.749 178.293C605.721 178.293 607.707 176.621 607.707 173.276C607.707 170.872 606.766 168.938 604.885 167.474C603.108 166.011 600.494 165.279 597.045 165.279C593.7 165.279 590.355 166.69 587.01 169.513C583.665 172.23 581.992 175.157 581.992 178.293H601.749Z"
                      fill="#4F9182"/>
                <path id="synapse_6"
                      d="M78.7422 219.33C76.7561 218.075 75.763 216.089 75.763 213.371C75.763 210.654 77.7492 206.525 81.7214 200.984C82.8713 199.207 84.7006 198.319 87.2094 198.319C89.8228 198.319 93.3246 199.625 97.715 202.239C102.105 204.747 106.078 206.002 109.632 206.002C116.008 206.002 119.197 204.747 119.197 202.239C119.197 200.253 115.695 198.789 108.691 197.848C102.105 196.907 95.5721 194.451 89.091 190.479C86.0596 188.597 83.5508 185.67 81.5646 181.698C79.5785 177.621 78.5854 172.813 78.5854 167.272C78.5854 150.756 89.9273 142.498 112.611 142.498C120.033 142.498 127.664 144.275 135.504 147.829C139.162 149.502 140.992 151.592 140.992 154.101C140.992 156.61 139.842 159.694 137.542 163.352C135.242 167.011 132.89 168.84 130.486 168.84C129.232 168.84 126.88 168.056 123.43 166.488C120.085 164.92 116.426 164.136 112.454 164.136C106.287 164.136 103.203 165.286 103.203 167.586C103.203 170.722 106.757 172.76 113.865 173.701C120.765 174.433 127.455 176.419 133.936 179.659C136.967 181.123 139.476 183.684 141.462 187.343C143.553 190.897 144.598 195.392 144.598 200.827C144.598 206.263 143.553 210.915 141.462 214.783C139.476 218.546 136.654 221.368 132.995 223.25C126.305 226.49 117.89 228.111 107.75 228.111C97.715 228.111 88.0457 225.184 78.7422 219.33ZM218.329 145.007C224.496 147.725 227.58 151.017 227.58 154.885C227.58 156.767 227.162 158.544 226.325 160.216C225.489 161.889 225.071 162.777 225.071 162.882L183.989 254.767C183.153 256.753 182.421 258.269 181.794 259.314C181.271 260.359 180.383 261.352 179.129 262.293C177.874 263.234 176.306 263.704 174.425 263.704C172.543 263.704 169.773 262.92 166.114 261.352C159.947 258.634 156.863 255.394 156.863 251.631C156.863 249.122 161.881 237.153 171.916 215.723L140.713 163.195C138.622 159.746 137.577 157.185 137.577 155.512C137.577 152.167 140.399 148.822 146.044 145.477C149.598 143.386 152.368 142.341 154.354 142.341C156.34 142.341 157.961 142.759 159.215 143.595C160.469 144.432 161.358 145.32 161.881 146.261C162.508 147.097 165.382 151.958 170.505 160.843C175.731 169.624 180.697 177.83 185.401 185.461C185.923 183.789 188.746 177.36 193.868 166.175C198.99 154.885 201.708 148.874 202.021 148.143C202.439 147.411 203.067 146.522 203.903 145.477C205.262 143.7 207.143 142.811 209.548 142.811C212.057 142.811 214.983 143.543 218.329 145.007ZM273.483 144.066C283.936 144.066 292.613 148.09 299.512 156.139C306.515 164.084 310.017 173.806 310.017 185.304V212.901C310.017 215.305 309.913 217.135 309.704 218.389C309.599 219.539 309.181 220.846 308.449 222.309C306.986 225.131 302.909 226.543 296.219 226.543C288.797 226.543 284.511 224.609 283.361 220.741C282.734 218.964 282.421 216.298 282.421 212.744V185.147C282.421 180.862 281.166 177.517 278.657 175.112C276.253 172.708 272.96 171.506 268.779 171.506C264.702 171.506 261.357 172.76 258.744 175.269C256.235 177.778 254.981 181.071 254.981 185.147V212.901C254.981 215.305 254.876 217.135 254.667 218.389C254.562 219.539 254.092 220.846 253.256 222.309C251.897 225.131 247.872 226.543 241.182 226.543C234.597 226.543 230.572 225.131 229.109 222.309C228.377 220.741 227.906 219.382 227.697 218.232C227.593 216.978 227.541 215.149 227.541 212.744V157.237C227.541 154.937 227.593 153.213 227.697 152.063C227.906 150.808 228.429 149.449 229.265 147.986C230.729 145.373 234.753 144.066 241.339 144.066C247.715 144.066 251.635 145.268 253.099 147.672C254.144 149.449 254.667 151.592 254.667 154.101C255.085 153.369 256.026 152.324 257.489 150.965C258.953 149.606 260.364 148.509 261.723 147.672C265.277 145.268 269.197 144.066 273.483 144.066ZM369.201 152.847C369.828 146.993 373.957 144.066 381.588 144.066C385.665 144.066 388.696 144.379 390.682 145.007C392.668 145.634 394.027 146.731 394.759 148.299C395.595 149.867 396.066 151.279 396.17 152.533C396.379 153.683 396.484 155.46 396.484 157.864V212.744C396.484 215.149 396.379 216.978 396.17 218.232C396.066 219.382 395.648 220.741 394.916 222.309C393.452 225.027 389.846 226.386 384.097 226.386C378.452 226.386 374.636 225.706 372.65 224.347C370.769 222.884 369.671 220.793 369.358 218.075C365.49 223.616 359.009 226.386 349.914 226.386C340.924 226.386 332.562 222.257 324.826 213.999C317.091 205.741 313.223 196.176 313.223 185.304C313.223 174.328 317.091 164.763 324.826 156.61C332.666 148.352 341.238 144.223 350.542 144.223C354.096 144.223 357.336 144.85 360.263 146.104C363.19 147.359 365.228 148.561 366.378 149.711C367.528 150.756 368.469 151.801 369.201 152.847ZM340.663 185.461C340.663 188.911 342.022 192.047 344.74 194.869C347.458 197.587 350.751 198.946 354.618 198.946C358.486 198.946 361.674 197.535 364.183 194.712C366.796 191.89 368.103 188.806 368.103 185.461C368.103 182.011 366.849 178.823 364.34 175.896C361.936 172.969 358.643 171.506 354.462 171.506C350.385 171.506 347.04 172.969 344.426 175.896C341.918 178.823 340.663 182.011 340.663 185.461ZM401.925 249.122V157.551C401.925 155.146 401.978 153.369 402.082 152.219C402.291 151.07 402.762 149.763 403.493 148.299C404.957 145.477 408.459 144.066 413.999 144.066C419.539 144.066 423.25 144.798 425.132 146.261C427.118 147.62 428.268 149.658 428.581 152.376C432.554 146.941 438.773 144.223 447.241 144.223C455.812 144.223 463.914 148.247 471.545 156.296C479.176 164.345 482.991 173.701 482.991 184.363C482.991 195.026 479.176 204.382 471.545 212.431C464.018 220.48 455.969 224.504 447.397 224.504C438.826 224.504 432.606 222.1 428.738 217.291V248.965C428.738 251.369 428.634 253.146 428.425 254.296C428.32 255.446 427.85 256.753 427.013 258.216C426.282 259.784 424.975 260.882 423.093 261.509C421.212 262.136 418.651 262.45 415.41 262.45C412.17 262.45 409.556 262.136 407.57 261.509C405.689 260.882 404.33 259.837 403.493 258.373C402.762 256.91 402.291 255.603 402.082 254.453C401.978 253.303 401.925 251.526 401.925 249.122ZM432.972 175.269C430.568 178.091 429.365 181.175 429.365 184.52C429.365 187.865 430.568 190.949 432.972 193.771C435.481 196.489 438.617 197.848 442.38 197.848C446.248 197.848 449.488 196.489 452.101 193.771C454.819 191.054 456.178 187.97 456.178 184.52C456.178 181.071 454.924 177.987 452.415 175.269C449.906 172.447 446.613 171.035 442.537 171.035C438.564 171.035 435.376 172.447 432.972 175.269ZM486.759 219.33C484.773 218.075 483.78 216.089 483.78 213.371C483.78 210.654 485.766 206.525 489.738 200.984C490.888 199.207 492.717 198.319 495.226 198.319C497.84 198.319 501.341 199.625 505.732 202.239C510.122 204.747 514.095 206.002 517.649 206.002C524.025 206.002 527.213 204.747 527.213 202.239C527.213 200.253 523.712 198.789 516.708 197.848C510.122 196.907 503.589 194.451 497.108 190.479C494.076 188.597 491.568 185.67 489.581 181.698C487.595 177.621 486.602 172.813 486.602 167.272C486.602 150.756 497.944 142.498 520.628 142.498C528.05 142.498 535.681 144.275 543.521 147.829C547.179 149.502 549.009 151.592 549.009 154.101C549.009 156.61 547.859 159.694 545.559 163.352C543.259 167.011 540.907 168.84 538.503 168.84C537.249 168.84 534.897 168.056 531.447 166.488C528.102 164.92 524.443 164.136 520.471 164.136C514.304 164.136 511.22 165.286 511.22 167.586C511.22 170.722 514.774 172.76 521.882 173.701C528.781 174.433 535.472 176.419 541.953 179.659C544.984 181.123 547.493 183.684 549.479 187.343C551.57 190.897 552.615 195.392 552.615 200.827C552.615 206.263 551.57 210.915 549.479 214.783C547.493 218.546 544.671 221.368 541.012 223.25C534.322 226.49 525.907 228.111 515.767 228.111C505.732 228.111 496.063 225.184 486.759 219.33ZM635.446 175.583C635.446 181.959 633.826 186.715 630.585 189.851C627.449 192.883 623.947 194.399 620.08 194.399H582.918C582.918 197.326 584.643 199.782 588.092 201.768C591.542 203.754 594.992 204.747 598.441 204.747C604.504 204.747 609.26 204.12 612.71 202.866L614.435 202.239C616.944 201.089 619.034 200.514 620.707 200.514C624.052 200.514 626.926 202.866 629.331 207.57C630.69 210.392 631.369 212.797 631.369 214.783C631.369 224.086 620.236 228.738 597.971 228.738C590.235 228.738 583.336 227.431 577.273 224.818C571.315 222.1 566.663 218.546 563.318 214.155C556.732 205.688 553.44 196.228 553.44 185.775C553.44 172.603 557.673 162.098 566.14 154.258C574.712 146.313 585.374 142.341 598.128 142.341C612.658 142.341 623.32 147.463 630.115 157.707C633.669 163.143 635.446 169.102 635.446 175.583ZM602.361 180.13C606.333 180.13 608.32 178.457 608.32 175.112C608.32 172.708 607.379 170.774 605.497 169.311C603.72 167.847 601.107 167.115 597.657 167.115C594.312 167.115 590.967 168.527 587.622 171.349C584.277 174.067 582.604 176.994 582.604 180.13H602.361Z"
                      fill="#4F9082"/>
                <path id="synapse_7"
                      d="M75.0684 208.311C73.0823 207.057 72.0892 205.071 72.0892 202.353C72.0892 199.635 74.0753 195.506 78.0476 189.966C79.1975 188.189 81.0268 187.3 83.5356 187.3C86.1489 187.3 89.6508 188.607 94.0412 191.22C98.4316 193.729 102.404 194.983 105.958 194.983C112.335 194.983 115.523 193.729 115.523 191.22C115.523 189.234 112.021 187.771 105.017 186.83C98.4316 185.889 91.8983 183.432 85.4172 179.46C82.3857 177.579 79.8769 174.652 77.8908 170.679C75.9047 166.603 74.9116 161.794 74.9116 156.254C74.9116 139.737 86.2535 131.479 108.937 131.479C116.359 131.479 123.99 133.256 131.83 136.811C135.489 138.483 137.318 140.574 137.318 143.083C137.318 145.591 136.168 148.675 133.868 152.334C131.569 155.992 129.217 157.822 126.812 157.822C125.558 157.822 123.206 157.038 119.756 155.47C116.411 153.902 112.753 153.118 108.78 153.118C102.613 153.118 99.5292 154.268 99.5292 156.567C99.5292 159.703 103.083 161.742 110.192 162.683C117.091 163.414 123.781 165.4 130.262 168.641C133.293 170.104 135.802 172.665 137.788 176.324C139.879 179.878 140.924 184.373 140.924 189.809C140.924 195.245 139.879 199.896 137.788 203.764C135.802 207.527 132.98 210.35 129.321 212.231C122.631 215.472 114.216 217.092 104.076 217.092C94.0412 217.092 84.3719 214.165 75.0684 208.311ZM214.655 133.988C220.822 136.706 223.906 139.999 223.906 143.867C223.906 145.748 223.488 147.525 222.651 149.198C221.815 150.87 221.397 151.759 221.397 151.863L180.315 243.748C179.479 245.734 178.747 247.25 178.12 248.295C177.598 249.341 176.709 250.334 175.455 251.275C174.2 252.215 172.632 252.686 170.751 252.686C168.869 252.686 166.099 251.902 162.44 250.334C156.273 247.616 153.189 244.375 153.189 240.612C153.189 238.103 158.207 226.134 168.242 204.705L137.039 152.177C134.948 148.727 133.903 146.166 133.903 144.494C133.903 141.149 136.725 137.804 142.37 134.459C145.924 132.368 148.694 131.322 150.68 131.322C152.666 131.322 154.287 131.741 155.541 132.577C156.795 133.413 157.684 134.302 158.207 135.243C158.834 136.079 161.709 140.94 166.831 149.825C172.057 158.606 177.023 166.812 181.727 174.443C182.249 172.77 185.072 166.341 190.194 155.156C195.316 143.867 198.034 137.856 198.347 137.124C198.766 136.392 199.393 135.504 200.229 134.459C201.588 132.681 203.47 131.793 205.874 131.793C208.383 131.793 211.31 132.525 214.655 133.988ZM269.809 133.047C280.262 133.047 288.939 137.072 295.838 145.121C302.842 153.065 306.343 162.787 306.343 174.286V201.883C306.343 204.287 306.239 206.116 306.03 207.371C305.925 208.52 305.507 209.827 304.775 211.291C303.312 214.113 299.235 215.524 292.545 215.524C285.123 215.524 280.837 213.59 279.687 209.723C279.06 207.945 278.747 205.28 278.747 201.726V174.129C278.747 169.843 277.492 166.498 274.983 164.094C272.579 161.689 269.286 160.487 265.105 160.487C261.028 160.487 257.683 161.742 255.07 164.251C252.561 166.759 251.307 170.052 251.307 174.129V201.883C251.307 204.287 251.202 206.116 250.993 207.371C250.889 208.52 250.418 209.827 249.582 211.291C248.223 214.113 244.198 215.524 237.508 215.524C230.923 215.524 226.898 214.113 225.435 211.291C224.703 209.723 224.233 208.364 224.023 207.214C223.919 205.959 223.867 204.13 223.867 201.726V146.219C223.867 143.919 223.919 142.194 224.023 141.044C224.233 139.79 224.755 138.431 225.591 136.967C227.055 134.354 231.079 133.047 237.665 133.047C244.042 133.047 247.962 134.249 249.425 136.654C250.47 138.431 250.993 140.574 250.993 143.083C251.411 142.351 252.352 141.305 253.815 139.947C255.279 138.588 256.69 137.49 258.049 136.654C261.603 134.249 265.523 133.047 269.809 133.047ZM365.527 141.828C366.154 135.974 370.283 133.047 377.914 133.047C381.991 133.047 385.022 133.361 387.009 133.988C388.995 134.615 390.354 135.713 391.085 137.281C391.922 138.849 392.392 140.26 392.497 141.515C392.706 142.664 392.81 144.441 392.81 146.846V201.726C392.81 204.13 392.706 205.959 392.497 207.214C392.392 208.364 391.974 209.723 391.242 211.291C389.779 214.008 386.172 215.367 380.423 215.367C374.778 215.367 370.963 214.688 368.977 213.329C367.095 211.865 365.997 209.775 365.684 207.057C361.816 212.597 355.335 215.367 346.241 215.367C337.251 215.367 328.888 211.238 321.153 202.98C313.417 194.722 309.549 185.157 309.549 174.286C309.549 163.31 313.417 153.745 321.153 145.591C328.993 137.333 337.564 133.204 346.868 133.204C350.422 133.204 353.662 133.831 356.589 135.086C359.516 136.34 361.555 137.542 362.705 138.692C363.854 139.737 364.795 140.783 365.527 141.828ZM336.989 174.443C336.989 177.892 338.348 181.028 341.066 183.851C343.784 186.568 347.077 187.927 350.945 187.927C354.812 187.927 358.001 186.516 360.509 183.694C363.123 180.871 364.429 177.788 364.429 174.443C364.429 170.993 363.175 167.805 360.666 164.878C358.262 161.951 354.969 160.487 350.788 160.487C346.711 160.487 343.366 161.951 340.753 164.878C338.244 167.805 336.989 170.993 336.989 174.443ZM398.252 238.103V146.532C398.252 144.128 398.304 142.351 398.408 141.201C398.617 140.051 399.088 138.744 399.82 137.281C401.283 134.459 404.785 133.047 410.325 133.047C415.865 133.047 419.576 133.779 421.458 135.243C423.444 136.601 424.594 138.64 424.908 141.358C428.88 135.922 435.1 133.204 443.567 133.204C452.138 133.204 460.24 137.229 467.871 145.278C475.502 153.327 479.317 162.683 479.317 173.345C479.317 184.007 475.502 193.363 467.871 201.412C460.344 209.461 452.295 213.486 443.724 213.486C435.152 213.486 428.932 211.081 425.064 206.273V237.947C425.064 240.351 424.96 242.128 424.751 243.278C424.646 244.428 424.176 245.734 423.34 247.198C422.608 248.766 421.301 249.863 419.42 250.491C417.538 251.118 414.977 251.431 411.736 251.431C408.496 251.431 405.882 251.118 403.896 250.491C402.015 249.863 400.656 248.818 399.82 247.355C399.088 245.891 398.617 244.584 398.408 243.435C398.304 242.285 398.252 240.508 398.252 238.103ZM429.298 164.251C426.894 167.073 425.692 170.157 425.692 173.502C425.692 176.847 426.894 179.931 429.298 182.753C431.807 185.471 434.943 186.83 438.706 186.83C442.574 186.83 445.814 185.471 448.428 182.753C451.145 180.035 452.504 176.951 452.504 173.502C452.504 170.052 451.25 166.968 448.741 164.251C446.232 161.428 442.94 160.017 438.863 160.017C434.89 160.017 431.702 161.428 429.298 164.251ZM483.085 208.311C481.099 207.057 480.106 205.071 480.106 202.353C480.106 199.635 482.092 195.506 486.064 189.966C487.214 188.189 489.044 187.3 491.552 187.3C494.166 187.3 497.668 188.607 502.058 191.22C506.448 193.729 510.421 194.983 513.975 194.983C520.351 194.983 523.54 193.729 523.54 191.22C523.54 189.234 520.038 187.771 513.034 186.83C506.448 185.889 499.915 183.432 493.434 179.46C490.403 177.579 487.894 174.652 485.908 170.679C483.922 166.603 482.928 161.794 482.928 156.254C482.928 139.737 494.27 131.479 516.954 131.479C524.376 131.479 532.007 133.256 539.847 136.811C543.506 138.483 545.335 140.574 545.335 143.083C545.335 145.591 544.185 148.675 541.885 152.334C539.586 155.992 537.234 157.822 534.829 157.822C533.575 157.822 531.223 157.038 527.773 155.47C524.428 153.902 520.77 153.118 516.797 153.118C510.63 153.118 507.546 154.268 507.546 156.567C507.546 159.703 511.1 161.742 518.208 162.683C525.108 163.414 531.798 165.4 538.279 168.641C541.31 170.104 543.819 172.665 545.805 176.324C547.896 179.878 548.941 184.373 548.941 189.809C548.941 195.245 547.896 199.896 545.805 203.764C543.819 207.527 540.997 210.35 537.338 212.231C530.648 215.472 522.233 217.092 512.093 217.092C502.058 217.092 492.389 214.165 483.085 208.311ZM631.772 164.564C631.772 170.941 630.152 175.697 626.911 178.833C623.775 181.864 620.273 183.38 616.406 183.38H579.244C579.244 186.307 580.969 188.764 584.419 190.75C587.868 192.736 591.318 193.729 594.767 193.729C600.83 193.729 605.587 193.102 609.036 191.847L610.761 191.22C613.27 190.07 615.36 189.495 617.033 189.495C620.378 189.495 623.253 191.847 625.657 196.551C627.016 199.374 627.695 201.778 627.695 203.764C627.695 213.068 616.563 217.719 594.297 217.719C586.561 217.719 579.662 216.413 573.599 213.799C567.641 211.081 562.989 207.527 559.644 203.137C553.059 194.67 549.766 185.209 549.766 174.756C549.766 161.585 553.999 151.079 562.467 143.239C571.038 135.295 581.701 131.322 594.454 131.322C608.984 131.322 619.646 136.445 626.441 146.689C629.995 152.125 631.772 158.083 631.772 164.564ZM598.687 169.111C602.66 169.111 604.646 167.439 604.646 164.094C604.646 161.689 603.705 159.756 601.823 158.292C600.046 156.829 597.433 156.097 593.983 156.097C590.638 156.097 587.293 157.508 583.948 160.331C580.603 163.048 578.931 165.975 578.931 169.111H598.687Z"
                      fill="#4CB69F"/>
            </g>
        </g>
    </g>
    <defs>
        <filter id="filter0_d" x="0" y="0" width="728.84" height="458"
                filterUnits="userSpaceOnUse" color-interpolation-filters="sRGB">
            <feFlood flood-opacity="0" result="BackgroundImageFix"/>
            <feColorMatrix in="SourceAlpha" type="matrix"
                           values="0 0 0 0 0 0 0 0 0 0 0 0 0 0 0 0 0 0 127 0"/>
            <feOffset dx="4" dy="4"/>
            <feGaussianBlur stdDeviation="2"/>
            <feColorMatrix type="matrix"
                           values="0 0 0 0 0 0 0 0 0 0 0 0 0 0 0 0 0 0 0.2 0"/>
            <feBlend mode="normal" in2="BackgroundImageFix"
                     result="effect1_dropShadow"/>
            <feBlend mode="normal" in="SourceGraphic" in2="effect1_dropShadow"
                     result="shape"/>
        </filter>
        <filter id="filter1_d" x="-6.25684" y="0" width="796.142"
                height="537.392" filterUnits="userSpaceOnUse"
                color-interpolation-filters="sRGB">
            <feFlood flood-opacity="0" result="BackgroundImageFix"/>
            <feColorMatrix in="SourceAlpha" type="matrix"
                           values="0 0 0 0 0 0 0 0 0 0 0 0 0 0 0 0 0 0 127 0"/>
            <feOffset dx="4" dy="4"/>
            <feGaussianBlur stdDeviation="2"/>
            <feColorMatrix type="matrix"
                           values="0 0 0 0 0 0 0 0 0 0 0 0 0 0 0 0 0 0 0.2 0"/>
            <feBlend mode="normal" in2="BackgroundImageFix"
                     result="effect1_dropShadow"/>
            <feBlend mode="normal" in="SourceGraphic" in2="effect1_dropShadow"
                     result="shape"/>
        </filter>
        <linearGradient id="paint0_linear" x1="675.788" y1="10.9921"
                        x2="1174.92" y2="481.888"
                        gradientUnits="userSpaceOnUse">
            <stop stop-color="#D0D0CF"/>
            <stop offset="1" stop-color="#E1DED7"/>
        </linearGradient>
        <linearGradient id="paint1_linear" x1="296.01" y1="13.0187" x2="647.132"
                        y2="279.722" gradientUnits="userSpaceOnUse">
            <stop stop-color="white"/>
            <stop offset="1" stop-color="#EAEAEA"/>
        </linearGradient>
        <linearGradient id="paint2_linear" x1="317.39" y1="15.3156" x2="721.432"
                        y2="300.547" gradientUnits="userSpaceOnUse">
            <stop stop-color="white"/>
            <stop offset="1" stop-color="#EAEAEA"/>
        </linearGradient>
        <clipPath id="clip0">
            <rect width="1190" height="530" rx="50" fill="white"/>
        </clipPath>
    </defs>
</svg>
