<svg width="1106" height="450" viewBox="0 0 1106 450" fill="none"
     xmlns="http://www.w3.org/2000/svg">
    <g id="SignUpModel">
        <g clip-path="url(#clip0)">
            <path id="Intersect"
                  d="M395.138 450C430.012 437.922 472.491 417.736 512.029 392.201C594.833 342.177 683.226 268.634 674.918 197.014C671.114 164.224 664.664 140.529 659.561 121.781C646.056 72.1642 641.981 57.195 721.34 0H1055.5C1083.11 0 1105.5 22.3858 1105.5 50V400C1105.5 427.614 1083.11 450 1055.5 450H395.138Z"
                  fill="url(#paint0_linear)"/>
            <g id="Intersect_2" filter="url(#filter0_d)">
                <path d="M721.34 0C641.981 57.1951 646.056 72.1643 659.561 121.781C664.664 140.529 671.114 164.225 674.918 197.014C687.942 309.288 463.328 426.285 395.137 450H50.5C22.8858 450 0.5 427.614 0.5 400V50C0.5 22.3858 22.8858 0 50.5 0H721.34Z"
                      fill="url(#paint1_linear)"/>
            </g>
            <g id="Frame 119" clip-path="url(#clip1)">
                <g id="Group 125">
                    <g id="Synaps Logo">
                        <g id="Vector" filter="url(#filter1_d)">
                            <path d="M69.8563 197.5C58.074 197.501 46.5416 194.115 36.6435 187.748C35.5884 187.128 34.7223 186.234 34.1377 185.162C33.5531 184.09 33.2721 182.879 33.3246 181.66C33.3246 178.294 35.5372 173.52 39.9623 167.337C40.6022 166.353 41.4961 165.559 42.5502 165.038C43.6043 164.517 44.7798 164.289 45.9531 164.376C48.9844 164.376 52.531 165.57 56.6167 168.029C62.3199 171.276 67.1564 172.899 71.1263 172.899C78.2274 172.899 81.7819 171.506 81.7899 168.721C81.7899 167.528 80.6756 166.585 78.471 165.761C75.7499 164.834 72.9389 164.194 70.0839 163.851C66.3467 163.294 62.6822 162.33 59.1568 160.975C55.3491 159.572 51.6924 157.793 48.2416 155.663C44.5729 153.236 41.666 149.827 39.8545 145.827C37.5352 140.84 36.3996 135.388 36.5356 129.893C36.5356 111.59 49.1801 102.439 74.4692 102.439C83.3067 102.587 92.0095 104.622 99.9898 108.407C104.064 110.269 106.1 112.824 106.1 116.07C106.1 118.458 104.902 121.525 102.434 125.476C99.7502 129.654 97.0783 131.743 94.3945 131.743C92.3006 131.567 90.2634 130.975 88.4037 130C84.0062 127.807 79.1811 126.597 74.2655 126.455C67.3881 126.455 63.9614 127.744 63.9614 130.286C63.9614 132.149 65.0876 133.629 67.3641 134.727C70.0729 135.953 72.9684 136.72 75.9309 136.995C79.6896 137.481 83.4008 138.279 87.0258 139.382C90.8438 140.483 94.5597 141.908 98.1327 143.643C101.76 145.554 104.718 148.518 106.616 152.142C109.017 156.669 110.194 161.741 110.03 166.859C110.215 172.315 109.042 177.732 106.616 182.627C104.515 186.705 101.155 190.002 97.0304 192.033C93.0485 194.011 88.8167 195.444 84.4498 196.294C79.6339 197.15 74.7479 197.554 69.8563 197.5Z"
                                  fill="#4CB69F"/>
                        </g>
                        <g id="Vector_2" filter="url(#filter2_d)">
                            <path d="M200.072 105.22C206.95 108.244 210.389 111.901 210.389 116.19C210.389 118.04 209.514 120.833 207.765 124.545V124.724C207.712 124.766 207.669 124.818 207.638 124.878C207.607 124.938 207.589 125.003 207.585 125.07L161.791 227.101C161.079 228.824 160.279 230.509 159.395 232.15C158.628 233.462 157.586 234.594 156.34 235.469C154.924 236.515 153.201 237.064 151.439 237.032C149.115 237.032 145.904 236.161 141.854 234.418C134.977 231.402 131.538 227.821 131.538 223.676C131.538 221.814 132.473 218.794 134.342 214.616C138.639 204.741 143.3 194.468 148.324 183.797L113.578 125.464C111.245 121.629 110.079 118.784 110.079 116.93C110.079 113.214 113.226 109.497 119.521 105.781C123.474 103.466 126.853 102.308 129.657 102.308C131.262 102.298 132.835 102.763 134.174 103.645C135.377 104.389 136.416 105.367 137.229 106.521C137.876 107.516 138.839 109.056 140.117 111.141C150.373 128.647 158.121 141.646 163.361 150.136C163.944 148.282 169.536 135.805 180.135 112.704C180.95 110.842 181.561 109.517 181.968 108.694C182.514 107.677 183.16 106.717 183.897 105.829C184.641 104.807 185.63 103.986 186.773 103.442C187.992 102.943 189.302 102.703 190.619 102.737C193.905 102.927 197.12 103.771 200.072 105.22Z"
                                  fill="#4CB69F"/>
                        </g>
                        <g id="Vector_3" filter="url(#filter3_d)">
                            <path d="M269.457 104.17C275 104.074 280.494 105.221 285.532 107.527C290.57 109.833 295.022 113.238 298.56 117.491C306.308 126.371 310.182 137.198 310.182 149.969V180.61C310.211 182.602 310.127 184.595 309.931 186.578C309.665 188.164 309.13 189.694 308.349 191.102C307.863 191.981 307.202 192.751 306.407 193.367C305.612 193.983 304.699 194.43 303.724 194.683C300.82 195.466 297.817 195.82 294.81 195.733C292.273 195.789 289.741 195.496 287.285 194.862C285.676 194.452 284.142 193.787 282.744 192.892C281.58 191.987 280.739 190.731 280.348 189.311C279.892 188.015 279.599 186.668 279.473 185.301C279.414 184.262 279.39 182.639 279.39 180.431V149.79C279.39 145.016 278.012 141.316 275.28 138.654C272.548 135.992 268.846 134.643 264.185 134.643C262.147 134.563 260.114 134.892 258.206 135.609C256.298 136.327 254.554 137.419 253.078 138.821C251.645 140.257 250.525 141.973 249.789 143.86C249.053 145.748 248.716 147.767 248.801 149.79V180.61C248.833 182.603 248.745 184.596 248.537 186.578C248.282 188.165 247.751 189.696 246.968 191.102C246.48 191.982 245.818 192.753 245.02 193.369C244.223 193.985 243.308 194.432 242.331 194.683C239.427 195.466 236.423 195.82 233.416 195.733C230.469 195.814 227.525 195.46 224.682 194.683C223.696 194.429 222.775 193.973 221.976 193.344C221.178 192.715 220.52 191.927 220.045 191.03C219.273 189.586 218.743 188.025 218.475 186.411C218.267 184.429 218.179 182.436 218.212 180.443V118.804C218.18 116.855 218.268 114.905 218.475 112.967C218.735 111.395 219.296 109.887 220.129 108.527C220.652 107.678 221.338 106.94 222.148 106.356C222.958 105.772 223.877 105.354 224.85 105.125C227.709 104.415 230.651 104.094 233.596 104.17C236.489 104.089 239.377 104.443 242.163 105.22C244.032 105.631 245.684 106.715 246.8 108.264C247.485 109.302 247.987 110.448 248.286 111.654C248.485 112.865 248.573 114.092 248.549 115.319C248.842 114.9 249.163 114.502 249.508 114.125C249.915 113.655 250.79 112.784 252.132 111.511C253.443 110.244 254.867 109.097 256.385 108.085C258.222 106.955 260.19 106.049 262.244 105.388C264.565 104.589 267.002 104.178 269.457 104.17Z"
                                  fill="#4CB69F"/>
                        </g>
                        <g id="Vector_4" filter="url(#filter4_d)">
                            <path d="M399.157 104.17C402.105 104.084 405.049 104.438 407.891 105.22C408.877 105.474 409.799 105.93 410.597 106.559C411.396 107.188 412.053 107.976 412.528 108.873C413.3 110.317 413.83 111.878 414.098 113.492C414.307 115.474 414.395 117.467 414.361 119.46V180.443C414.395 182.435 414.307 184.428 414.098 186.411C413.842 188.013 413.311 189.56 412.528 190.982C412.041 191.862 411.378 192.634 410.581 193.25C409.784 193.866 408.868 194.312 407.891 194.563C404.989 195.352 401.984 195.706 398.977 195.614C393.729 195.614 390.039 194.826 387.882 193.226C386.795 192.418 385.896 191.385 385.247 190.198C384.597 189.012 384.213 187.699 384.12 186.351C379.807 192.502 372.813 195.578 363.14 195.578C352.66 195.578 343.107 190.99 334.48 181.815C326.072 173.193 321.425 161.608 321.552 149.587C321.552 137.651 325.89 127.115 334.564 117.98C343.239 108.845 352.764 104.301 363.14 104.349C366.84 104.307 370.509 105.017 373.924 106.438C376.397 107.36 378.701 108.683 380.741 110.353C381.903 111.441 382.955 112.64 383.88 113.934C383.957 112.519 384.331 111.137 384.979 109.876C385.627 108.615 386.535 107.505 387.643 106.617C389.859 105.041 393.669 104.17 399.157 104.17ZM367.813 165.116C369.814 165.15 371.798 164.746 373.626 163.933C375.454 163.121 377.081 161.919 378.393 160.414C381.113 157.609 382.645 153.869 382.67 149.969C382.622 146.112 381.175 142.403 378.597 139.525C377.244 137.918 375.539 136.643 373.613 135.796C371.688 134.95 369.593 134.555 367.49 134.643C365.391 134.578 363.305 134.983 361.385 135.828C359.465 136.673 357.76 137.936 356.395 139.525C353.682 142.403 352.151 146.189 352.105 150.136C352.125 152.08 352.539 153.999 353.321 155.779C354.104 157.559 355.239 159.164 356.658 160.497C358.096 161.994 359.829 163.178 361.749 163.973C363.669 164.768 365.734 165.157 367.813 165.116Z"
                                  fill="#4CB69F"/>
                        </g>
                        <g id="Vector_5" filter="url(#filter5_d)">
                            <path d="M428.344 220.823V119.15C428.305 117.157 428.393 115.164 428.607 113.182C428.874 111.624 429.405 110.122 430.177 108.742C430.642 107.878 431.276 107.116 432.042 106.501C432.807 105.886 433.689 105.43 434.634 105.161C437.417 104.367 440.308 104.013 443.201 104.11C448.441 104.11 452.139 104.906 454.296 106.498C455.385 107.31 456.285 108.347 456.934 109.537C457.583 110.728 457.967 112.045 458.058 113.397C462.483 107.365 469.125 104.349 477.983 104.349C488.12 104.349 497.441 108.817 505.948 117.753C514.455 126.69 518.709 136.963 518.709 148.573C518.832 160.337 514.274 171.671 506.032 180.096C497.589 189.041 488.26 193.509 478.043 193.501C469.193 193.501 462.607 190.831 458.286 185.492V220.668C458.32 222.66 458.236 224.653 458.034 226.636C457.755 228.193 457.221 229.693 456.453 231.076C455.986 231.938 455.351 232.699 454.586 233.314C453.821 233.929 452.94 234.385 451.995 234.657C449.21 235.44 446.321 235.79 443.429 235.696C440.509 235.784 437.593 235.434 434.778 234.657C432.861 234.14 431.228 232.887 430.237 231.172C429.459 229.823 428.927 228.348 428.667 226.815C428.432 224.826 428.324 222.825 428.344 220.823ZM462.947 138.821C460.391 141.641 458.962 145.298 458.933 149.098C458.959 152.888 460.428 156.526 463.042 159.28C464.323 160.771 465.921 161.959 467.719 162.758C469.518 163.557 471.473 163.947 473.442 163.899C475.477 163.939 477.498 163.557 479.377 162.778C481.255 162 482.951 160.841 484.358 159.375C485.757 158.049 486.874 156.456 487.642 154.69C488.41 152.924 488.813 151.022 488.827 149.098C488.818 145.236 487.316 141.525 484.633 138.737C483.281 137.232 481.616 136.039 479.753 135.241C477.891 134.444 475.876 134.06 473.85 134.118C471.793 134.024 469.742 134.398 467.852 135.213C465.963 136.028 464.285 137.262 462.947 138.821Z"
                                  fill="#4CB69F"/>
                        </g>
                        <g id="Vector_6" filter="url(#filter6_d)">
                            <path d="M563.975 197.5C552.194 197.498 540.662 194.112 530.763 187.748C529.708 187.128 528.841 186.234 528.257 185.162C527.672 184.09 527.391 182.879 527.444 181.66C527.444 178.294 529.656 173.52 534.081 167.337C534.722 166.354 535.616 165.561 536.67 165.04C537.724 164.519 538.899 164.29 540.072 164.376C543.1 164.376 546.654 165.594 550.736 168.029C556.447 171.276 561.284 172.899 565.245 172.899C572.346 172.899 575.901 171.506 575.909 168.721C575.909 167.528 574.795 166.585 572.59 165.761C569.869 164.834 567.058 164.193 564.203 163.851C560.465 163.296 556.801 162.331 553.276 160.975C549.464 159.572 545.804 157.793 542.349 155.663C538.677 153.24 535.769 149.829 533.962 145.827C531.635 140.843 530.499 135.388 530.643 129.893C530.643 111.59 543.283 102.439 568.564 102.439C577.402 102.584 586.106 104.619 594.085 108.407C598.159 110.269 600.207 112.824 600.207 116.07C600.207 118.458 599.009 121.525 596.529 125.476C593.853 129.654 591.173 131.743 588.49 131.743C586.396 131.566 584.359 130.973 582.499 130C578.093 127.826 573.264 126.636 568.349 126.515C561.471 126.515 558.033 127.804 558.033 130.346C558.033 132.208 559.167 133.688 561.435 134.786C564.144 136.013 567.04 136.779 570.002 137.054C573.765 137.541 577.48 138.34 581.109 139.442C584.922 140.545 588.634 141.97 592.204 143.703C595.866 145.611 598.856 148.589 600.771 152.237C603.162 156.768 604.334 161.838 604.173 166.955C604.34 172.377 603.172 177.758 600.771 182.627C598.669 186.704 595.309 190.001 591.185 192.033C587.203 194.011 582.972 195.444 578.605 196.294C573.777 197.152 568.879 197.556 563.975 197.5Z"
                                  fill="#4CB69F"/>
                        </g>
                    </g>
</g>
</g>
</g>
</g>
    <defs>
        <filter id="filter0_d" x="0.5" y="0" width="728.84" height="458"
                filterUnits="userSpaceOnUse" color-interpolation-filters="sRGB">
            <feFlood flood-opacity="0" result="BackgroundImageFix"/>
            <feColorMatrix in="SourceAlpha" type="matrix"
                           values="0 0 0 0 0 0 0 0 0 0 0 0 0 0 0 0 0 0 127 0"/>
            <feOffset dx="4" dy="4"/>
            <feGaussianBlur stdDeviation="2"/>
            <feColorMatrix type="matrix"
                           values="0 0 0 0 0 0 0 0 0 0 0 0 0 0 0 0 0 0 0.2 0"/>
            <feBlend mode="normal" in2="BackgroundImageFix"
                     result="effect1_dropShadow"/>
            <feBlend mode="normal" in="SourceGraphic" in2="effect1_dropShadow"
                     result="shape"/>
        </filter>
        <filter id="filter1_d" x="33.3184" y="102.439" width="88.7309"
                height="109.065" filterUnits="userSpaceOnUse"
                color-interpolation-filters="sRGB">
            <feFlood flood-opacity="0" result="BackgroundImageFix"/>
            <feColorMatrix in="SourceAlpha" type="matrix"
                           values="0 0 0 0 0 0 0 0 0 0 0 0 0 0 0 0 0 0 127 0"/>
            <feOffset dx="6" dy="8"/>
            <feGaussianBlur stdDeviation="3"/>
            <feColorMatrix type="matrix"
                           values="0 0 0 0 0 0 0 0 0 0 0 0 0 0 0 0 0 0 0.28 0"/>
            <feBlend mode="normal" in2="BackgroundImageFix"
                     result="effect1_dropShadow"/>
            <feBlend mode="normal" in="SourceGraphic" in2="effect1_dropShadow"
                     result="shape"/>
        </filter>
        <filter id="filter2_d" x="110.079" y="102.308" width="112.309"
                height="148.726" filterUnits="userSpaceOnUse"
                color-interpolation-filters="sRGB">
            <feFlood flood-opacity="0" result="BackgroundImageFix"/>
            <feColorMatrix in="SourceAlpha" type="matrix"
                           values="0 0 0 0 0 0 0 0 0 0 0 0 0 0 0 0 0 0 127 0"/>
            <feOffset dx="6" dy="8"/>
            <feGaussianBlur stdDeviation="3"/>
            <feColorMatrix type="matrix"
                           values="0 0 0 0 0 0 0 0 0 0 0 0 0 0 0 0 0 0 0.28 0"/>
            <feBlend mode="normal" in2="BackgroundImageFix"
                     result="effect1_dropShadow"/>
            <feBlend mode="normal" in="SourceGraphic" in2="effect1_dropShadow"
                     result="shape"/>
        </filter>
        <filter id="filter3_d" x="218.205" y="104.159" width="103.983"
                height="105.587" filterUnits="userSpaceOnUse"
                color-interpolation-filters="sRGB">
            <feFlood flood-opacity="0" result="BackgroundImageFix"/>
            <feColorMatrix in="SourceAlpha" type="matrix"
                           values="0 0 0 0 0 0 0 0 0 0 0 0 0 0 0 0 0 0 127 0"/>
            <feOffset dx="6" dy="8"/>
            <feGaussianBlur stdDeviation="3"/>
            <feColorMatrix type="matrix"
                           values="0 0 0 0 0 0 0 0 0 0 0 0 0 0 0 0 0 0 0.28 0"/>
            <feBlend mode="normal" in2="BackgroundImageFix"
                     result="effect1_dropShadow"/>
            <feBlend mode="normal" in="SourceGraphic" in2="effect1_dropShadow"
                     result="shape"/>
        </filter>
        <filter id="filter4_d" x="321.55" y="104.157" width="104.819"
                height="105.471" filterUnits="userSpaceOnUse"
                color-interpolation-filters="sRGB">
            <feFlood flood-opacity="0" result="BackgroundImageFix"/>
            <feColorMatrix in="SourceAlpha" type="matrix"
                           values="0 0 0 0 0 0 0 0 0 0 0 0 0 0 0 0 0 0 127 0"/>
            <feOffset dx="6" dy="8"/>
            <feGaussianBlur stdDeviation="3"/>
            <feColorMatrix type="matrix"
                           values="0 0 0 0 0 0 0 0 0 0 0 0 0 0 0 0 0 0 0.28 0"/>
            <feBlend mode="normal" in2="BackgroundImageFix"
                     result="effect1_dropShadow"/>
            <feBlend mode="normal" in="SourceGraphic" in2="effect1_dropShadow"
                     result="shape"/>
        </filter>
        <filter id="filter5_d" x="428.335" y="104.094" width="102.376"
                height="145.616" filterUnits="userSpaceOnUse"
                color-interpolation-filters="sRGB">
            <feFlood flood-opacity="0" result="BackgroundImageFix"/>
            <feColorMatrix in="SourceAlpha" type="matrix"
                           values="0 0 0 0 0 0 0 0 0 0 0 0 0 0 0 0 0 0 127 0"/>
            <feOffset dx="6" dy="8"/>
            <feGaussianBlur stdDeviation="3"/>
            <feColorMatrix type="matrix"
                           values="0 0 0 0 0 0 0 0 0 0 0 0 0 0 0 0 0 0 0.28 0"/>
            <feBlend mode="normal" in2="BackgroundImageFix"
                     result="effect1_dropShadow"/>
            <feBlend mode="normal" in="SourceGraphic" in2="effect1_dropShadow"
                     result="shape"/>
        </filter>
        <filter id="filter6_d" x="527.438" y="102.439" width="88.7516"
                height="109.065" filterUnits="userSpaceOnUse"
                color-interpolation-filters="sRGB">
            <feFlood flood-opacity="0" result="BackgroundImageFix"/>
            <feColorMatrix in="SourceAlpha" type="matrix"
                           values="0 0 0 0 0 0 0 0 0 0 0 0 0 0 0 0 0 0 127 0"/>
            <feOffset dx="6" dy="8"/>
            <feGaussianBlur stdDeviation="3"/>
            <feColorMatrix type="matrix"
                           values="0 0 0 0 0 0 0 0 0 0 0 0 0 0 0 0 0 0 0.28 0"/>
            <feBlend mode="normal" in2="BackgroundImageFix"
                     result="effect1_dropShadow"/>
            <feBlend mode="normal" in="SourceGraphic" in2="effect1_dropShadow"
                     result="shape"/>
        </filter>
        <linearGradient id="paint0_linear" x1="642.836" y1="14.6779" x2="1066.8"
                        y2="434.46" gradientUnits="userSpaceOnUse">
            <stop stop-color="#D0D0CF"/>
            <stop offset="1" stop-color="#E1DED7"/>
        </linearGradient>
        <linearGradient id="paint1_linear" x1="296.51" y1="13.0187" x2="647.632"
                        y2="279.722" gradientUnits="userSpaceOnUse">
            <stop stop-color="white"/>
            <stop offset="1" stop-color="#EAEAEA"/>
        </linearGradient>
        <clipPath id="clip0">
            <rect x="0.5" width="1105" height="450" rx="50" fill="white"/>
        </clipPath>
        <clipPath id="clip1">
            <rect width="1035" height="330" fill="white"
                  transform="translate(33 62)"/>
        </clipPath>
    </defs>
</svg>
